<svg xmlns="http://www.w3.org/2000/svg" xmlns:xlink="http://www.w3.org/1999/xlink" xmlns:inkscape="http://www.inkscape.org/namespaces/inkscape" version="1.1" width="841.8898" height="595.2756" viewBox="0 0 841.8898 595.2756">
<g inkscape:groupmode="layer" inkscape:label="Vrstva 1">
</g>
<g inkscape:groupmode="layer" inkscape:label="woman from couple 2">
<path transform="matrix(1,0,0,-1,0,595.2756)" d="M183.6128 86.7634H226.1324V44.2437H183.6128Z" fill="#124094" fill-rule="evenodd"/>
<path transform="matrix(1,0,0,-1,0,595.2756)" d="M460.9199 86.7634H503.4396V44.2437H460.9199Z" fill="#e3000f" fill-rule="evenodd"/>
<path transform="matrix(1,0,0,-1,0,595.2756)" d="M257.3935 60.9616 259.0733 60.4457C258.8153 59.4995 258.3853 58.7976 257.7855 58.3376 257.1854 57.8795 256.4254 57.6496 255.5033 57.6496 254.3615 57.6496 253.4236 58.0397 252.6874 58.8195 251.9535 59.5996 251.5856 60.6657 251.5856 62.0195 251.5856 63.4496 251.9555 64.5616 252.6934 65.3536 253.4315 66.1456 254.4035 66.5416 255.6074 66.5416 256.6593 66.5416 257.5134 66.2295 258.1693 65.6076 258.5614 65.2397 258.8533 64.7116 259.0495 64.0216L257.3334 63.6137C257.2313 64.0576 257.0193 64.4097 256.6976 64.6676 256.3736 64.9256 255.9815 65.0534 255.5215 65.0534 254.8834 65.0534 254.3655 64.8255 253.9695 64.3674 253.5715 63.9116 253.3734 63.1715 253.3734 62.1476 253.3734 61.0637 253.5695 60.2895 253.9596 59.8294 254.3513 59.3677 254.8596 59.1375 255.4855 59.1375 255.9475 59.1375 256.3455 59.2835 256.6774 59.5777 257.0094 59.8717 257.2495 60.3315 257.3935 60.9616ZM260.5394 57.7936V66.3854H263.1453L264.6853 60.5256 266.2072 66.3854H268.8191V57.7936H267.2113L267.2053 64.5576 265.5113 57.7936H263.8392L262.1531 64.5576 262.1472 57.7936ZM272.8151 57.7936V61.4095L269.6652 66.3854H271.6991L273.731 62.9836 275.709 66.3854H277.7051L274.555 61.3976V57.7936ZM278.587 57.7936V66.3854H280.3269V62.5796L283.8331 66.3854H286.1649L282.9229 63.0397 286.3329 57.7936H284.089L281.7249 61.8276 280.3269 60.3916V57.7936ZM258.0653 47.4018 259.2054 47.1138C258.9676 46.1798 258.5395 45.4697 257.9213 44.9796 257.3033 44.4898 256.5473 44.2437 255.6536 44.2437 254.7295 44.2437 253.9774 44.4317 253.3975 44.8098 252.8175 45.1857 252.3776 45.7316 252.0754 46.4457 251.7735 47.1617 251.6216 47.9276 251.6216 48.7477 251.6216 49.6417 251.7914 50.4215 252.1335 51.0877 252.4754 51.7535 252.9615 52.2595 253.5914 52.6056 254.2215 52.9517 254.9154 53.1235 255.6714 53.1235 256.5315 53.1235 257.2534 52.9055 257.8374 52.4676 258.4233 52.0296 258.8315 51.4157 259.0614 50.6237L257.9454 50.3597C257.7475 50.9837 257.4575 51.4397 257.0794 51.7238 256.7015 52.0098 256.2253 52.1515 255.6513 52.1515 254.9934 52.1515 254.4415 51.9936 253.9996 51.6776 253.5574 51.3618 253.2455 50.9357 253.0675 50.4037 252.8875 49.8696 252.7974 49.3197 252.7974 48.7536 252.7974 48.0237 252.9034 47.3856 253.1154 46.8417 253.3275 46.2957 253.6574 45.8898 254.1056 45.6197 254.5534 45.3498 255.0373 45.2157 255.5595 45.2157 256.1956 45.2157 256.7313 45.3997 257.1715 45.7656 257.6115 46.1336 257.9094 46.6778 258.0653 47.4018ZM260.7673 49.4158V50.6157H261.9672V49.4158ZM260.7673 44.3877V45.5876H261.9672V44.3877ZM267.4854 44.3877H266.4295V51.1118C266.1755 50.8677 265.8413 50.6256 265.4294 50.3836 265.0173 50.1418 264.6454 49.9598 264.3174 49.8396V50.8598C264.9073 51.1356 265.4235 51.4718 265.8654 51.8678 266.3073 52.2618 266.6214 52.6436 266.8054 53.0155H267.4854ZM270.1993 48.6278C270.1993 49.6417 270.3033 50.4618 270.5114 51.0817 270.7211 51.7037 271.0312 52.1816 271.4434 52.5158 271.8533 52.8497 272.3712 53.0155 272.9954 53.0155 273.4551 53.0155 273.8594 52.9237 274.2092 52.7377 274.5573 52.5518 274.8453 52.2836 275.0692 51.9335 275.2931 51.5857 275.4692 51.1597 275.5973 50.6577 275.7271 50.1557 275.7912 49.4776 275.7912 48.6278 275.7912 47.6198 275.6871 46.8037 275.4814 46.1837 275.2753 45.5618 274.9652 45.0836 274.5533 44.7477 274.1431 44.4118 273.6232 44.2437 272.9954 44.2437 272.1694 44.2437 271.5194 44.5377 271.0474 45.1278 270.4813 45.8478 270.1993 47.0137 270.1993 48.6278ZM271.2793 48.6238C271.2793 47.2096 271.4434 46.2696 271.7734 45.8056 272.1033 45.3396 272.5112 45.1077 272.9954 45.1077 273.4792 45.1077 273.8871 45.3416 274.2171 45.8076 274.5473 46.2756 274.7112 47.2136 274.7112 48.6238 274.7112 50.0377 274.5473 50.9777 274.2171 51.4417 273.8891 51.9077 273.4773 52.1396 272.9832 52.1396 272.4993 52.1396 272.1112 51.9335 271.8213 51.5237 271.4593 51.0018 271.2793 50.0338 271.2793 48.6238ZM276.8732 48.6278C276.8732 49.6417 276.9772 50.4618 277.1853 51.0817 277.395 51.7037 277.7051 52.1816 278.1173 52.5158 278.5272 52.8497 279.0451 53.0155 279.6693 53.0155 280.129 53.0155 280.5333 52.9237 280.8831 52.7377 281.2311 52.5518 281.5191 52.2836 281.7431 51.9335 281.967 51.5857 282.1431 51.1597 282.2712 50.6577 282.401 50.1557 282.4651 49.4776 282.4651 48.6278 282.4651 47.6198 282.361 46.8037 282.1552 46.1837 281.9492 45.5618 281.6391 45.0836 281.2272 44.7477 280.817 44.4118 280.2971 44.2437 279.6693 44.2437 278.8432 44.2437 278.1933 44.5377 277.7213 45.1278 277.1552 45.8478 276.8732 47.0137 276.8732 48.6278ZM277.9532 48.6238C277.9532 47.2096 278.1173 46.2696 278.4472 45.8056 278.7772 45.3396 279.1851 45.1077 279.6693 45.1077 280.1531 45.1077 280.561 45.3416 280.891 45.8076 281.2212 46.2756 281.3851 47.2136 281.3851 48.6238 281.3851 50.0377 281.2212 50.9777 280.891 51.4417 280.563 51.9077 280.1511 52.1396 279.6571 52.1396 279.1732 52.1396 278.7851 51.9335 278.4951 51.5237 278.1332 51.0018 277.9532 50.0338 277.9532 48.6238ZM293.9454 44.3877V52.9795H295.6493L297.6814 46.8978C297.8694 46.3317 298.0054 45.9077 298.0913 45.6256 298.1894 45.9377 298.3433 46.3978 298.5514 47.0038L300.6193 52.9795H302.1412V44.3877H301.0493V51.5755L298.5415 44.3877H297.5173L295.0373 51.7076V44.3877ZM304.1212 49.4158V50.6157H305.3211V49.4158ZM304.1212 44.3877V45.5876H305.3211V44.3877ZM308.5053 49.0456C308.0673 49.2058 307.7433 49.4357 307.5313 49.7316 307.3212 50.0298 307.2152 50.3855 307.2152 50.7997 307.2152 51.4256 307.4394 51.9497 307.8873 52.3757 308.3372 52.8015 308.9333 53.0155 309.6794 53.0155 310.4271 53.0155 311.0312 52.7975 311.4873 52.3616 311.9434 51.9256 312.1713 51.3955 312.1713 50.7696 312.1713 50.3717 312.0673 50.0236 311.8592 49.7296 311.6511 49.4337 311.3354 49.2058 310.9093 49.0456 311.4351 48.8735 311.8331 48.5977 312.1072 48.2136 312.3814 47.8318 312.5191 47.3757 312.5191 46.8437 312.5191 46.1098 312.2592 45.4938 311.7413 44.9938 311.2211 44.4937 310.5394 44.2437 309.6933 44.2437 308.8474 44.2437 308.1654 44.4937 307.6452 44.9957 307.1273 45.4978 306.8674 46.1237 306.8674 46.8737 306.8674 47.4316 307.0094 47.8996 307.2932 48.2757 307.5772 48.6536 307.9814 48.9095 308.5053 49.0456ZM308.2952 50.8377C308.2952 50.4298 308.4253 50.0975 308.6833 49.8396 308.9432 49.5816 309.2834 49.4518 309.7052 49.4518 310.1153 49.4518 310.4473 49.5797 310.7052 49.8356 310.9632 50.0916 311.0913 50.4057 311.0913 50.7776 311.0913 51.1656 310.9592 51.4916 310.6933 51.7555 310.4291 52.0197 310.0952 52.1515 309.6933 52.1515 309.2873 52.1515 308.9534 52.0217 308.6892 51.7637 308.4273 51.5058 308.2952 51.1977 308.2952 50.8377ZM307.9474 46.8658C307.9474 46.5636 308.0174 46.2736 308.1572 45.9918 308.2972 45.7118 308.5092 45.4938 308.7933 45.3396 309.0753 45.1857 309.3792 45.1077 309.7012 45.1077 310.2092 45.1077 310.6253 45.2696 310.9513 45.5936 311.2773 45.9176 311.4394 46.3297 311.4394 46.8298 311.4394 47.3377 311.2713 47.7578 310.9374 48.0898 310.6012 48.4217 310.1774 48.5878 309.6672 48.5878 309.1671 48.5878 308.7573 48.4237 308.4333 48.0957 308.1093 47.7677 307.9474 47.3576 307.9474 46.8658ZM313.5532 48.6278C313.5532 49.6417 313.6572 50.4618 313.8653 51.0817 314.0751 51.7037 314.3852 52.1816 314.7973 52.5158 315.2072 52.8497 315.7251 53.0155 316.3493 53.0155 316.8091 53.0155 317.2133 52.9237 317.5631 52.7377 317.9112 52.5518 318.1992 52.2836 318.4231 51.9335 318.6471 51.5857 318.8231 51.1597 318.9512 50.6577 319.081 50.1557 319.1451 49.4776 319.1451 48.6278 319.1451 47.6198 319.0411 46.8037 318.8353 46.1837 318.6292 45.5618 318.3191 45.0836 317.9072 44.7477 317.497 44.4118 316.9772 44.2437 316.3493 44.2437 315.5233 44.2437 314.8733 44.5377 314.4013 45.1278 313.8352 45.8478 313.5532 47.0137 313.5532 48.6278ZM314.6332 48.6238C314.6332 47.2096 314.7973 46.2696 315.1273 45.8056 315.4572 45.3396 315.8651 45.1077 316.3493 45.1077 316.8332 45.1077 317.2411 45.3416 317.571 45.8076 317.9013 46.2756 318.0651 47.2136 318.0651 48.6238 318.0651 50.0377 317.9013 50.9777 317.571 51.4417 317.2431 51.9077 316.8312 52.1396 316.3371 52.1396 315.8532 52.1396 315.4652 51.9335 315.1752 51.5237 314.8132 51.0018 314.6332 50.0338 314.6332 48.6238ZM332.8554 44.3877V48.0277L329.5434 52.9795H330.9114L332.6094 50.3796C332.9254 49.8977 333.2194 49.4158 333.4873 48.9336 333.7495 49.3838 334.0672 49.8878 334.4374 50.4476L336.1014 52.9795H337.4274L333.9952 48.0277V44.3877ZM337.9314 49.4158V50.6157H339.1313V49.4158ZM337.9314 44.3877V45.5876H339.1313V44.3877ZM340.6895 48.6278C340.6895 49.6417 340.7936 50.4618 341.0016 51.0817 341.2114 51.7037 341.5215 52.1816 341.9337 52.5158 342.3436 52.8497 342.8614 53.0155 343.4856 53.0155 343.9454 53.0155 344.3496 52.9237 344.6994 52.7377 345.0475 52.5518 345.3355 52.2836 345.5595 51.9335 345.7834 51.5857 345.9594 51.1597 346.0876 50.6577 346.2174 50.1557 346.2814 49.4776 346.2814 48.6278 346.2814 47.6198 346.1774 46.8037 345.9716 46.1837 345.7655 45.5618 345.4554 45.0836 345.0436 44.7477 344.6334 44.4118 344.1135 44.2437 343.4856 44.2437 342.6596 44.2437 342.0096 44.5377 341.5377 45.1278 340.9716 45.8478 340.6895 47.0137 340.6895 48.6278ZM341.7695 48.6238C341.7695 47.2096 341.9337 46.2696 342.2636 45.8056 342.5936 45.3396 343.0015 45.1077 343.4856 45.1077 343.9695 45.1077 344.3774 45.3416 344.7074 45.8076 345.0376 46.2756 345.2014 47.2136 345.2014 48.6238 345.2014 50.0377 345.0376 50.9777 344.7074 51.4417 344.3794 51.9077 343.9675 52.1396 343.4734 52.1396 342.9896 52.1396 342.6015 51.9335 342.3115 51.5237 341.9495 51.0018 341.7695 50.0338 341.7695 48.6238ZM357.7377 44.3877V52.9795H358.8778V48.7196L363.1456 52.9795H364.6857L361.0817 49.4957 364.8416 44.3877H363.3418L360.2837 48.7236 358.8778 47.3638V44.3877ZM365.9457 49.4158V50.6157H367.1456V49.4158ZM365.9457 44.3877V45.5876H367.1456V44.3877ZM368.7038 48.6278C368.7038 49.6417 368.8078 50.4618 369.0159 51.0817 369.2256 51.7037 369.5357 52.1816 369.9479 52.5158 370.3578 52.8497 370.8757 53.0155 371.4999 53.0155 371.9597 53.0155 372.3639 52.9237 372.7137 52.7377 373.0618 52.5518 373.3498 52.2836 373.5737 51.9335 373.7976 51.5857 373.9737 51.1597 374.1018 50.6577 374.2316 50.1557 374.2957 49.4776 374.2957 48.6278 374.2957 47.6198 374.1917 46.8037 373.9859 46.1837 373.7798 45.5618 373.4697 45.0836 373.0578 44.7477 372.6476 44.4118 372.1277 44.2437 371.4999 44.2437 370.6739 44.2437 370.0239 44.5377 369.5519 45.1278 368.9858 45.8478 368.7038 47.0137 368.7038 48.6278ZM369.7838 48.6238C369.7838 47.2096 369.9479 46.2696 370.2779 45.8056 370.6078 45.3396 371.0157 45.1077 371.4999 45.1077 371.9837 45.1077 372.3917 45.3416 372.7216 45.8076 373.0518 46.2756 373.2157 47.2136 373.2157 48.6238 373.2157 50.0377 373.0518 50.9777 372.7216 51.4417 372.3936 51.9077 371.9818 52.1396 371.4877 52.1396 371.0038 52.1396 370.6157 51.9335 370.3258 51.5237 369.9638 51.0018 369.7838 50.0338 369.7838 48.6238" fill="#1a1a18"/>
<path transform="matrix(1,0,0,-1,0,595.2756)" d="M534.7006 60.9616 536.3804 60.4457C536.1225 59.4995 535.6925 58.7976 535.0927 58.3376 534.4926 57.8795 533.7326 57.6496 532.8105 57.6496 531.6687 57.6496 530.7307 58.0397 529.9946 58.8195 529.2607 59.5996 528.8927 60.6657 528.8927 62.0195 528.8927 63.4496 529.2626 64.5616 530.0005 65.3536 530.7386 66.1456 531.7106 66.5416 532.9145 66.5416 533.9665 66.5416 534.8205 66.2295 535.4765 65.6076 535.8685 65.2397 536.1605 64.7116 536.3566 64.0216L534.6405 63.6137C534.5385 64.0576 534.3265 64.4097 534.0047 64.6676 533.6807 64.9256 533.2887 65.0534 532.8286 65.0534 532.1906 65.0534 531.6727 64.8255 531.2767 64.3674 530.8787 63.9116 530.6805 63.1715 530.6805 62.1476 530.6805 61.0637 530.8767 60.2895 531.2667 59.8294 531.6585 59.3677 532.1667 59.1375 532.7926 59.1375 533.2547 59.1375 533.6527 59.2835 533.9846 59.5777 534.3165 59.8717 534.5566 60.3315 534.7006 60.9616ZM537.8465 57.7936V66.3854H540.4524L541.9925 60.5256 543.5144 66.3854H546.1262V57.7936H544.5184L544.5125 64.5576 542.8185 57.7936H541.1463L539.4603 64.5576 539.4543 57.7936ZM550.1222 57.7936V61.4095L546.9724 66.3854H549.0062L551.0381 62.9836 553.0161 66.3854H555.0123L551.8621 61.3976V57.7936ZM555.8941 57.7936V66.3854H557.634V62.5796L561.1402 66.3854H563.472L560.23 63.0397 563.6401 57.7936H561.3962L559.0321 61.8276 557.634 60.3916V57.7936ZM535.3724 47.4018 536.5125 47.1138C536.2747 46.1798 535.8467 45.4697 535.2284 44.9796 534.6105 44.4898 533.8545 44.2437 532.9607 44.2437 532.0366 44.2437 531.2846 44.4317 530.7046 44.8098 530.1247 45.1857 529.6847 45.7316 529.3826 46.4457 529.0807 47.1617 528.9287 47.9276 528.9287 48.7477 528.9287 49.6417 529.0985 50.4215 529.4407 51.0877 529.7825 51.7535 530.2687 52.2595 530.8985 52.6056 531.5287 52.9517 532.2226 53.1235 532.9786 53.1235 533.8386 53.1235 534.5606 52.9055 535.1445 52.4676 535.7305 52.0296 536.1386 51.4157 536.3685 50.6237L535.2525 50.3597C535.0547 50.9837 534.7647 51.4397 534.3866 51.7238 534.0087 52.0098 533.5325 52.1515 532.9585 52.1515 532.3005 52.1515 531.7486 51.9936 531.3067 51.6776 530.8645 51.3618 530.5527 50.9357 530.3747 50.4037 530.1947 49.8696 530.1045 49.3197 530.1045 48.7536 530.1045 48.0237 530.2106 47.3856 530.4226 46.8417 530.6346 46.2957 530.9646 45.8898 531.4127 45.6197 531.8606 45.3498 532.3445 45.2157 532.8666 45.2157 533.5027 45.2157 534.0385 45.3997 534.4787 45.7656 534.9186 46.1336 535.2165 46.6778 535.3724 47.4018ZM538.0744 49.4158V50.6157H539.2743V49.4158ZM538.0744 44.3877V45.5876H539.2743V44.3877ZM540.8325 48.6278C540.8325 49.6417 540.9366 50.4618 541.1446 51.0817 541.3544 51.7037 541.6645 52.1816 542.0767 52.5158 542.4866 52.8497 543.0044 53.0155 543.6286 53.0155 544.0884 53.0155 544.4926 52.9237 544.8424 52.7377 545.1905 52.5518 545.4785 52.2836 545.7025 51.9335 545.9264 51.5857 546.1024 51.1597 546.2306 50.6577 546.3604 50.1557 546.4244 49.4776 546.4244 48.6278 546.4244 47.6198 546.3204 46.8037 546.1146 46.1837 545.9085 45.5618 545.5984 45.0836 545.1866 44.7477 544.7764 44.4118 544.2565 44.2437 543.6286 44.2437 542.8026 44.2437 542.1526 44.5377 541.6807 45.1278 541.1146 45.8478 540.8325 47.0137 540.8325 48.6278ZM541.9125 48.6238C541.9125 47.2096 542.0767 46.2696 542.4066 45.8056 542.7366 45.3396 543.1445 45.1077 543.6286 45.1077 544.1125 45.1077 544.5204 45.3416 544.8504 45.8076 545.1806 46.2756 545.3444 47.2136 545.3444 48.6238 545.3444 50.0377 545.1806 50.9777 544.8504 51.4417 544.5224 51.9077 544.1105 52.1396 543.6164 52.1396 543.1326 52.1396 542.7445 51.9335 542.4545 51.5237 542.0925 51.0018 541.9125 50.0338 541.9125 48.6238ZM557.9048 44.3877V52.9795H559.6087L561.6408 46.8978C561.8288 46.3317 561.9648 45.9077 562.0507 45.6256 562.1488 45.9377 562.3027 46.3978 562.5108 47.0038L564.5786 52.9795H566.1006V44.3877H565.0087V51.5755L562.5009 44.3877H561.4767L558.9967 51.7076V44.3877ZM568.0806 49.4158V50.6157H569.2805V49.4158ZM568.0806 44.3877V45.5876H569.2805V44.3877ZM574.7987 44.3877H573.7428V51.1118C573.4888 50.8677 573.1546 50.6256 572.7427 50.3836 572.3306 50.1418 571.9586 49.9598 571.6307 49.8396V50.8598C572.2206 51.1356 572.7368 51.4718 573.1787 51.8678 573.6206 52.2618 573.9347 52.6436 574.1186 53.0155H574.7987ZM577.5126 48.6278C577.5126 49.6417 577.6166 50.4618 577.8247 51.0817 578.0344 51.7037 578.3445 52.1816 578.7567 52.5158 579.1666 52.8497 579.6845 53.0155 580.3087 53.0155 580.7684 53.0155 581.1727 52.9237 581.5225 52.7377 581.8706 52.5518 582.1586 52.2836 582.3825 51.9335 582.6064 51.5857 582.7825 51.1597 582.9106 50.6577 583.0404 50.1557 583.1045 49.4776 583.1045 48.6278 583.1045 47.6198 583.0004 46.8037 582.7946 46.1837 582.5886 45.5618 582.2785 45.0836 581.8666 44.7477 581.4564 44.4118 580.9365 44.2437 580.3087 44.2437 579.4826 44.2437 578.8327 44.5377 578.3607 45.1278 577.7946 45.8478 577.5126 47.0137 577.5126 48.6278ZM578.5926 48.6238C578.5926 47.2096 578.7567 46.2696 579.0866 45.8056 579.4166 45.3396 579.8245 45.1077 580.3087 45.1077 580.7925 45.1077 581.2004 45.3416 581.5304 45.8076 581.8606 46.2756 582.0245 47.2136 582.0245 48.6238 582.0245 50.0377 581.8606 50.9777 581.5304 51.4417 581.2024 51.9077 580.7906 52.1396 580.2965 52.1396 579.8126 52.1396 579.4245 51.9335 579.1346 51.5237 578.7726 51.0018 578.5926 50.0338 578.5926 48.6238ZM584.1865 48.6278C584.1865 49.6417 584.2905 50.4618 584.4986 51.0817 584.7083 51.7037 585.0184 52.1816 585.4306 52.5158 585.8405 52.8497 586.3584 53.0155 586.9826 53.0155 587.4423 53.0155 587.8466 52.9237 588.1963 52.7377 588.5444 52.5518 588.8324 52.2836 589.0564 51.9335 589.2803 51.5857 589.4563 51.1597 589.5845 50.6577 589.7143 50.1557 589.7784 49.4776 589.7784 48.6278 589.7784 47.6198 589.6743 46.8037 589.4685 46.1837 589.2625 45.5618 588.9523 45.0836 588.5405 44.7477 588.1303 44.4118 587.6104 44.2437 586.9826 44.2437 586.1565 44.2437 585.5066 44.5377 585.0346 45.1278 584.4685 45.8478 584.1865 47.0137 584.1865 48.6278ZM585.2665 48.6238C585.2665 47.2096 585.4306 46.2696 585.7605 45.8056 586.0905 45.3396 586.4984 45.1077 586.9826 45.1077 587.4664 45.1077 587.8743 45.3416 588.2043 45.8076 588.5345 46.2756 588.6984 47.2136 588.6984 48.6238 588.6984 50.0377 588.5345 50.9777 588.2043 51.4417 587.8763 51.9077 587.4644 52.1396 586.9704 52.1396 586.4865 52.1396 586.0984 51.9335 585.8084 51.5237 585.4465 51.0018 585.2665 50.0338 585.2665 48.6238ZM603.4887 44.3877V48.0277L600.1767 52.9795H601.5447L603.2426 50.3796C603.5587 49.8977 603.8527 49.4158 604.1205 48.9336 604.3827 49.3838 604.7005 49.8878 605.0707 50.4476L606.7346 52.9795H608.0607L604.6285 48.0277V44.3877ZM608.5647 49.4158V50.6157H609.7646V49.4158ZM608.5647 44.3877V45.5876H609.7646V44.3877ZM615.2828 44.3877H614.2269V51.1118C613.9729 50.8677 613.6387 50.6256 613.2268 50.3836 612.8147 50.1418 612.4428 49.9598 612.1148 49.8396V50.8598C612.7047 51.1356 613.2209 51.4718 613.6628 51.8678 614.1047 52.2618 614.4188 52.6436 614.6028 53.0155H615.2828ZM617.9967 48.6278C617.9967 49.6417 618.1007 50.4618 618.3088 51.0817 618.5186 51.7037 618.8287 52.1816 619.2408 52.5158 619.6507 52.8497 620.1686 53.0155 620.7928 53.0155 621.2526 53.0155 621.6568 52.9237 622.0066 52.7377 622.3547 52.5518 622.6427 52.2836 622.8666 51.9335 623.0906 51.5857 623.2666 51.1597 623.3947 50.6577 623.5245 50.1557 623.5886 49.4776 623.5886 48.6278 623.5886 47.6198 623.4846 46.8037 623.2788 46.1837 623.0727 45.5618 622.7626 45.0836 622.3507 44.7477 621.9405 44.4118 621.4207 44.2437 620.7928 44.2437 619.9668 44.2437 619.3168 44.5377 618.8448 45.1278 618.2787 45.8478 617.9967 47.0137 617.9967 48.6278ZM619.0767 48.6238C619.0767 47.2096 619.2408 46.2696 619.5708 45.8056 619.9007 45.3396 620.3086 45.1077 620.7928 45.1077 621.2767 45.1077 621.6846 45.3416 622.0145 45.8076 622.3448 46.2756 622.5086 47.2136 622.5086 48.6238 622.5086 50.0377 622.3448 50.9777 622.0145 51.4417 621.6866 51.9077 621.2747 52.1396 620.7806 52.1396 620.2967 52.1396 619.9087 51.9335 619.6187 51.5237 619.2567 51.0018 619.0767 50.0338 619.0767 48.6238ZM624.6706 48.6278C624.6706 49.6417 624.7746 50.4618 624.9827 51.0817 625.1924 51.7037 625.5026 52.1816 625.9147 52.5158 626.3246 52.8497 626.8425 53.0155 627.4667 53.0155 627.9265 53.0155 628.3307 52.9237 628.6805 52.7377 629.0286 52.5518 629.3166 52.2836 629.5405 51.9335 629.7644 51.5857 629.9405 51.1597 630.0686 50.6577 630.1984 50.1557 630.2625 49.4776 630.2625 48.6278 630.2625 47.6198 630.1585 46.8037 629.9527 46.1837 629.7466 45.5618 629.4365 45.0836 629.0246 44.7477 628.6144 44.4118 628.0946 44.2437 627.4667 44.2437 626.6407 44.2437 625.9907 44.5377 625.5187 45.1278 624.9526 45.8478 624.6706 47.0137 624.6706 48.6278ZM625.7506 48.6238C625.7506 47.2096 625.9147 46.2696 626.2447 45.8056 626.5746 45.3396 626.9825 45.1077 627.4667 45.1077 627.9506 45.1077 628.3585 45.3416 628.6884 45.8076 629.0186 46.2756 629.1825 47.2136 629.1825 48.6238 629.1825 50.0377 629.0186 50.9777 628.6884 51.4417 628.3604 51.9077 627.9486 52.1396 627.4545 52.1396 626.9706 52.1396 626.5826 51.9335 626.2926 51.5237 625.9306 51.0018 625.7506 50.0338 625.7506 48.6238ZM641.7187 44.3877V52.9795H642.8588V48.7196L647.1266 52.9795H648.6667L645.0627 49.4957 648.8226 44.3877H647.3228L644.2648 48.7236 642.8588 47.3638V44.3877ZM649.9267 49.4158V50.6157H651.1266V49.4158ZM649.9267 44.3877V45.5876H651.1266V44.3877ZM652.6848 48.6278C652.6848 49.6417 652.7889 50.4618 652.9969 51.0817 653.2067 51.7037 653.5168 52.1816 653.9289 52.5158 654.3388 52.8497 654.8567 53.0155 655.4809 53.0155 655.9407 53.0155 656.3449 52.9237 656.6947 52.7377 657.0428 52.5518 657.3308 52.2836 657.5547 51.9335 657.7787 51.5857 657.9547 51.1597 658.0828 50.6577 658.2127 50.1557 658.2767 49.4776 658.2767 48.6278 658.2767 47.6198 658.1727 46.8037 657.9669 46.1837 657.7608 45.5618 657.4507 45.0836 657.0388 44.7477 656.6287 44.4118 656.1088 44.2437 655.4809 44.2437 654.6549 44.2437 654.0049 44.5377 653.5329 45.1278 652.9669 45.8478 652.6848 47.0137 652.6848 48.6278ZM653.7648 48.6238C653.7648 47.2096 653.9289 46.2696 654.2589 45.8056 654.5889 45.3396 654.9968 45.1077 655.4809 45.1077 655.9648 45.1077 656.3727 45.3416 656.7026 45.8076 657.0329 46.2756 657.1967 47.2136 657.1967 48.6238 657.1967 50.0377 657.0329 50.9777 656.7026 51.4417 656.3747 51.9077 655.9628 52.1396 655.4687 52.1396 654.9849 52.1396 654.5968 51.9335 654.3068 51.5237 653.9448 51.0018 653.7648 50.0338 653.7648 48.6238" fill="#1a1a18"/>
<path transform="matrix(1,0,0,-1,0,595.2756)" d="M0 113.811H841.8898V112.9606H0Z" fill="#1a1a18" fill-rule="evenodd"/>
<path transform="matrix(1,0,0,-1,0,595.2756)" stroke-width="2.126" stroke-linecap="butt" stroke-miterlimit="22.925585" stroke-linejoin="miter" fill="none" stroke="#124094" d="M208.3465 458.4427H633.5433V250.2184H208.3465Z"/>
<path transform="matrix(1,0,0,-1,0,595.2756)" d="M348.3088 334.7447H372.2207L392.921 400.2282 413.9773 334.7447H437.8893L404.3409 430.0951 381.1433 428.2722Z" fill="#124094"/>
<path transform="matrix(1,0,0,-1,0,595.2756)" d="M471.4393 428.2716H447.5276V334.7447H471.4393Z" fill="#124094"/>
<path transform="matrix(1,0,0,-1,0,595.2756)" d="M529.81 430.096C519.8766 428.9975 511.3111 427.2914 504.1729 424.9777 496.9755 422.6641 491.4437 419.9063 487.5174 416.7045 483.6512 413.5028 481.6885 410.0207 481.6284 406.258 481.6284 404.5754 481.9859 402.8927 482.6991 401.2569 483.4131 399.6207 484.543 397.8916 486.2086 396.0686 487.8743 394.2689 490.1349 392.2594 492.9301 390.039 495.7262 387.8189 499.2361 385.2714 503.3996 382.4203 507.2066 379.8028 510.4185 377.4657 513.0357 375.3624 515.6529 373.2591 517.735 371.3193 519.3408 369.5199 520.8874 367.744 522.0179 365.9907 522.7311 364.3316 523.4451 362.649 523.7427 360.9196 523.7427 359.1434 523.7427 356.3623 522.7911 353.8616 520.7681 351.6883 518.7458 349.4917 515.5937 347.5284 511.251 345.7757 506.9682 344.0228 501.3774 342.4105 494.4767 340.9146V331.5195C499.2953 332.174 503.5779 332.8285 507.2066 333.506 510.8343 334.1605 514.1656 334.9086 517.0802 335.7264 519.9948 336.5212 522.8501 337.4793 525.5271 338.5307 530.1666 340.3304 534.1518 342.4105 537.4233 344.7473 540.7546 347.1077 543.2533 349.655 545.0372 352.366 546.762 355.1003 547.6541 357.9282 547.6541 360.826 547.6541 362.8125 547.2975 364.7055 546.5837 366.5285 545.8706 368.3514 544.7398 370.2444 543.0742 372.1606 541.4085 374.1004 539.1488 376.2272 536.3527 378.5173 533.5571 380.8077 530.0478 383.4252 525.8837 386.3463 520.7091 390.0155 516.6045 393.1007 513.6307 395.6479 510.656 398.1954 508.5746 400.4155 507.325 402.2853 506.0758 404.178 505.4808 405.9777 505.5409 407.6603 505.4808 410.4414 507.3849 412.8718 511.251 414.9984 515.1172 417.1017 521.3035 419.0417 529.81 420.8411Z" fill="#e3000f"/>
<path transform="matrix(1,0,0,-1,0,595.2756)" d="M587.3525 430.096C577.4187 428.9975 568.8533 427.2914 561.7151 424.9777 554.5179 422.6641 548.9861 419.9063 545.0598 416.7045 541.1937 413.5028 539.2307 410.0207 539.1709 406.258 539.1709 404.5754 539.528 402.8927 540.2415 401.2569 540.9556 399.6207 542.0854 397.8916 543.7511 396.0686 545.4164 394.2689 547.6774 392.2594 550.4726 390.039 553.2687 387.8189 556.7783 385.2714 560.9418 382.4203 564.7487 379.8028 567.9609 377.4657 570.5782 375.3624 573.1954 373.2591 575.2774 371.3193 576.8833 369.5199 578.4296 367.744 579.5603 365.9907 580.2735 364.3316 580.9876 362.649 581.2852 360.9196 581.2852 359.1434 581.2852 356.3623 580.3336 353.8616 578.3105 351.6883 576.2883 349.4917 573.1359 347.5284 568.7935 345.7757 564.5106 344.0228 558.9198 342.4105 552.0192 340.9146V331.5195C556.8375 332.174 561.1201 332.8285 564.7487 333.506 568.3768 334.1605 571.7081 334.9086 574.6226 335.7264 577.5372 336.5212 580.3926 337.4793 583.0696 338.5307 587.7091 340.3304 591.6943 342.4105 594.9658 344.7473 598.297 347.1077 600.7958 349.655 602.5796 352.366 604.3042 355.1003 605.1969 357.9282 605.1969 360.826 605.1969 362.8125 604.84 364.7055 604.1259 366.5285 603.4127 368.3514 602.2823 370.2444 600.6163 372.1606 598.951 374.1004 596.6912 376.2272 593.8951 378.5173 591.0993 380.8077 587.59 383.4252 583.4262 386.3463 578.2513 390.0155 574.1467 393.1007 571.1732 395.6479 568.1985 398.1954 566.117 400.4155 564.8675 402.2853 563.6183 404.178 563.0233 405.9777 563.0834 407.6603 563.0233 410.4414 564.927 412.8718 568.7935 414.9984 572.6597 417.1017 578.846 419.0417 587.3525 420.8411Z" fill="#124094"/>
<path transform="matrix(1,0,0,-1,0,595.2756)" d="M325.48 361.4374 324.9921 358.3681 322.5779 356.4111 312.5616 362.1937 313.4565 352.8414 311.3464 350.8852 308.3896 353.3426 307.7453 364.9745 302.315 368.1094 302.593 362.9089 299.8162 361.6359 296.9915 362.859 297.9839 369.0839 294.1659 366.88 290.3485 364.6757 296.2358 362.4225 295.8826 359.3648 293.3912 357.5965 289.0267 360.4181V354.1674L298.7422 347.7937 299.4279 344.0041 296.6786 343.1548 289.0267 348.6061V332.6318L286.1246 331.5195 283.2225 332.6318V348.6061L275.5704 343.1548 272.8213 344.0041 273.4707 347.7937 283.2225 354.1674V360.4377L278.8577 357.5965 276.3666 359.3648 276.0134 362.4225 281.901 364.6757 278.083 366.88 274.2653 369.0839 275.2577 362.859 272.433 361.6359 269.6559 362.9092 269.9175 368.0997 264.5042 364.9742 263.8414 353.3737 260.9028 350.8852 258.7927 352.8414 259.6876 362.1937 249.6716 356.4108 247.2571 358.3681 246.7692 361.4374 256.7854 367.2201 248.2384 371.1214 247.5995 373.9266 251.206 375.2589 261.6018 370.0006 267.0321 373.136 262.389 375.4953 262.675 378.5366 265.1465 380.3715 270.0417 376.3996V380.8077 385.2159L265.1465 381.244 262.675 383.0788 262.3893 386.1204 267.0151 388.489 261.6018 391.6145 251.2239 386.388 247.5995 387.6888 248.2384 390.494 256.7854 394.3953 246.7692 400.178 247.2571 403.2473 249.6713 405.2044 259.6873 399.4217 258.7927 408.774 260.9028 410.7302 263.8596 408.2729 264.5039 396.6409 269.9342 393.5061 269.6562 398.7065 272.433 399.9796 275.2577 398.7564 274.2653 392.5315 278.083 394.7355 281.901 396.9397 276.0134 399.1929 276.3666 402.2507 278.858 404.0189 283.2222 401.1973V407.448L273.507 413.8217 272.8213 417.6113 275.5704 418.4606 283.2222 413.0093V428.9837L286.1246 430.0957 289.0267 428.9837V413.0093L296.6786 418.4606 299.4279 417.6113 298.7782 413.8217 289.0267 407.448V401.1778L293.3918 404.0189 295.8826 402.2507 296.2358 399.1929 290.3482 396.9397 294.1659 394.7355 297.9839 392.5315 296.9915 398.7564 299.8162 399.9796 302.5933 398.7062 302.3317 393.5157 307.745 396.6412 308.4075 408.2417 311.3464 410.7302 313.4565 408.774 312.5616 399.4217 322.5776 405.2047 324.9921 403.2473 325.48 400.178 315.4637 394.3953 324.0105 390.494 324.65 387.6888 321.0432 386.3565 310.6474 391.6148 305.2171 388.4794 309.8602 386.1201 309.5742 383.0788 307.1027 381.244 302.2075 385.2159V380.8077 376.3996L307.1027 380.3715 309.5742 378.5366 309.8599 375.495 305.2341 373.1264 310.6474 370.0009 321.0253 375.2274 324.65 373.9266 324.0105 371.1214 315.464 367.2201ZM286.1246 367.4945 280.3598 370.823 274.5947 374.1511V380.8077 387.4643L280.3598 390.7925 286.1246 394.1209 291.8894 390.7925 297.6545 387.4643V380.8077 374.1511L291.8894 370.823Z" fill="#124094" fill-rule="evenodd"/>
<path transform="matrix(1,0,0,-1,0,595.2756)" d="M282.3386 430.096V414.724L275.7274 419.4337 271.8119 418.2245 272.7051 413.2908 282.3386 406.9709V402.821L278.8347 405.0865 275.5338 402.7433 275.1877 399.7502 272.4228 400.947 268.7414 399.2596 268.9648 395.0864 265.3597 397.167 264.7208 408.7063 260.8707 411.9058 257.8714 409.125 258.6441 401.0448 249.5869 406.2736 246.4376 403.7204 245.8009 399.7162 254.8585 394.4871 247.4739 391.1165 246.5634 387.121 251.2826 385.4279 261.5729 390.6105 265.1669 388.5355 261.4533 386.634 261.8317 382.6037 264.2516 380.8077 261.8317 379.0117 261.453 374.9797 265.1786 373.0864 261.5743 371.0055 251.261 376.2215 246.5654 374.4867 247.4739 370.499 254.8585 367.1283 245.8012 361.8989 246.4376 357.895 249.5869 355.3418 258.6441 360.5706 257.8714 352.4905 260.8767 349.7046 264.7023 352.9446 265.3594 364.4473 268.9529 366.5222 268.7428 362.3556 272.4228 360.6684 275.1877 361.8655 275.5338 358.8721 278.8362 356.5281 282.3386 358.808V354.6459L272.6646 348.3224 271.8187 343.3887 275.7274 342.1817 282.3386 346.8915V331.5195C256.8076 333.4535 236.6929 354.7817 236.6929 380.8077 236.6929 406.8337 256.8076 428.1619 282.3386 430.096ZM276.0684 398.2258 275.4303 394.2244 279.8524 396.7775ZM266.0119 380.8077 269.1578 378.2548V383.3603ZM276.0684 363.3897 279.8524 364.8379 275.4303 367.3911Z" fill="#124094" fill-rule="evenodd"/>
<path transform="matrix(1,0,0,-1,0,595.2756)" stroke-width=".7087" stroke-linecap="butt" stroke-miterlimit="22.925585" stroke-linejoin="miter" fill="none" stroke="#ffffff" d="M282.3386 430.096V414.724L275.7274 419.4337 271.8119 418.2245 272.7051 413.2908 282.3386 406.9709V402.821L278.8347 405.0865 275.5338 402.7433 275.1877 399.7502 272.4228 400.947 268.7414 399.2596 268.9648 395.0864 265.3597 397.167 264.7208 408.7063 260.8707 411.9058 257.8714 409.125 258.6441 401.0448 249.5869 406.2736 246.4376 403.7204 245.8009 399.7162 254.8585 394.4871 247.4739 391.1165 246.5634 387.121 251.2826 385.4279 261.5729 390.6105 265.1669 388.5355 261.4533 386.634 261.8317 382.6037 264.2516 380.8077 261.8317 379.0117 261.453 374.9797 265.1786 373.0864 261.5743 371.0055 251.261 376.2215 246.5654 374.4867 247.4739 370.499 254.8585 367.1283 245.8012 361.8989 246.4376 357.895 249.5869 355.3418 258.6441 360.5706 257.8714 352.4905 260.8767 349.7046 264.7023 352.9446 265.3594 364.4473 268.9529 366.5222 268.7428 362.3556 272.4228 360.6684 275.1877 361.8655 275.5338 358.8721 278.8362 356.5281 282.3386 358.808V354.6459L272.6646 348.3224 271.8187 343.3887 275.7274 342.1817 282.3386 346.8915V331.5195C256.8076 333.4535 236.6929 354.7817 236.6929 380.8077 236.6929 406.8337 256.8076 428.1619 282.3386 430.096ZM276.0684 398.2258 275.4303 394.2244 279.8524 396.7775ZM266.0119 380.8077 269.1578 378.2548V383.3603ZM276.0684 363.3897 279.8524 364.8379 275.4303 367.3911Z"/>
<path transform="matrix(1,0,0,-1,0,595.2756)" d="M296.1808 363.3897 296.8191 367.3911 292.3971 364.8379ZM289.9106 430.096C315.4416 428.1619 335.5563 406.8337 335.5563 380.8077 335.5563 354.7817 315.4416 333.4535 289.9106 331.5195V346.8915L296.5221 342.1817 300.4373 343.391 299.5441 348.3247 289.9106 354.6445V358.7944L293.4142 356.529 296.7154 358.8721 297.0612 361.8655 299.8267 360.6684 303.5078 362.3562 303.2847 366.529 306.8895 364.4484 307.5287 352.9091 311.3785 349.7097 314.3781 352.4905 313.6051 360.5706 322.6623 355.3418 325.8119 357.895 326.448 361.8992 317.3907 367.1283 324.7753 370.499 325.6855 374.4941 320.9669 376.1875 310.6763 371.0052 307.0823 373.0799 310.7959 374.9814 310.4175 379.0117 307.9976 380.8077 310.4175 382.6037 310.7962 386.6357 307.0704 388.529 310.6749 390.6099 320.9882 385.3939 325.6841 387.1284 324.7753 391.1165 317.3905 394.4874 326.448 399.7165 325.8119 403.7204 322.6623 406.2736 313.6048 401.0448 314.3781 409.125 311.3725 411.9106 307.5469 408.6709 306.8901 397.1682 303.296 395.0932 303.5064 399.2596 299.8267 400.947 297.0612 399.7502 296.7154 402.7433 293.413 405.0873 289.9106 402.8074V406.9695L299.5843 413.2928 300.4305 418.2267 296.5221 419.4337 289.9106 414.724ZM306.2378 380.8077 303.0911 383.3603V378.2548ZM296.1808 398.2258 292.3971 396.7775 296.8191 394.2244Z" fill="#e3000f" fill-rule="evenodd"/>
<path transform="matrix(1,0,0,-1,0,595.2756)" stroke-width=".7087" stroke-linecap="butt" stroke-miterlimit="22.925585" stroke-linejoin="miter" fill="none" stroke="#ffffff" d="M296.1808 363.3897 296.8191 367.3911 292.3971 364.8379ZM289.9106 430.096C315.4416 428.1619 335.5563 406.8337 335.5563 380.8077 335.5563 354.7817 315.4416 333.4535 289.9106 331.5195V346.8915L296.5221 342.1817 300.4373 343.391 299.5441 348.3247 289.9106 354.6445V358.7944L293.4142 356.529 296.7154 358.8721 297.0612 361.8655 299.8267 360.6684 303.5078 362.3562 303.2847 366.529 306.8895 364.4484 307.5287 352.9091 311.3785 349.7097 314.3781 352.4905 313.6051 360.5706 322.6623 355.3418 325.8119 357.895 326.448 361.8992 317.3907 367.1283 324.7753 370.499 325.6855 374.4941 320.9669 376.1875 310.6763 371.0052 307.0823 373.0799 310.7959 374.9814 310.4175 379.0117 307.9976 380.8077 310.4175 382.6037 310.7962 386.6357 307.0704 388.529 310.6749 390.6099 320.9882 385.3939 325.6841 387.1284 324.7753 391.1165 317.3905 394.4874 326.448 399.7165 325.8119 403.7204 322.6623 406.2736 313.6048 401.0448 314.3781 409.125 311.3725 411.9106 307.5469 408.6709 306.8901 397.1682 303.296 395.0932 303.5064 399.2596 299.8267 400.947 297.0612 399.7502 296.7154 402.7433 293.413 405.0873 289.9106 402.8074V406.9695L299.5843 413.2928 300.4305 418.2267 296.5221 419.4337 289.9106 414.724ZM306.2378 380.8077 303.0911 383.3603V378.2548ZM296.1808 398.2258 292.3971 396.7775 296.8191 394.2244Z"/>
<path transform="matrix(1,0,0,-1,0,595.2756)" d="M244.6577 319.1187 236.6929 303.7561H238.485L240.3876 307.4528H251.3169L253.2195 303.7561H255.0781L247.1134 319.1187ZM245.8743 317.9897 250.4982 309.0467H241.2505Z" fill="#1a1a18"/>
<path transform="matrix(1,0,0,-1,0,595.2756)" d="M262.1577 319.1187C258.9939 319.1187 257.4454 317.8791 257.4454 315.0014 257.4454 312.2121 258.4409 311.061 263.463 310.9504L268.8392 310.8175C273.1535 310.729 273.9501 310.087 273.9501 308.139 273.9501 306.0584 272.8216 305.35 270.4102 305.35H263.1314C260.1003 305.35 259.2153 306.3903 259.1711 308.1169H257.578C257.578 305.1507 259.5251 303.7561 262.6002 303.7561H270.4986C274.0385 303.7561 275.5429 304.863 275.5429 308.0948 275.5429 311.216 274.0164 312.2785 268.3967 312.4114L263.6402 312.522C259.6799 312.6107 259.0605 313.0977 259.0605 314.9793 259.0605 316.6172 259.6136 317.5248 262.0913 317.5248H269.8569C272.8879 317.5248 273.7729 316.5066 273.8171 314.78H275.4323C275.4323 317.6799 273.6181 319.1187 270.2109 319.1187Z" fill="#1a1a18"/>
<path transform="matrix(1,0,0,-1,0,595.2756)" d="M295.1229 310.7954C295.1229 305.9033 294.4811 305.3721 288.9502 305.3721H286.5387C280.9857 305.3721 280.3439 305.9033 280.3439 310.7954V312.1237C280.3439 317.0599 280.9857 317.5914 286.5387 317.5914H288.9502C294.4811 317.5914 295.1229 317.0599 295.1229 312.1237ZM286.5387 303.7561H288.9723C295.3885 303.7561 296.7157 304.9736 296.7157 310.7954V312.1237C296.7157 317.9897 295.3885 319.2072 288.9723 319.2072H286.5387C280.0783 319.2072 278.7511 317.9897 278.7511 312.1237V310.7954C278.7511 304.9736 280.0783 303.7561 286.5387 303.7561" fill="#1a1a18"/>
<path transform="matrix(1,0,0,-1,0,595.2756)" d="M299.6365 310.7954C299.6365 305.0178 301.03 303.7561 306.3623 303.7561H312.1364C316.2076 303.7561 317.6456 305.2171 317.6456 308.0948H316.0525C316.0525 306.1468 315.0349 305.3279 312.0701 305.3279H306.1851C302.0479 305.3279 301.229 306.036 301.229 310.7954V312.2121C301.229 316.8607 302.2248 317.6799 306.5834 317.6799H312.0701C315.1012 317.6799 316.0304 316.6396 316.0304 314.9127H317.6232C317.6232 317.8791 315.7869 319.2735 312.0701 319.2735H306.8045C301.2956 319.2735 299.6365 317.8349 299.6365 312.19Z" fill="#1a1a18"/>
<path transform="matrix(1,0,0,-1,0,595.2756)" d="M322.0702 303.7561H323.6632V319.1187H322.0702Z" fill="#1a1a18"/>
<path transform="matrix(1,0,0,-1,0,595.2756)" d="M335.0795 319.1187 327.1147 303.7561H328.9068L330.8094 307.4528H341.7386L343.6415 303.7561H345.4999L337.5351 319.1187ZM336.2964 317.9897 340.9203 309.0467H331.6725Z" fill="#1a1a18"/>
<path transform="matrix(1,0,0,-1,0,595.2756)" d="M347.5797 310.7954C347.5797 305.0178 348.9732 303.7561 354.3055 303.7561H360.0799C364.1508 303.7561 365.5888 305.2171 365.5888 308.0948H363.9957C363.9957 306.1468 362.9781 305.3279 360.0133 305.3279H354.1283C349.9911 305.3279 349.1725 306.036 349.1725 310.7954V312.2121C349.1725 316.8607 350.168 317.6799 354.5269 317.6799H360.0133C363.0444 317.6799 363.9736 316.6396 363.9736 314.9127H365.5664C365.5664 317.8791 363.7304 319.2735 360.0133 319.2735H354.7477C349.2391 319.2735 347.5797 317.8349 347.5797 312.19Z" fill="#1a1a18"/>
<path transform="matrix(1,0,0,-1,0,595.2756)" d="M369.0842 319.1187V303.7561H382.735V305.35H370.6773V310.8841H382.3591V312.4777H370.6773V317.5248H382.735V319.1187Z" fill="#1a1a18"/>
<path transform="matrix(1,0,0,-1,0,595.2756)" d="M398.4656 303.7561H400.0586V319.1187H398.4656Z" fill="#1a1a18"/>
<path transform="matrix(1,0,0,-1,0,595.2756)" d="M404.6383 319.1187V303.7561H406.2314V317.9013H407.0942L419.2843 303.7561H421.5855V319.1187H419.9924V305.35L408.1561 319.1187Z" fill="#1a1a18"/>
<path transform="matrix(1,0,0,-1,0,595.2756)" d="M429.6827 319.1187C426.5189 319.1187 424.9704 317.8791 424.9704 315.0014 424.9704 312.2121 425.9662 311.061 430.9883 310.9504L436.3642 310.8175C440.6786 310.729 441.4754 310.087 441.4754 308.139 441.4754 306.0584 440.3469 305.35 437.9352 305.35H430.6564C427.6253 305.35 426.7403 306.3903 426.6961 308.1169H425.103C425.103 305.1507 427.0501 303.7561 430.1252 303.7561H438.0236C441.5635 303.7561 443.0679 304.863 443.0679 308.0948 443.0679 311.216 441.5414 312.2785 435.9217 312.4114L431.1652 312.522C427.2049 312.6107 426.5855 313.0977 426.5855 314.9793 426.5855 316.6172 427.1386 317.5248 429.6163 317.5248H437.3819C440.4132 317.5248 441.2982 316.5066 441.3424 314.78H442.9576C442.9576 317.6799 441.1431 319.1187 437.7362 319.1187Z" fill="#1a1a18"/>
<path transform="matrix(1,0,0,-1,0,595.2756)" d="M462.1836 319.1187H445.5904V317.5248H453.0903V303.7561H454.6834V317.5248H462.1836Z" fill="#1a1a18"/>
<path transform="matrix(1,0,0,-1,0,595.2756)" d="M466.7193 312.6107V317.4143H476.7854C479.0645 317.4143 479.9271 316.4403 479.9271 315.0014 479.9271 313.4738 479.1087 312.6107 476.6751 312.6107ZM481.5422 315.112C481.5422 317.8349 479.9937 319.1187 476.3653 319.1187H465.1041V303.7561H466.7193V310.8841H477.2721C479.9271 310.8841 480.5909 310.2199 480.5909 308.2499V303.7561H482.3167V308.272C482.3167 310.9283 481.0776 311.8802 480.0821 312.0795 480.8563 312.3672 481.5422 313.0089 481.5422 315.112" fill="#1a1a18"/>
<path transform="matrix(1,0,0,-1,0,595.2756)" d="M493.556 305.3721C488.003 305.3721 487.3612 305.9033 487.3612 310.7954V319.1187H485.7684V310.7954C485.7684 304.9736 487.0956 303.7561 493.556 303.7561H495.9454C502.3616 303.7561 503.6888 304.9736 503.6888 310.7954V319.1187H502.0957V310.7954C502.0957 305.9033 501.4545 305.3721 495.9232 305.3721Z" fill="#1a1a18"/>
<path transform="matrix(1,0,0,-1,0,595.2756)" d="M506.897 319.1187V303.7561H508.4898V311.3266H511.1226L520.7907 303.7561H523.3793L512.627 312.1016 523.4902 319.1187H520.9237L511.0784 312.7654H508.4898V319.1187Z" fill="#1a1a18"/>
<path transform="matrix(1,0,0,-1,0,595.2756)" d="M542.539 319.1187H525.9458V317.5248H533.446V303.7561H535.0391V317.5248H542.539Z" fill="#1a1a18"/>
<path transform="matrix(1,0,0,-1,0,595.2756)" d="M561.5884 310.7954C561.5884 305.9033 560.9466 305.3721 555.4154 305.3721H553.0039C547.4509 305.3721 546.8091 305.9033 546.8091 310.7954V312.1237C546.8091 317.0599 547.4509 317.5914 553.0039 317.5914H555.4154C560.9466 317.5914 561.5884 317.0599 561.5884 312.1237ZM553.0039 303.7561H555.4375C561.8537 303.7561 563.1809 304.9736 563.1809 310.7954V312.1237C563.1809 317.9897 561.8537 319.2072 555.4375 319.2072H553.0039C546.5438 319.2072 545.2163 317.9897 545.2163 312.1237V310.7954C545.2163 304.9736 546.5438 303.7561 553.0039 303.7561" fill="#1a1a18"/>
<path transform="matrix(1,0,0,-1,0,595.2756)" d="M568.2257 312.6107V317.4143H578.2918C580.5709 317.4143 581.4334 316.4403 581.4334 315.0014 581.4334 313.4738 580.6151 312.6107 578.1815 312.6107ZM583.0486 315.112C583.0486 317.8349 581.5001 319.1187 577.8717 319.1187H566.6105V303.7561H568.2257V310.8841H578.7785C581.4334 310.8841 582.0973 310.2199 582.0973 308.2499V303.7561H583.8231V308.272C583.8231 310.9283 582.584 311.8802 581.5885 312.0795 582.3626 312.3672 583.0486 313.0089 583.0486 315.112" fill="#1a1a18"/>
<path transform="matrix(1,0,0,-1,0,595.2756)" d="M595.0624 305.3721C589.5094 305.3721 588.8676 305.9033 588.8676 310.7954V319.1187H587.2748V310.7954C587.2748 304.9736 588.602 303.7561 595.0624 303.7561H597.4517C603.868 303.7561 605.1951 304.9736 605.1951 310.7954V319.1187H603.6021V310.7954C603.6021 305.9033 602.9609 305.3721 597.4296 305.3721ZM595.1509 323.1476C594.0669 323.1476 593.6907 322.5277 593.6907 321.8414V321.1109C593.6907 320.4247 594.1111 319.8492 595.1509 319.8492H596.3454C597.363 319.8492 597.7837 320.4247 597.7837 321.1109V321.8414C597.7837 322.5056 597.3854 323.1476 596.3454 323.1476ZM594.1774 321.1109V321.8414C594.1774 322.4171 594.5757 322.6382 595.1509 322.6382H596.3454C596.8987 322.6382 597.2749 322.4392 597.2749 321.8414V321.1109C597.2749 320.5576 596.8987 320.3141 596.3454 320.3141H595.1509C594.5757 320.3141 594.1774 320.5576 594.1774 321.1109" fill="#1a1a18"/>
<path transform="matrix(1,0,0,-1,0,595.2756)" d="M242.4229 293.9272C239.2591 293.9272 237.7106 292.6877 237.7106 289.8099 237.7106 287.0206 238.7061 285.8695 243.7285 285.7589L249.1044 285.626C253.4187 285.5375 254.2153 284.8955 254.2153 282.9475 254.2153 280.8669 253.0868 280.1585 250.6754 280.1585H243.3966C240.3655 280.1585 239.4805 281.1988 239.4363 282.9254H237.8432C237.8432 279.9592 239.7903 278.5646 242.8654 278.5646H250.7638C254.3037 278.5646 255.8081 279.6715 255.8081 282.9033 255.8081 286.0245 254.2816 287.087 248.6619 287.2199L243.9054 287.3305C239.9451 287.4192 239.3257 287.9062 239.3257 289.7878 239.3257 291.4257 239.8788 292.3333 242.3565 292.3333H250.122C253.1531 292.3333 254.0384 291.3151 254.0826 289.5885H255.6975C255.6975 292.4884 253.8833 293.9272 250.4761 293.9272Z" fill="#1a1a18"/>
<path transform="matrix(1,0,0,-1,0,595.2756)" d="M277.2196 289.9868C277.2196 292.4663 275.671 293.9272 272.0424 293.9272H261.4005V278.5646H263.1042V285.1611H272.0424C275.671 285.1611 277.2196 286.6221 277.2196 289.1015ZM263.1042 292.3333H271.9539C274.7418 292.3333 275.4938 291.4923 275.4938 289.9205V289.1679C275.4938 287.5963 274.7418 286.755 271.9539 286.755H263.1042Z" fill="#1a1a18"/>
<path transform="matrix(1,0,0,-1,0,595.2756)" d="M298.9851 285.6039C298.9851 280.7118 298.3433 280.1806 292.8124 280.1806H290.4007C284.8476 280.1806 284.2058 280.7118 284.2058 285.6039V286.9322C284.2058 291.8684 284.8476 292.3999 290.4007 292.3999H292.8124C298.3433 292.3999 298.9851 291.8684 298.9851 286.9322ZM290.4007 278.5646H292.8345C299.2504 278.5646 300.5779 279.7821 300.5779 285.6039V286.9322C300.5779 292.7982 299.2504 294.0157 292.8345 294.0157H290.4007C283.9405 294.0157 282.613 292.7982 282.613 286.9322V285.6039C282.613 279.7821 283.9405 278.5646 290.4007 278.5646" fill="#1a1a18"/>
<path transform="matrix(1,0,0,-1,0,595.2756)" d="M307.8964 287.4192V292.2228H317.9625C320.2415 292.2228 321.1041 291.2488 321.1041 289.8099 321.1041 288.2823 320.2858 287.4192 317.8519 287.4192ZM322.7193 289.9205C322.7193 292.6434 321.1707 293.9272 317.5424 293.9272H306.2812V278.5646H307.8964V285.6926H318.4492C321.1041 285.6926 321.768 285.0284 321.768 283.0584V278.5646H323.4934V283.0805C323.4934 285.7368 322.2547 286.6887 321.2592 286.888 322.0333 287.1757 322.7193 287.8174 322.7193 289.9205" fill="#1a1a18"/>
<path transform="matrix(1,0,0,-1,0,595.2756)" d="M344.9494 293.9272H328.3563V292.3333H335.8565V278.5646H337.4493V292.3333H344.9494Z" fill="#1a1a18"/>
<path transform="matrix(1,0,0,-1,0,595.2756)" d="M357.8652 280.1806C352.3122 280.1806 351.6704 280.7118 351.6704 285.6039V293.9272H350.0776V285.6039C350.0776 279.7821 351.4051 278.5646 357.8652 278.5646H360.2546C366.6708 278.5646 367.998 279.7821 367.998 285.6039V293.9272H366.4052V285.6039C366.4052 280.7118 365.7637 280.1806 360.2324 280.1806ZM357.9537 297.9561C356.8697 297.9561 356.4935 297.3362 356.4935 296.6499V295.9194C356.4935 295.2332 356.9139 294.6577 357.9537 294.6577H359.1485C360.1661 294.6577 360.5865 295.2332 360.5865 295.9194V296.6499C360.5865 297.3141 360.1885 297.9561 359.1485 297.9561ZM356.9803 295.9194V296.6499C356.9803 297.2256 357.3785 297.4467 357.9537 297.4467H359.1485C359.7018 297.4467 360.0777 297.2477 360.0777 296.6499V295.9194C360.0777 295.3661 359.7018 295.1226 359.1485 295.1226H357.9537C357.3785 295.1226 356.9803 295.3661 356.9803 295.9194" fill="#1a1a18"/>
<path transform="matrix(1,0,0,-1,0,595.2756)" d="M384.0996 293.9272V278.5646H385.6927V292.7098H386.5558L398.7459 278.5646H401.0471V293.9272H399.454V280.1585L387.6177 293.9272Z" fill="#1a1a18"/>
<path transform="matrix(1,0,0,-1,0,595.2756)" d="M413.6528 293.9272 405.6883 278.5646H407.48L409.3829 282.2613H420.3119L422.2148 278.5646H424.0732L416.1087 293.9272ZM414.8697 292.7982 419.4935 283.8552H410.2458Z" fill="#1a1a18"/>
<path transform="matrix(1,0,0,-1,0,595.2756)" d="M444.4889 293.9272C441.3251 293.9272 439.7766 292.6877 439.7766 289.8099 439.7766 287.0206 440.7721 285.8695 445.7942 285.7589L451.1704 285.626C455.4845 285.5375 456.2813 284.8955 456.2813 282.9475 456.2813 280.8669 455.1528 280.1585 452.7414 280.1585H445.4626C442.4315 280.1585 441.5462 281.1988 441.5023 282.9254H439.9092C439.9092 279.9592 441.8563 278.5646 444.9314 278.5646H452.8298C456.3697 278.5646 457.8741 279.6715 457.8741 282.9033 457.8741 286.0245 456.3476 287.087 450.7279 287.2199L445.9714 287.3305C442.0111 287.4192 441.3917 287.9062 441.3917 289.7878 441.3917 291.4257 441.9448 292.3333 444.4226 292.3333H452.1881C455.2191 292.3333 456.1041 291.3151 456.1483 289.5885H457.7635C457.7635 292.4884 455.9494 293.9272 452.5421 293.9272Z" fill="#1a1a18"/>
<path transform="matrix(1,0,0,-1,0,595.2756)" d="M463.4887 293.9272V278.5646H465.0817V292.7098H465.9446L478.135 278.5646H480.4359V293.9272H478.8428V280.1585L467.0065 293.9272Z" fill="#1a1a18"/>
<path transform="matrix(1,0,0,-1,0,595.2756)" d="M486.2273 293.9272V278.5646H499.8781V280.1585H487.8204V285.6926H499.502V287.2862H487.8204V292.3333H499.8781V293.9272ZM492.5551 294.5248 495.8073 297.6239H495.0992L492.1126 295.9637 489.17 297.6239H488.4401L491.6701 294.5248Z" fill="#1a1a18"/>
<path transform="matrix(1,0,0,-1,0,595.2756)" d="M506.0682 293.9272V278.5646H507.6612V285.6926H521.3117V278.5646H522.9045V293.9272H521.3117V287.2862H507.6612V293.9272Z" fill="#1a1a18"/>
<path transform="matrix(1,0,0,-1,0,595.2756)" d="M536.3512 280.1806C530.7982 280.1806 530.1564 280.7118 530.1564 285.6039V293.9272H528.5636V285.6039C528.5636 279.7821 529.8911 278.5646 536.3512 278.5646H538.7409C545.1568 278.5646 546.4843 279.7821 546.4843 285.6039V293.9272H544.8912V285.6039C544.8912 280.7118 544.2497 280.1806 538.7187 280.1806Z" fill="#1a1a18"/>
<path transform="matrix(1,0,0,-1,0,595.2756)" d="M562.8291 285.6039C562.8291 279.8263 564.2226 278.5646 569.5549 278.5646H575.3293C579.4002 278.5646 580.8382 280.0256 580.8382 282.9033H579.2451C579.2451 280.9553 578.2275 280.1364 575.2627 280.1364H569.378C565.2408 280.1364 564.4219 280.8445 564.4219 285.6039V287.0206C564.4219 291.6692 565.4174 292.4884 569.7763 292.4884H575.2627C578.2938 292.4884 579.223 291.4481 579.223 289.7212H580.8158C580.8158 292.6877 578.9798 294.082 575.2627 294.082H569.9971C564.4885 294.082 562.8291 292.6434 562.8291 286.9985ZM571.8115 294.5248 575.064 297.6239H574.3559L571.369 295.9637 568.4264 297.6239H567.6965L570.9266 294.5248Z" fill="#1a1a18"/>
<path transform="matrix(1,0,0,-1,0,595.2756)" d="M588.3114 287.4192V292.2228H598.3775C600.6566 292.2228 601.5192 291.2488 601.5192 289.8099 601.5192 288.2823 600.7008 287.4192 598.2673 287.4192ZM603.1344 289.9205C603.1344 292.6434 601.5858 293.9272 597.9574 293.9272H586.6963V278.5646H588.3114V285.6926H598.8645C601.5192 285.6926 602.1831 285.0284 602.1831 283.0584V278.5646H603.9088V283.0805C603.9088 285.7368 602.6698 286.6887 601.6742 286.888 602.4487 287.1757 603.1344 287.8174 603.1344 289.9205" fill="#1a1a18"/>
</g>
</svg>
