<svg xmlns="http://www.w3.org/2000/svg" xmlns:xlink="http://www.w3.org/1999/xlink" xmlns:inkscape="http://www.inkscape.org/namespaces/inkscape" version="1.1" width="1133.86" height="708.661" viewBox="0 0 1133.86 708.661">
<defs>
<clipPath id="clip_1">
<path transform="matrix(1,0,0,-1,0,708.661)" d="M0 0H1133.858V708.661H0Z"/>
</clipPath>
<clipPath id="clip_2">
<path transform="matrix(1,0,0,-1,0,708.661)" d="M0 0H1133.858V708.661H0Z"/>
</clipPath>
<clipPath id="clip_3">
<path transform="matrix(1,0,0,-1,0,708.661)" d="M0 0H1133.858V708.661H0Z"/>
</clipPath>
<clipPath id="clip_4">
<path transform="matrix(1,0,0,-1,0,708.661)" d="M0 0H1133.858V708.661H0Z"/>
</clipPath>
<clipPath id="clip_5">
<path transform="matrix(1,0,0,-1,0,708.661)" d="M0 0H1133.858V708.661H0Z"/>
</clipPath>
<clipPath id="clip_6">
<path transform="matrix(1,0,0,-1,0,708.661)" d="M0 0H1133.858V708.661H0Z"/>
</clipPath>
<clipPath id="clip_7">
<path transform="matrix(1,0,0,-1,0,708.661)" d="M0 0H1133.858V708.661H0Z"/>
</clipPath>
<clipPath id="clip_8">
<path transform="matrix(1,0,0,-1,0,708.661)" d="M0 0H1133.858V708.661H0Z"/>
</clipPath>
<clipPath id="clip_9">
<path transform="matrix(1,0,0,-1,0,708.661)" d="M0 0H1133.858V708.661H0Z"/>
</clipPath>
<clipPath id="clip_10">
<path transform="matrix(1,0,0,-1,0,708.661)" d="M0 0H1133.858V708.661H0Z"/>
</clipPath>
</defs>
<g clip-path="url(#clip_1)">
<path transform="matrix(1,0,0,-1,60.3217,572.2591)" d="M0 0C-.614 0-1.142-.434-1.258-1.029L-19.996-102.732C-20.088-103.207-19.998-103.557-19.745-103.863-19.57-104.076-19.257-104.33-18.763-104.33H1016.485C1017.106-104.33 1017.623-103.9 1017.745-103.283L1036.481-1.598C1036.571-1.133 1036.479-.775 1036.223-.467 1035.967-.156 1035.635 0 1035.237 0Z" fill="#00c0f3"/>
<path transform="matrix(1,0,0,-1,1095.5585,563.7552)" d="M0 0H-1035.237C-1039.922 0-1043.953-3.314-1044.844-7.918L-1063.596-109.695C-1064.773-115.73-1060.137-121.338-1054-121.338H-18.752C-14.068-121.338-10.047-118.023-9.146-113.418L9.605-11.643C10.771-5.607 6.148 0 0 0" fill="#00c0f3"/>
<path transform="matrix(1,0,0,-1,349.2601,485.5599)" d="M0 0C.376 0 .753-.025 1.131-.076 3.964-.455 6.416-2.232 7.658-4.807L9.367-8.346C11.472-12.678 15.959-15.488 20.79-15.488H40.249C42.789-15.488 45.196-16.625 46.812-18.584 48.427-20.545 49.082-23.125 48.596-25.619L46.488-36.443C45.766-40.162 46.741-43.984 49.164-46.924 51.584-49.859 55.151-51.543 58.951-51.543H112.929C118.969-51.543 124.209-47.244 125.387-41.322L128.302-26.635C129.175-22.242 133.311-19.275 137.744-19.857 141.282-20.318 144.818-20.562 147.968-20.562 168.334-20.562 187.749-14.482 204.116-2.979 206.289-1.451 209.051-1.027 211.581-1.83 214.112-2.635 216.122-4.574 217.015-7.076 217.521-8.492 218.248-9.779 219.177-10.906 221.583-13.814 225.152-15.488 228.957-15.488H283.242C289.371-15.488 294.621-11.121 295.728-5.104L305.56 48.164C308.197 62.109 311.74 72.184 316.396 79 318.597 82.225 322.714 83.535 326.376 82.176 330.039 80.816 332.302 77.139 331.869 73.258 331.402 69.078 331.175 65.178 331.175 61.332 331.175 10.289 361.613-18.986 414.685-18.986 427.923-18.986 453.646-17.469 477.205-7.305 479.539-6.297 482.197-6.385 484.458-7.547 497.457-14.219 516.369-18.383 536.345-18.971 536.455-18.975 536.562-18.979 536.671-18.986H537.814C560.652-18.986 580.74-13.953 595.917-4.43 598.746-2.654 602.347-2.701 605.13-4.541 617.748-12.891 639.076-18.285 662.185-18.971 662.294-18.975 662.402-18.979 662.509-18.986H663.642C688.595-18.986 709.984-13.119 725.503-2.016 742.652 10.252 752.095 28.92 752.095 50.551 752.095 64.158 747.132 75.738 736.919 85.951 734.955 87.918 734.074 90.721 734.56 93.457 735.048 96.193 736.843 98.52 739.367 99.684 742.527 101.145 744.966 103.887 746.056 107.205L758.451 144.683C760.384 150.537 757.841 156.917 752.402 159.849 748.724 161.821 744.255 163.571 739.132 165.044 736.759 165.726 734.8 167.404 733.763 169.644 732.726 171.883 732.714 174.463 733.728 176.713 734.044 177.416 734.154 177.8 734.187 177.998L743.078 228.804C743.271 229.909 743.042 231.092 742.433 232.134 740.554 235.35 740.988 239.415 743.503 242.164 747.107 246.101 749.06 251.116 749.175 256.694 749.048 257.267 748.982 257.851 748.976 258.438 748.865 269.803 741.607 276.587 729.56 276.587 728.486 276.587 727.332 276.5 726.031 276.32 723.636 275.985 721.21 276.693 719.365 278.258 627.445 356.211 509.496 442.591 451.89 453.258 330.183 413.86 199.317 330.736 198.002 329.897 195.145 328.073 191.476 328.12 188.665 330.016 170.246 342.454 136.433 362.185 124.105 362.185 123.865 362.185 123.649 362.175 123.463 362.155 111.476 360.869 58.872 331.789 28.531 313.761 27.216 312.981 25.716 312.569 24.187 312.569H-7.1C-9.494 312.569-11.556 310.854-12.004 308.491L-16.269 285.821C-16.683 283.616-17.952 281.664-19.8 280.39L-42.277 264.901C-43.696 263.923-45.379 263.4-47.103 263.4H-201.813C-207.913 263.4-213.158 259.048-214.286 253.052L-236.773 133.727C-237.188 131.524-238.456 129.574-240.302 128.301L-304.972 83.693-256.462 83.668C-253.931 83.666-251.533 82.537-249.918 80.59-248.304 78.641-247.64 76.074-248.109 73.588L-262.063-.441C-262.764-4.166-261.775-7.986-259.348-10.918-256.942-13.82-253.383-15.488-249.59-15.488H-23.141C-19.468-15.488-15.98-13.904-13.573-11.143L-6.412-2.92C-4.786-1.053-2.44 0 0 0" fill="#004b64"/>
<path transform="matrix(1,0,0,-1,1103.3964,381.0111)" d="M0 0 12.389 37.464C15.611 47.224 11.354 57.905 2.301 62.786-2.047 65.118-7.102 67.072-12.656 68.668-12.186 69.712-11.775 70.817-11.572 71.983L-2.682 122.79C-2.129 125.941-2.764 129.143-4.359 131.875 .592 137.286 3.549 144.5 3.549 152.664 3.549 153.093 3.447 153.543 3.344 153.973 3.182 170.465-8.338 180.542-24.574 180.542-26.16 180.542-27.727 180.409-29.271 180.195-52.23 199.665-224.26 344.962-302.863 357.444-427.65 317.503-560.711 232.515-560.711 232.515-560.711 232.515-613.278 268.026-631.581 266.062-649.883 264.098-729.95 216.524-729.95 216.524H-761.237C-767.723 216.524-773.288 211.9-774.496 205.526L-778.762 182.844-801.239 167.355H-955.95C-966.139 167.355-974.897 160.091-976.78 150.075L-999.267 30.753-1086.393-29.344-1010.603-29.385-1024.557-103.414C-1025.723-109.613-1024.066-116.02-1020.036-120.889-1016.015-125.738-1010.03-128.541-1003.727-128.541H-777.278C-771.15-128.541-765.329-125.902-761.297-121.277L-754.135-113.053-752.426-116.592C-748.877-123.896-741.469-128.541-733.347-128.541H-713.888L-715.996-139.365C-717.203-145.586-715.566-151.99-711.535-156.881-707.503-161.771-701.508-164.596-695.186-164.596H-641.208C-631.08-164.596-622.382-157.453-620.409-147.529L-617.493-132.838C-613.421-133.369-609.534-133.615-606.167-133.615-583.281-133.615-562.451-126.658-545.129-114.484-544.312-116.775-543.105-118.945-541.519-120.867-537.488-125.738-531.502-128.541-525.18-128.541H-470.896C-460.664-128.541-451.896-121.258-450.045-111.189L-440.213-57.928C-437.625-44.238-434.381-35.707-430.719-30.346-431.199-34.643-431.465-38.918-431.465-43.217-431.465-98.83-397.061-132.039-339.449-132.039-325.168-132.039-298.361-130.361-273.562-119.66-259.566-126.844-239.586-131.385-218.039-132.02-217.877-132.039-217.725-132.039-217.559-132.039H-216.322-216.312C-191.686-132.039-170.201-126.535-153.699-116.182-139.785-125.391-117.031-131.283-92.201-132.02-92.037-132.039-91.883-132.039-91.721-132.039H-90.492-90.482C-63.75-132.039-40.646-125.615-23.686-113.48-4.236-99.566 6.465-78.432 6.465-53.998 6.465-35.787-1.424-22.365-11.203-12.584-5.895-10.131-1.832-5.566 0 0" fill="#004b64"/>
<path transform="matrix(1,0,0,-1,1077.8495,213.3089)" d="M0 0C-9.516 0-18.088-6.854-18.088-17.515-18.088-26.846-11.611-32.555-3.049-32.555H-2.855C7.039-32.555 15.602-26.272 15.602-15.039 15.602-5.709 9.137 0 0 0" fill="#ffffff"/>
</g>
<path transform="matrix(1,0,0,-1,1045.8573,306.6957)" d="M0 0H32.678L41.566 50.796H8.891Z" fill="#ffffff"/>
<g clip-path="url(#clip_2)">
<path transform="matrix(1,0,0,-1,1054.5956,212.66391)" d="M0 0H-40.148L-60.395-26.754C-63.074-30.19-65.754-34.017-68.619-37.844H-69.008L-53.908 41.66H-86.391L-112.008-94.03H-79.516L-74.35-66.122-64.609-56.382-50.654-94.03H-14.15L-39.574-38.806Z" fill="#ffffff"/>
<path transform="matrix(1,0,0,-1,916.0292,233.79141)" d="M0 0C-9.648 5.484-18.16 9.649-18.16 15.694-18.16 21.189-12.666 25.732-1.32 25.732 9.463 26.109 18.916 22.509 23.08 20.432L33.105 47.287C27.049 50.316 17.975 53.528 1.135 53.528-28.371 53.528-52.209 37.455-52.209 10.405-52.209-7.376-37.641-17.208-25.344-23.827-14.375-29.506-8.697-33.106-8.697-39.348-8.697-46.897-16.83-50.314-25.721-50.314-38.02-50.314-49.365-46.714-57.119-42.171L-67.719-68.852C-61.469-73.007-48.607-77.743-28.748-78.123-.562-78.123 25.721-64.494 25.721-33.474 25.721-18.353 15.324-7.938 0 0" fill="#ffffff"/>
<path transform="matrix(1,0,0,-1,823.3065,213.3089)" d="M0 0-15.143-36.094C-19.99-48.33-23.295-55.9-25.812-63.656H-26.59C-27.174-55.697-28.146-48.515-28.914-36.483L-31.645 0H-65.795L-49.875-95.483H-16.104L34.998 0Z" fill="#ffffff"/>
<path transform="matrix(1,0,0,-1,787.0995,194.0946)" d="M0 0C12.234 0 20.666 .491 21.023 .511 22.926 .614 24.439 2.128 24.543 4.031 24.656 5.934 23.314 7.612 21.443 7.938 1.207 11.438-31.982 21.32-34.867 32.923-37.945 45.302-14.018 61.457 7.09 75.708 32.357 92.753 56.227 108.876 51.922 126.186 47.184 145.298 17.381 149.35 16.113 149.513 14.199 149.779 12.439 148.531 11.99 146.669 11.551 144.816 12.572 142.925 14.363 142.27 14.496 142.229 27.746 137.339 30.059 127.967 33.516 114.074 .338 95.965-28.943 79.984-62.654 61.6-94.502 44.228-89.908 25.72-84.629 4.461-38.102 0 0 0" fill="#ffffff"/>
<path transform="matrix(1,0,0,-1,709.4159,211.18051)" d="M0 0C-35.133 0-58.807-26.58-58.807-60.157-58.807-84.814-41.332-99.751-16.891-99.751 16.492-99.751 41.732-76.261 41.732-39.205 41.732-16.687 25.617 0 0 0M-12.236-74.716C-20.184-74.716-24.461-68.894-24.461-59.584-24.461-47.932-18.641-25.025-4.461-25.025 4.266-25.025 7.562-31.634 7.562-39.593 7.562-53.17 1.35-74.716-12.236-74.716" fill="#ffffff"/>
</g>
<path transform="matrix(1,0,0,-1,626.6288,171.00434)" d="M0 0-26.396-137.789H6.59L32.994 0Z" fill="#ffffff"/>
<g clip-path="url(#clip_3)">
<path transform="matrix(1,0,0,-1,607.7518,211.3641)" d="M0 0C-1.941 .184-3.691 .184-5.637 .184-18.824 .184-29.506-8.543-36.492-20.974H-37.076C-36.492-14.559-36.104-8.349-35.715-1.944H-64.248C-65.209-9.903-66.375-27.378-69.099-42.509L-79.574-97.428H-46.386L-40.371-64.823C-37.076-47.359-30.477-32.033-10.863-32.033H-6.6Z" fill="#ffffff"/>
<path transform="matrix(1,0,0,-1,423.9457,276.96473)" d="M0 0C0-20.769 12.227-33.966 29.495-33.966 39.594-33.966 51.432-29.506 59.584-15.336H59.974C59.778-20.769 59.39-26.396 59.196-31.828H89.469C89.09-19.408 91.219 .194 93.162 10.476L103.25 60.546C94.718 63.267 81.713 65.784 69.283 65.784 19.991 65.784 0 31.634 0 0M62.307 21.157C58.03-1.35 50.07-7.387 44.055-7.387 38.243-7.387 34.549-2.721 34.549 6.2 34.549 20.175 44.638 40.954 60.157 40.954 61.712 40.954 64.045 40.761 66.184 40.361Z" fill="#ffffff"/>
<path transform="matrix(1,0,0,-1,449.2972,177.99164)" d="M0 0H-41.343L-73.365-41.128C-77.048-45.998-80.926-50.663-84.619-56.27H-85.202L-74.521 0H-107.138L-131.772-130.802H-99.178L-91.218-89.663-78.214-77.049-59.195-130.802H-23.091L-52.208-56.474Z" fill="#ffffff"/>
</g>
<path transform="matrix(1,0,0,-1,171.8275,435.7474)" d="M0 0 9.749 51.605H105.02L114.442 101.695H19.213L28.187 148.276H123.302L132.807 198.959H-22.774L-69.826-50.684H85.447L95.044 0Z" fill="#00c0f3"/>
<g clip-path="url(#clip_4)">
<path transform="matrix(1,0,0,-1,535.973,332.14933)" d="M0 0C-17.883 0-34.57-8.287-45.792-22.752L-46.365-23.491H-50.09L-47.859-1.903H-134.975L-165.954-38.079-183.438-1.903H-244.107L-201.619-78.389-272.661-154.282H-210.734L-181.147-120.356-164.716-154.282H-118.422L-125.419-190.334H-75.36L-67.953-153.012H-65.129L-64.638-153.34C-60.3-156.327-50.008-159.356-38.744-159.356 4.052-159.356 49.517-123.977 49.517-58.399 49.517-22.917 30.079 0 0 0M-116.13-140.756-145.728-79.739-94.419-20.902ZM-40.964-122.565C-48.352-122.565-54.407-120.088-59.471-115.016L-60.167-114.319-55.246-83.811C-50.458-56.762-37.567-39.961-21.587-39.961-8.215-39.961-3.479-52.116-3.479-62.532-3.479-90.297-19.849-122.565-40.964-122.565" fill="#00c0f3"/>
<path transform="matrix(1,0,0,-1,705.2831,330.6561)" d="M0 0C-1.984 .082-3.93 .082-6.098 .082-25.361 .082-42.693-11.847-54.898-33.537L-55.461-34.519H-59.646L-59.461-32.412C-58.582-22.784-57.969-13.505-57.354-3.396H-100.273C-100.672-6.936-101.102-11.377-101.582-16.42-102.963-30.814-104.855-50.519-108.027-68.177L-124.744-155.775H-74.377L-64.822-104.007C-59.973-78.287-49.885-48.781-14.65-48.781H-9.279Z" fill="#00c0f3"/>
<path transform="matrix(1,0,0,-1,823.0604,442.2123)" d="M0 0C-13.709-6.385-28.943-9.658-45.139-9.658-57.701-9.658-67.799-6.752-74.328-1.27-77.52 1.615-79.893 5.934-80.701 10.332L-81.131 12.686-78.746 12.625C-75.34 12.523-72.004 12.461-68.762 12.461-9.504 12.461 19.295 29.24 19.295 63.717 19.295 92.833-2.629 111.638-36.564 111.638-80.885 111.638-127.998 78.818-127.998 17.986-127.998-24.371-103.535-47.717-59.113-47.717-46.07-47.717-21.096-46.162 .594-35.869L15.203 8.43C11.469 5.75 6.006 2.311 0 0M-75.627 50.049C-73.959 60.668-63.963 76.445-43.246 76.445-32.799 76.445-27.336 70.367-27.336 64.352V64.023C-27.336 52.504-39.91 47.797-70.736 47.797-71.717 47.797-72.721 47.797-73.744 47.818L-75.975 47.838Z" fill="#00c0f3"/>
<path transform="matrix(1,0,0,-1,924.5507,393.57563)" d="M0 0C-12.881 5.75-18.896 10.967-18.896 16.35-18.896 23.633-12.053 27.807-.133 27.807 10.701 27.807 21.137 25.822 31.693 21.752L42.918 55.717C33.443 60.301 18.363 63 2.088 63-40.82 63-69.66 41.189-69.66 8.736-69.66-7.529-58.582-20.771-35.809-31.777-21.607-38.059-16.311-42.908-16.311-49.701-16.311-52.32-17.545-60.832-33.477-60.832L-34.539-60.855C-50.592-60.855-67.83-54.143-76.158-50.439L-87.709-84.508C-77.529-91.137-58.48-95.74-38.498-96.355H-37.486-37.477C-15.592-96.355 2.844-91.424 15.855-82.113 29.26-72.516 36.35-58.439 36.35-41.436 36.35-20.094 18.887-8.9 0 0" fill="#00c0f3"/>
<path transform="matrix(1,0,0,-1,1050.3905,393.57563)" d="M0 0C-12.893 5.75-18.908 10.967-18.908 16.35-18.908 23.633-12.064 27.807-.133 27.807 10.701 27.807 21.137 25.822 31.684 21.752L42.908 55.717C33.434 60.301 18.363 63 2.086 63-40.832 63-69.672 41.189-69.672 8.736-69.672-7.529-58.592-20.771-35.82-31.777-21.619-38.059-16.318-42.908-16.318-49.701-16.318-52.32-17.557-60.832-33.486-60.832L-34.541-60.855C-50.592-60.855-67.832-54.143-76.158-50.439L-87.721-84.508C-77.541-91.137-58.49-95.74-38.51-96.355H-37.486C-15.604-96.355 2.844-91.424 15.846-82.113 29.26-72.516 36.35-58.439 36.35-41.436 36.35-20.094 18.875-8.9 0 0" fill="#00c0f3"/>
</g>
<path transform="matrix(1,0,0,-1,869.785,593.83346)" d="M0 0-5.27 7.203-17.332 .348-26.906 7.203-33.332 .348-18.58-10.107Z" fill="#ffffff"/>
<path transform="matrix(1,0,0,-1,808.8807,594.2631)" d="M0 0-7.756 7.631-21.076-4.113-14.938-9.678Z" fill="#ffffff"/>
<path transform="matrix(1,0,0,-1,674.9081,594.2631)" d="M0 0-7.756 7.631-21.066-4.113-14.938-9.678Z" fill="#ffffff"/>
<path transform="matrix(1,0,0,-1,530.1215,593.83346)" d="M0 0-5.27 7.203-17.331 .348-26.918 7.203-33.333 .348-18.58-10.107Z" fill="#ffffff"/>
<path transform="matrix(1,0,0,-1,425.0707,593.83346)" d="M0 0-5.269 7.203-17.331 .348-26.906 7.203-33.332 .348-18.579-10.107Z" fill="#ffffff"/>
<g clip-path="url(#clip_5)">
<path transform="matrix(1,0,0,-1,205.1078,591.3373)" d="M0 0-7.856-8.922C-9.678-10.988-11.202-13.033-14.271-17.25-16.185-13.219-17.433-10.988-20.114-6.691L-24.328 0H-43.092L-24.8-27.092-52.116-56.576-71.534-27.869-46.243 0H-65.784L-73.641-8.922C-75.462-10.988-76.997-13.033-80.056-17.25-81.969-13.219-83.217-10.988-85.898-6.691L-90.111 0H-108.877L-90.593-27.092-118.463-57.17H-98.349L-88.384-46.039C-85.898-43.297-83.882-40.637-82.072-37.813-80.342-41.66-78.143-45.527-76.128-48.617L-70.388-57.17H-32.554L-22.6-46.039C-20.114-43.297-18.098-40.637-16.288-37.813-14.549-41.66-12.358-45.527-10.343-48.617L-4.594-57.17H14.078L-5.749-27.869 19.542 0Z" fill="#ffffff"/>
</g>
<path transform="matrix(1,0,0,-1,249.0599,591.3373)" d="M0 0H-16.186L-24.042-57.17H12.451L14.271-44.586H-6.128Z" fill="#ffffff"/>
<path transform="matrix(1,0,0,-1,293.2064,648.5072)" d="M0 0H15.807L24.421 62.469H8.614Z" fill="#ffffff"/>
<g clip-path="url(#clip_6)">
<path transform="matrix(1,0,0,-1,359.5736,610.2025)" d="M0 0-8.329-12.094C-11.592-17.066-12.646-18.764-13.894-21.342-14.845-16.963-15.613-14.406-17.434-10.375L-22.038 0H-39.553L-24.421-35.318-40.986-59.482H-23.274L18.006 0Z" fill="#ffffff"/>
</g>
<path transform="matrix(1,0,0,-1,383.9838,610.2025)" d="M0 0-2.005-10.887H16.676L-9.76-38.305H37.732L39.747-27.42H19.062L45.2 0Z" fill="#ffffff"/>
<g clip-path="url(#clip_7)">
<path transform="matrix(1,0,0,-1,468.1635,614.5814)" d="M0 0C-4.788 4.297-7.949 5.586-13.894 5.586-26.917 5.586-36.483-3.93-36.483-16.881-36.483-27.93-29.506-35.051-18.681-35.051-12.748-35.051-8.911-33.68-4.113-29.73L-5.269-33.926H10.538L15.796 4.379H0ZM-11.786-23.898C-17.045-23.898-20.401-20.729-20.401-15.857-20.401-10.025-16.002-5.566-10.251-5.566-4.982-5.566-1.821-8.656-1.821-13.709-1.821-19.541-6.138-23.898-11.786-23.898" fill="#ffffff"/>
<path transform="matrix(1,0,0,-1,510.0072,615.4408)" d="M0 0 1.249 5.238H-14.559L-19.827-33.066H-4.021L-1.821-16.799C-1.248-12.768-.676-11.049 .471-9.516 2.107-7.367 4.89-6.242 8.43-6.242 11.11-6.242 13.115-6.773 15.612-7.961L17.331 5.156C16.001 5.238 15.04 5.238 14.271 5.238 8.235 5.238 4.89 4.031 0 0" fill="#ffffff"/>
<path transform="matrix(1,0,0,-1,553.8676,619.2064)" d="M0 0C3.345 0 6.035-.859 10.435-3.334L14.271 6.344C8.42 9.086 3.631 10.293-1.73 10.293-12.738 10.293-20.023 5.055-20.023-2.824-20.023-8.9-16.575-12.256-8.625-13.975-2.304-15.346-2.304-15.346-1.627-15.857-1.341-16.104-1.055-16.635-1.055-17.146-1.055-18.764-3.254-19.785-6.805-19.785-11.111-19.785-14.17-18.764-20.207-15.264L-25.956-24.596C-18.683-28.871-13.312-30.426-6.324-30.426 5.842-30.426 13.596-24.861 13.596-16.205 13.596-10.619 10.056-7.365 2.302-5.484-5.362-3.684-5.362-3.684-5.362-2.313-5.362-.859-3.448 0 0 0" fill="#ffffff"/>
<path transform="matrix(1,0,0,-1,627.7948,610.2025)" d="M0 0H-19.92L-33.619-13.709-28.35 24.164H-44.156L-52.77-38.305H-36.975L-34.479-20.318C-30.836-24.861-28.062-28.033-24.227-31.879L-17.904-38.305H1.34L-18.682-17.496Z" fill="#ffffff"/>
<path transform="matrix(1,0,0,-1,658.4354,609.099)" d="M0 0C-7.754 0-14.076-2.127-18.578-6.342-22.793-10.271-25.281-16.02-25.281-21.852-25.281-27.5-22.793-32.9-18.773-36.072-15.027-39.082-9.678-40.533-3.059-40.533 4.309-40.533 10.344-38.732 14.561-35.295 17.148-33.064 18.672-30.937 20.494-26.641H3.254C2.682-29.301 .676-30.59-2.771-30.59-5.166-30.59-7.469-29.812-8.715-28.625-9.861-27.418-10.24-26.047-10.24-23.141H21.742C21.844-21.586 21.936-20.215 21.936-19.621 21.936-7.365 13.699 0 0 0M-9.188-15.16C-8.234-11.213-5.555-9.248-1.248-9.248 2.967-9.248 5.463-11.314 5.75-15.16Z" fill="#ffffff"/>
</g>
<path transform="matrix(1,0,0,-1,716.5682,610.2025)" d="M0 0-2.018-10.887H16.654L-9.771-38.305H37.73L39.736-27.42H19.049L45.199 0Z" fill="#ffffff"/>
<g clip-path="url(#clip_8)">
<path transform="matrix(1,0,0,-1,800.7362,614.5814)" d="M0 0C-4.787 4.297-7.949 5.586-13.883 5.586-26.904 5.586-36.482-3.93-36.482-16.881-36.482-27.93-29.494-35.051-18.67-35.051-12.736-35.051-8.91-33.68-4.111-29.73L-5.268-33.926H10.539L15.809 4.379H0ZM-11.785-23.898C-17.043-23.898-20.4-20.729-20.4-15.857-20.4-10.025-15.99-5.566-10.25-5.566-4.982-5.566-1.82-8.656-1.82-13.709-1.82-19.541-6.129-23.898-11.785-23.898" fill="#ffffff"/>
</g>
<path transform="matrix(1,0,0,-1,828.6991,610.2025)" d="M0 0-2.018-10.887H16.666L-9.771-38.305H37.73L39.734-27.42H19.059L45.197 0Z" fill="#ffffff"/>
<path transform="matrix(1,0,0,-1,876.2811,648.5072)" d="M0 0H15.807L21.076 38.305H5.279Z" fill="#ffffff"/>
<g clip-path="url(#clip_9)">
<path transform="matrix(1,0,0,-1,891.7089,587.4095)" d="M0 0C-5.27 0-9.576-3.764-9.576-8.307-9.576-13.033-5.359-16.799-.092-16.799 5.076-16.799 9.197-13.033 9.197-8.307 9.197-3.682 5.076 0 0 0" fill="#ffffff"/>
</g>
<path transform="matrix(1,0,0,-1,928.1932,597.9466)" d="M0 0H-15.705L-17.436-12.256H-24.135L-25.67-23.143H-18.867L-22.703-50.561H-6.896L-3.162-23.143H5.27L6.803-12.256H-1.627Z" fill="#ffffff"/>
<g clip-path="url(#clip_10)">
<path transform="matrix(1,0,0,-1,988.2382,610.2025)" d="M0 0H-19.92L-33.619-13.709-28.352 24.164H-44.158L-52.771-38.305H-36.975L-34.479-20.318C-30.836-24.861-28.062-28.033-24.229-31.879L-17.904-38.305H1.34L-18.672-17.496Z" fill="#ffffff"/>
<path transform="matrix(1,0,0,-1,1032.4745,610.2025)" d="M0 0-8.328-12.094C-11.59-17.066-12.645-18.764-13.883-21.342-14.846-16.963-15.611-14.406-17.422-10.375L-22.025 0H-39.553L-24.42-35.318-40.982-59.482H-23.273L18.008 0Z" fill="#ffffff"/>
</g>
</svg>
