<?xml version="1.0" encoding="UTF-8"?>
<!-- Generator: visioncortex VTracer 0.6.12 -->
<svg version="1.1" xmlns="http://www.w3.org/2000/svg" width="842" height="595">
<path d="M0 0 C3.704 0.484 7.207 0.612 10.94 0.597 C11.623 0.596 12.305 0.595 13.009 0.593 C15.279 0.588 17.548 0.576 19.818 0.563 C21.453 0.558 23.088 0.553 24.723 0.549 C28.236 0.539 31.75 0.526 35.263 0.511 C40.829 0.488 46.395 0.475 51.96 0.464 C67.785 0.43 83.609 0.389 99.434 0.326 C108.18 0.291 116.926 0.267 125.671 0.256 C130.292 0.249 134.913 0.236 139.534 0.211 C143.886 0.186 148.238 0.176 152.59 0.176 C154.177 0.174 155.765 0.166 157.353 0.153 C168.07 0.067 179.165 0.219 188.807 5.497 C188.807 4.507 188.807 3.517 188.807 2.497 C196.205 0.768 203.41 0.024 210.995 -0.253 C212.093 -0.293 213.192 -0.333 214.324 -0.375 C231.808 -0.865 248.107 1.58 261.37 13.872 C261.607 14.14 261.607 14.14 262.807 15.497 C264.437 10.841 265.6 6.329 266.807 1.497 C281.327 1.497 295.847 1.497 310.807 1.497 C312.62 8.747 314.412 15.984 316.077 23.267 C316.492 25.071 316.908 26.875 317.324 28.679 C317.536 29.6 317.748 30.521 317.966 31.471 C324.446 59.607 324.446 59.607 328.182 73.151 C328.401 73.955 328.621 74.759 328.847 75.587 C329.034 76.256 329.222 76.925 329.415 77.614 C329.807 79.497 329.807 79.497 329.807 83.497 C330.467 83.497 331.127 83.497 331.807 83.497 C331.834 86.101 331.854 88.705 331.87 91.31 C331.878 92.048 331.887 92.786 331.895 93.546 C331.91 96.796 331.843 99.391 330.807 102.497 C332.457 102.167 332.457 102.167 340.807 100.497 C340.53 101.811 340.253 103.124 339.968 104.478 C339.602 106.213 339.236 107.949 338.87 109.685 C338.688 110.549 338.505 111.413 338.317 112.304 C338.14 113.145 337.963 113.986 337.78 114.853 C337.618 115.622 337.455 116.392 337.288 117.185 C336.782 119.62 336.292 122.058 335.807 124.497 C329.812 124.715 323.817 124.912 317.82 125.089 C315.782 125.152 313.745 125.221 311.707 125.296 C308.771 125.403 305.834 125.489 302.897 125.571 C301.993 125.609 301.088 125.646 300.157 125.685 C295.948 125.784 292.839 125.742 289.052 123.805 C287.981 123.373 286.911 122.942 285.807 122.497 C283.796 123.474 281.798 124.479 279.807 125.497 C275.639 125.964 271.479 125.894 267.288 125.86 C266.075 125.861 264.862 125.861 263.612 125.862 C261.049 125.86 258.486 125.85 255.923 125.833 C252.019 125.81 248.116 125.813 244.212 125.819 C241.716 125.814 239.221 125.807 236.725 125.798 C235.566 125.799 234.406 125.8 233.211 125.801 C228.265 125.758 223.735 125.614 218.938 124.353 C214.695 123.259 211.986 124.125 207.807 125.497 C205.034 125.635 202.374 125.686 199.608 125.622 C198.851 125.615 198.093 125.607 197.313 125.599 C194.915 125.575 192.518 125.538 190.12 125.497 C186.949 125.444 183.779 125.404 180.608 125.372 C179.885 125.356 179.162 125.339 178.417 125.322 C174.623 125.285 172.089 125.598 168.807 127.497 C164.281 126.971 164.281 126.971 162.807 125.497 C161.205 125.434 159.599 125.438 157.995 125.47 C157.498 125.476 157.498 125.476 154.983 125.507 C152.897 125.542 150.811 125.581 148.725 125.624 C142.405 125.693 136.921 125.121 130.807 123.497 C130.327 121.435 129.848 119.372 129.37 117.31 C129.103 116.161 128.836 115.013 128.561 113.829 C128.105 111.812 127.669 109.789 127.272 107.759 C126.807 105.497 126.807 105.497 125.807 102.497 C125.386 96.072 125.684 94.744 128.807 88.497 C106.367 88.497 83.927 88.497 60.807 88.497 C79.807 107.497 79.807 107.497 87.807 114.497 C89.896 116.521 91.957 118.55 93.995 120.622 C94.542 121.173 95.089 121.723 95.652 122.291 C97.95 124.605 100.242 126.925 102.535 129.245 C114.011 140.846 114.011 140.846 120.001 145.944 C123.287 148.769 126.409 151.771 129.557 154.747 C134.388 159.294 139.229 163.827 144.12 168.31 C144.59 168.745 144.59 168.745 146.968 170.946 C148.948 172.725 150.921 174.415 152.991 176.079 C160.254 182.103 160.254 182.103 161.737 185.841 C162.047 189.459 161.376 191.634 159.382 194.661 C156.804 197.713 154.012 200.32 150.995 202.935 C147.98 206.467 147.466 209.983 146.807 214.497 C147.158 214.51 147.158 214.51 148.932 214.575 C156.27 215.014 162.54 216.019 167.745 221.56 C170.037 225.74 170.313 229.83 169.807 234.497 C168.62 237.122 168.62 237.122 166.807 239.497 C166.127 240.487 165.446 241.477 164.745 242.497 C161.224 246.571 156.711 248.483 151.807 250.497 C150.848 250.893 149.889 251.289 148.901 251.696 C137.411 255.831 123.927 256.737 112.557 251.763 C110.473 250.255 109.76 248.859 108.807 246.497 C108.147 246.497 107.487 246.497 106.807 246.497 C106.682 246.789 106.682 246.789 106.046 248.267 C104.652 250.778 103.145 252.289 100.995 254.185 C100.329 254.787 99.662 255.389 98.975 256.009 C96.442 257.748 94.882 258.37 91.807 258.497 C88.025 256.746 85.332 254.267 82.432 251.31 C82.078 250.952 82.078 250.952 80.284 249.142 C78.342 247.068 76.481 244.969 74.629 242.817 C70.97 238.628 67.124 234.669 63.186 230.743 C62.483 230.039 61.779 229.334 61.054 228.608 C59.577 227.131 58.099 225.654 56.62 224.179 C54.376 221.941 52.137 219.697 49.899 217.452 C48.454 216.007 47.008 214.563 45.561 213.118 C44.903 212.458 44.244 211.797 43.566 211.116 C39.721 207.291 35.772 203.642 31.658 200.106 C28.393 197.267 25.264 194.281 22.12 191.31 C20.714 189.986 19.308 188.663 17.901 187.341 C17.21 186.691 16.519 186.042 15.807 185.372 C12.925 182.67 10.025 179.987 7.12 177.31 C6.602 176.831 6.083 176.352 5.549 175.859 C2.805 173.328 0.051 170.808 -2.712 168.298 C-3.003 168.032 -3.003 168.032 -4.477 166.687 C-5.579 165.682 -6.684 164.679 -7.793 163.68 C-17.407 154.891 -18.327 148.113 -19.255 135.31 C-19.346 134.128 -19.437 132.947 -19.53 131.73 C-19.782 128.32 -19.999 124.911 -20.193 121.497 C-20.251 120.534 -20.309 119.571 -20.369 118.578 C-20.548 113.488 -20.405 110.491 -16.818 106.56 C-16.191 105.849 -15.565 105.139 -14.919 104.407 C-14.349 103.777 -13.78 103.147 -13.193 102.497 C-12.863 102.002 -12.863 102.002 -11.193 99.497 C-11.47 99.262 -11.47 99.262 -12.872 98.071 C-13.234 97.76 -13.234 97.76 -15.068 96.185 C-15.787 95.57 -16.506 94.955 -17.247 94.321 C-19.193 92.497 -19.193 92.497 -21.193 89.497 C-23.935 88.793 -26.534 88.25 -29.318 87.81 C-29.695 87.745 -29.695 87.745 -31.603 87.417 C-33.464 87.099 -35.328 86.797 -37.193 86.497 C-39.161 80.86 -40.737 75.127 -42.318 69.372 C-42.456 68.878 -42.456 68.878 -43.157 66.376 C-43.419 65.423 -43.681 64.471 -43.95 63.489 C-44.189 62.627 -44.428 61.764 -44.673 60.876 C-45.193 58.497 -45.193 58.497 -45.193 54.497 C-42.223 54.827 -39.253 55.157 -36.193 55.497 C-37.244 54.528 -38.296 53.558 -39.38 52.56 C-46.14 45.814 -49.308 38.725 -49.443 29.247 C-49.334 20.4 -47.343 14.824 -41.275 8.321 C-30.216 -1.368 -13.933 -2.194 0 0 Z M243.245 70.935 C242.254 71.202 241.262 71.468 240.241 71.743 C237.807 72.497 237.807 72.497 236.807 73.497 C236.735 75.183 236.724 76.872 236.745 78.56 C236.766 80.189 236.786 81.818 236.807 83.497 C240.437 83.497 244.067 83.497 247.807 83.497 C248.302 81.93 248.797 80.362 249.307 78.747 C249.586 77.865 249.864 76.984 250.151 76.075 C250.807 73.497 250.807 73.497 250.807 69.497 C248.124 69.497 245.833 70.229 243.245 70.935 Z M-1.255 84.497 C-1.894 85.157 -2.534 85.817 -3.193 86.497 C-2.203 87.487 -1.213 88.477 -0.193 89.497 C1.807 87.497 1.807 87.497 1.932 84.872 C1.891 84.088 1.85 83.305 1.807 82.497 C0.807 82.497 0.807 82.497 -1.255 84.497 Z M-16.193 88.497 C-15.288 89.652 -14.368 90.796 -13.443 91.935 C-12.932 92.573 -12.422 93.211 -11.896 93.868 C-9.987 95.694 -8.796 96.196 -6.193 96.497 C-5.863 96.167 -5.533 95.837 -5.193 95.497 C-5.314 93.65 -5.314 93.65 -5.63 91.435 C-5.816 90.135 -6.001 88.836 -6.193 87.497 C-9.685 87.397 -12.787 87.719 -16.193 88.497 Z " fill="#14130C" transform="translate(305.1925106048584,215.5028247833252)"/>
<path d="M0 0 C1.014 -0.027 2.028 -0.053 3.072 -0.081 C5.212 -0.121 7.353 -0.14 9.494 -0.139 C12.722 -0.156 15.927 -0.301 19.15 -0.453 C29.336 -0.673 36.857 -0.136 44.7 6.833 C47.431 9.553 49.998 12.372 52.502 15.302 C55.411 18.576 58.667 21.443 61.941 24.344 C65.311 27.397 68.48 30.475 71.434 33.938 C76.556 39.894 82.231 45.327 87.816 50.844 C90.017 53.018 92.215 55.195 94.41 57.375 C94.899 57.855 95.388 58.336 95.891 58.831 C98.617 61.537 101.195 64.323 103.705 67.23 C107.298 71.377 111.106 75.262 115 79.125 C115.7 79.824 116.401 80.523 117.122 81.243 C119.33 83.446 121.542 85.645 123.754 87.844 C125.264 89.349 126.774 90.854 128.283 92.359 C131.958 96.024 135.636 99.684 139.316 103.344 C138.38 104.628 137.439 105.909 136.496 107.188 C135.973 107.901 135.449 108.614 134.91 109.35 C132.983 111.761 130.833 113.567 128.316 115.344 C127.76 114.271 127.203 113.199 126.629 112.094 C124.005 107.504 120.333 104.168 115.316 102.344 C111.432 102.02 108.544 102.038 105.316 104.344 C105.019 104.951 104.721 105.558 104.414 106.184 C103.212 108.549 101.764 110.177 100.004 112.156 C95.24 118.188 93.338 125.057 91.316 132.344 C90.995 133.488 90.674 134.633 90.344 135.812 C88.978 141.148 88.23 145.539 88.754 151.031 C88.931 154.911 88.507 156.094 86.102 159.25 C83.596 161.752 81.049 164.094 78.316 166.344 C74.864 164.867 72.667 162.906 70.066 160.219 C69.36 159.494 68.654 158.77 67.926 158.023 C67.66 157.746 67.66 157.746 66.316 156.344 C69.264 160.056 72.274 163.709 75.316 167.344 C71.666 165.811 69.377 163.622 66.621 160.809 C66.181 160.363 66.181 160.363 63.953 158.107 C63.042 157.175 62.13 156.242 61.191 155.281 C59.379 153.434 57.564 151.589 55.746 149.746 C54.944 148.926 54.142 148.106 53.316 147.261 C51.316 145.344 51.316 145.344 49.316 144.344 C49.184 143.742 49.051 143.14 48.914 142.52 C48.141 139.705 46.85 138.545 44.754 136.531 C44.029 135.834 43.305 135.136 42.559 134.418 C38.48 130.645 34.278 127.024 30.059 123.41 C29.678 123.08 29.678 123.08 27.754 121.406 C27.072 120.82 26.39 120.233 25.688 119.629 C23.747 117.759 22.048 115.89 20.308 113.843 C15.808 108.675 10.952 103.891 6.078 99.078 C5.106 98.113 4.134 97.148 3.163 96.182 C-0.925 92.117 -5.02 88.059 -9.118 84.005 C-11.64 81.51 -14.157 79.01 -16.67 76.508 C-18.086 75.101 -19.507 73.701 -20.928 72.3 C-21.786 71.445 -22.644 70.591 -23.529 69.71 C-23.907 69.336 -23.907 69.336 -25.82 67.441 C-29.882 62.869 -30.086 58.613 -30.309 52.668 C-30.342 51.825 -30.376 50.981 -30.41 50.112 C-30.476 48.33 -30.536 46.547 -30.591 44.764 C-30.683 42.05 -30.818 39.339 -30.953 36.627 C-31.012 34.891 -31.068 33.154 -31.121 31.418 C-31.168 30.614 -31.214 29.809 -31.262 28.98 C-31.347 24.321 -30.723 21.873 -27.656 18.277 C-26.685 17.279 -25.701 16.294 -24.684 15.344 C-23.694 15.674 -22.704 16.004 -21.684 16.344 C-21.684 17.004 -21.684 17.664 -21.684 18.344 C-20.364 18.344 -19.044 18.344 -17.684 18.344 C-17.58 19.437 -17.477 20.53 -17.371 21.656 C-16.684 25.344 -16.684 25.344 -15.559 27.281 C-12.653 28.928 -9.945 28.528 -6.684 28.344 C-6.024 27.024 -5.364 25.704 -4.684 24.344 C-5.488 24.529 -6.292 24.715 -7.121 24.906 C-7.544 24.978 -7.544 24.978 -9.684 25.344 C-10.684 24.344 -10.684 24.344 -10.746 21.781 C-10.725 20.977 -10.705 20.173 -10.684 19.344 C-8.608 18.79 -6.84 18.344 -4.684 18.344 C-5.871 16.844 -5.871 16.844 -7.684 15.344 C-10.892 15.015 -13.605 15.432 -16.684 16.344 C-16.684 13.344 -16.684 13.344 -14.684 11.344 C-16.004 10.684 -17.324 10.024 -18.684 9.344 C-13.04 2.352 -8.941 0.083 0 0 Z " fill="#019DE1" transform="translate(322.68359375,301.65625)"/>
<path d="M0 0 C5.28 0 10.56 0 16 0 C16.165 1.485 16.165 1.485 17 9 C18.114 8.34 19.227 7.68 20.375 7 C23.75 5 23.75 5 26 5 C27.466 7.143 28.811 9.267 30.125 11.5 C30.498 12.12 30.87 12.74 31.254 13.379 C32.176 14.915 33.089 16.457 34 18 C31.803 20.248 29.548 22.155 27 24 C29.31 25.32 31.62 26.64 34 28 C32.68 30.64 31.36 33.28 30 36 C32.31 36 34.62 36 37 36 C37.165 37.32 37.165 37.32 38 44 C38.907 43.464 39.815 42.928 40.75 42.375 C44 41 44 41 46 41.602 C48.565 43.395 49.693 45.296 51.25 48 C51.771 48.887 52.292 49.774 52.828 50.688 C54 53 54 53 54 55 C51.69 56.32 49.38 57.64 47 59 C49.31 60.32 51.62 61.64 54 63 C52.674 66.623 51.057 69.635 48.875 72.812 C48.336 73.603 47.797 74.393 47.242 75.207 C46.832 75.799 46.422 76.39 46 77 C43.08 76.319 40.649 75.419 38 74 C37.67 76.64 37.34 79.28 37 82 C31.39 82 25.78 82 20 82 C19.835 80.68 19.835 80.68 19 74 C18.072 74.495 17.144 74.99 16.188 75.5 C13 77 13 77 10 77 C8.312 75.5 8.312 75.5 7 74 C6.835 74.495 6.835 74.495 6 77 C2.656 76.443 -0.033 75.648 -3 74 C-3.33 76.64 -3.66 79.28 -4 82 C-9.61 82 -15.22 82 -21 82 C-21.33 79.36 -21.66 76.72 -22 74 C-22.743 74.516 -23.485 75.031 -24.25 75.562 C-27 77 -27 77 -28.938 76.93 C-32.009 75.545 -33.019 73.406 -34.75 70.562 C-35.057 70.068 -35.057 70.068 -36.609 67.566 C-38 65 -38 65 -38 63 C-32.25 60 -32.25 60 -30 60 C-30 59.34 -30 58.68 -30 58 C-30.949 57.691 -31.898 57.381 -32.875 57.062 C-36 56 -36 56 -38 55 C-36.674 51.377 -35.057 48.365 -32.875 45.188 C-32.336 44.397 -31.797 43.607 -31.242 42.793 C-30.832 42.201 -30.422 41.61 -30 41 C-24.25 42.875 -24.25 42.875 -22 44 C-21.67 41.36 -21.34 38.72 -21 36 C-19.845 35.835 -19.845 35.835 -14 35 C-14.536 34.257 -15.072 33.515 -15.625 32.75 C-17 30 -17 30 -16.438 27.875 C-14.842 25.794 -13.175 24.45 -11 23 C-12.98 22.01 -14.96 21.02 -17 20 C-16.422 15.938 -15.109 13.152 -12.938 9.688 C-12.39 8.804 -11.842 7.921 -11.277 7.012 C-10.856 6.348 -10.434 5.684 -10 5 C-6.597 6.059 -3.986 7.009 -1 9 C-0.67 6.03 -0.34 3.06 0 0 Z M16 37 C16 38.98 16 40.96 16 43 C16.66 43.33 16.66 43.33 20 45 C20 43.02 20 41.04 20 39 C18.68 38.34 17.36 37.68 16 37 Z M-4 39 C-4.188 42.125 -4.188 42.125 -4 45 C-2.68 44.34 -1.36 43.68 0 43 C0 41.02 0 39.04 0 37 C-1 37 -1 37 -4 39 Z M6 58 C6 58.66 6 59.32 6 60 C6.99 60.33 7.98 60.66 9 61 C9.33 60.01 9.66 59.02 10 58 C8.68 58 7.36 58 6 58 Z " fill="#14130C" transform="translate(191,215)"/>
<path d="M0 0 C11.22 0 22.44 0 34 0 C33.856 5.053 33.711 10.106 33.562 15.312 C33.519 16.883 33.476 18.453 33.432 20.072 C33.202 27.749 32.797 35.357 32 43 C35.96 43 39.92 43 44 43 C43.856 41.237 43.711 39.473 43.562 37.656 C42.562 25.063 41.75 12.633 42 0 C52.23 0 62.46 0 73 0 C72.146 23.34 71.078 46.669 70 70 C61.75 70 53.5 70 45 70 C44.113 66.45 43.895 63.858 43.938 60.25 C43.947 59.265 43.956 58.28 43.965 57.266 C43.976 56.518 43.988 55.77 44 55 C41.36 55.99 38.72 56.98 36 58 C33 52.375 33 52.375 33 49 C32.34 49 31.68 49 31 49 C31 55.93 31 62.86 31 70 C21.76 70 12.52 70 3 70 C2.867 66.874 2.734 63.748 2.598 60.527 C2.465 57.413 2.333 54.298 2.2 51.183 C2.11 49.06 2.02 46.938 1.93 44.816 C1.296 29.877 0.652 14.938 0 0 Z " fill="#D9D600" transform="translate(312,225)"/>
<path d="M0 0 C1.367 -0.011 2.734 -0.032 4.101 -0.062 C16.128 -0.322 27.894 1.178 37.941 8.295 C42.233 12.449 44.698 16.615 45.242 22.6 C45.277 33.296 43.841 38.53 36.758 46.596 C34.915 48.32 33.246 49.298 30.941 50.295 C32.511 53.954 34.773 56.55 37.441 59.483 C38.235 60.363 39.03 61.244 39.848 62.151 C41.941 64.295 41.941 64.295 43.941 65.295 C43.941 65.955 43.941 66.615 43.941 67.295 C41.036 68.696 38.116 70.061 35.191 71.42 C34.366 71.818 33.541 72.217 32.691 72.627 C32.292 72.811 32.292 72.811 30.27 73.74 C29.536 74.086 28.803 74.432 28.048 74.788 C25.941 75.295 25.941 75.295 23.816 74.592 C20.782 72.494 19.14 69.39 17.254 66.295 C16.851 65.653 16.448 65.011 16.033 64.35 C14.588 62.035 13.163 59.738 11.941 57.295 C11.611 61.915 11.281 66.535 10.941 71.295 C1.701 71.295 -7.539 71.295 -17.059 71.295 C-17.191 68.085 -17.324 64.876 -17.461 61.569 C-17.593 58.378 -17.726 55.187 -17.858 51.996 C-17.948 49.818 -18.039 47.64 -18.129 45.463 C-18.737 30.738 -19.377 16.016 -20.059 1.295 C-13.344 0.231 -6.788 0.039 0 0 Z " fill="#D9D600" transform="translate(458.05859375,223.704833984375)"/>
<path d="M0 0 C1.212 -0.021 2.425 -0.041 3.674 -0.062 C16.147 -0.116 28.234 1.771 37.758 10.406 C43.599 16.818 45.227 23.598 44.855 32.137 C43.825 39.811 40.114 46.036 34.438 51.25 C27.655 56.251 20.643 57.538 12.438 57.25 C12.107 61.87 11.778 66.49 11.438 71.25 C2.528 71.25 -6.383 71.25 -15.562 71.25 C-15.955 63.312 -16.347 55.373 -16.735 47.435 C-16.916 43.737 -17.097 40.04 -17.281 36.343 C-17.458 32.777 -17.632 29.211 -17.806 25.644 C-17.904 23.633 -18.005 21.621 -18.105 19.609 C-18.402 13.482 -18.644 7.385 -18.562 1.25 C-12.412 -0.168 -6.283 0.026 0 0 Z " fill="#D9D600" transform="translate(521.5625,223.75)"/>
<path d="M0 0 C9.9 0 19.8 0 30 0 C30.736 3.256 31.472 6.512 32.23 9.867 C32.961 13.085 33.693 16.302 34.425 19.519 C34.926 21.724 35.425 23.929 35.923 26.134 C38.529 37.676 41.152 49.179 44.518 60.527 C45.497 63.878 46 66.467 46 70 C37.09 70 28.18 70 19 70 C18.67 68.02 18.34 66.04 18 64 C17.229 64.505 16.458 65.011 15.664 65.531 C15.163 65.856 15.163 65.856 12.625 67.5 C12.126 67.825 12.126 67.825 9.602 69.469 C7 71 7 71 5 71 C4.505 69.515 4.505 69.515 2 62 C1.34 62 0.68 62 0 62 C-0.072 62.567 -0.072 62.567 -0.438 65.438 C-1 69 -1 69 -2 70 C-4.353 70.073 -6.708 70.084 -9.062 70.062 C-9.708 70.058 -9.708 70.058 -12.973 70.035 C-13.972 70.024 -14.971 70.012 -16 70 C-14.004 60.488 -11.79 51.098 -9.125 41.75 C-5.234 28.004 -2.702 14.023 0 0 Z " fill="#D9D600" transform="translate(579,225)"/>
<path d="M0 0 C16.83 0 33.66 0 51 0 C50 21 50 21 49 29 C43.39 28.67 37.78 28.34 32 28 C32 30.64 32 33.28 32 36 C37.61 36 43.22 36 49 36 C48.01 39.96 47.02 43.92 46 48 C41.05 48 36.1 48 31 48 C31 50.97 31 53.94 31 57 C37.27 56.67 43.54 56.34 50 56 C49 62 49 62 47 70 C32.48 70 17.96 70 3 70 C2.279 57.735 1.723 45.518 1.395 33.244 C1.198 26.489 0.891 19.792 0.201 13.068 C-0.084 8.721 0 4.356 0 0 Z " fill="#D9D600" transform="translate(386,225)"/>
<path d="M0 0 C5.799 0.752 10.307 4.004 14.25 8.25 C17.824 13.611 18.834 19.007 18.375 25.438 C18.045 26.098 17.715 26.757 17.375 27.438 C18.076 27.463 18.778 27.489 19.5 27.516 C26.838 27.954 33.107 28.959 38.312 34.5 C40.605 38.68 40.88 42.77 40.375 47.438 C39.188 50.062 39.188 50.062 37.375 52.438 C36.694 53.428 36.014 54.418 35.312 55.438 C31.792 59.512 27.279 61.424 22.375 63.438 C21.416 63.833 20.457 64.229 19.469 64.637 C8.043 68.748 -5.483 69.723 -16.777 64.703 C-20.931 61.858 -22.237 58.137 -23.625 53.438 C-23.955 53.438 -24.285 53.438 -24.625 53.438 C-24.87 46.691 -24.088 40.95 -22.375 34.438 C-22.17 33.6 -21.965 32.762 -21.754 31.898 C-18.712 19.988 -13.587 10.902 -4.625 2.438 C-2.625 0.438 -2.625 0.438 0 0 Z " fill="#2F2F19" transform="translate(434.625,402.5625)"/>
<path d="M0 0 C0.355 -0 0.355 -0 2.152 -0.002 C7.454 0.051 12.196 0.726 17.312 2.188 C17.977 11.536 18.472 20.809 18.312 30.188 C17.034 30.311 15.755 30.435 14.438 30.562 C10.562 30.938 10.562 30.938 8.312 33.188 C7.186 38.821 9.953 42.379 12.902 46.918 C15.536 51.156 15.932 55.31 15.312 60.188 C12.778 66.418 9.279 69.223 3.312 72.188 C0.298 73.192 -1.729 73.291 -4.875 73.25 C-5.326 73.245 -5.326 73.245 -7.605 73.223 C-8.293 73.211 -8.98 73.199 -9.688 73.188 C-10.692 71.232 -11.691 69.273 -12.688 67.312 C-12.966 66.767 -12.966 66.767 -14.375 64.008 C-15.688 61.188 -15.688 61.188 -15.688 59.188 C-13.048 58.528 -10.408 57.868 -7.688 57.188 C-7.351 53.575 -7.3 51.748 -9.398 48.715 C-11.64 46.24 -13.871 44.4 -16.562 42.438 C-22.663 37.573 -27.007 33.511 -28.258 25.562 C-28.522 19.764 -28.607 14.523 -25.312 9.562 C-18.596 2.222 -9.55 -0.009 0 0 Z " fill="#D8D500" transform="translate(292.6875,222.8125)"/>
<path d="M0 0 C-0.309 1.031 -0.619 2.062 -0.938 3.125 C-1.969 11.18 4.491 20.136 8.938 26.438 C9.929 27.649 10.951 28.837 12 30 C12.606 30.683 13.212 31.366 13.836 32.07 C18.611 36.883 18.611 36.883 22.512 37.211 C24.749 36.965 26.832 36.597 29 36 C29.33 36.66 29.66 37.32 30 38 C29.01 38.99 28.02 39.98 27 41 C27.603 40.881 28.207 40.763 28.828 40.641 C31.266 40.247 33.529 39.953 36 40 C38.562 41.938 38.562 41.938 40 44 C39.67 44.99 39.34 45.98 39 47 C39 46.34 39 45.68 39 45 C37.02 45 35.04 45 33 45 C33.165 45.825 33.165 45.825 34 50 C34.99 49.835 34.99 49.835 40 49 C39.427 51.867 39.139 52.861 37 55 C33.145 55.428 30.872 55.559 27.562 53.438 C25.475 50.181 25.708 47.79 26 44 C24.68 44 23.36 44 22 44 C21.67 43.34 21.34 42.68 21 42 C17.577 43.417 15.815 44.748 14 48 C13.763 50.985 13.694 53.735 13.785 56.711 C13.802 57.557 13.819 58.402 13.837 59.274 C13.877 61.061 13.925 62.848 13.981 64.635 C14.062 67.358 14.106 70.08 14.146 72.805 C14.19 74.544 14.237 76.284 14.285 78.023 C14.296 78.833 14.306 79.643 14.317 80.477 C14.347 81.244 14.376 82.012 14.406 82.802 C14.424 83.47 14.442 84.137 14.461 84.825 C15.797 90.215 19.952 94.199 23.781 98.008 C24.242 98.469 24.702 98.93 25.177 99.405 C26.685 100.912 28.2 102.411 29.715 103.91 C30.774 104.965 31.832 106.021 32.89 107.077 C35.667 109.846 38.45 112.61 41.234 115.372 C44.058 118.174 46.875 120.983 49.693 123.791 C54.659 128.737 59.629 133.679 64.603 138.617 C67.88 141.875 71.151 145.138 74.395 148.43 C78.282 152.362 82.169 156.22 86.375 159.812 C89.296 162.308 91.73 164.878 94 168 C93.67 168.66 93.34 169.32 93 170 C93.562 170.236 94.123 170.471 94.702 170.714 C97.543 172.304 99.478 174.253 101.766 176.57 C102.655 177.466 103.545 178.362 104.461 179.285 C105.381 180.222 106.302 181.159 107.25 182.125 C108.195 183.08 109.14 184.034 110.086 184.988 C112.395 187.321 114.7 189.658 117 192 C114.771 189.21 112.542 186.425 110.25 183.688 C109.507 182.801 108.765 181.914 108 181 C111.452 182.477 113.65 184.438 116.25 187.125 C116.956 187.849 117.663 188.574 118.391 189.32 C118.656 189.597 118.656 189.597 120 191 C123.099 189.621 125.241 188.03 127.625 185.625 C128.215 185.04 128.806 184.455 129.414 183.852 C131.009 181.99 132.007 180.232 133 178 C134.779 184.642 134.779 184.642 132.754 188.172 C129.071 192.535 125.315 195.874 120 198 C115.098 196.946 112.486 194.96 109.062 191.375 C108.666 190.966 108.666 190.966 106.66 188.898 C104.667 186.727 102.732 184.536 100.81 182.303 C97.155 178.121 93.312 174.167 89.379 170.246 C88.675 169.542 87.972 168.837 87.247 168.111 C85.77 166.633 84.292 165.157 82.812 163.682 C80.568 161.443 78.33 159.199 76.092 156.955 C74.646 155.51 73.2 154.065 71.754 152.621 C71.095 151.96 70.437 151.3 69.758 150.619 C65.913 146.793 61.965 143.145 57.851 139.609 C54.585 136.77 51.457 133.784 48.312 130.812 C46.907 129.489 45.5 128.166 44.094 126.844 C43.403 126.194 42.712 125.544 42 124.875 C39.118 122.173 36.218 119.49 33.312 116.812 C32.794 116.334 32.276 115.855 31.741 115.362 C28.997 112.831 26.244 110.311 23.48 107.801 C23.189 107.535 23.189 107.535 21.716 106.19 C20.613 105.184 19.508 104.182 18.4 103.183 C8.786 94.394 7.865 87.616 6.938 74.812 C6.892 74.222 6.892 74.222 6.662 71.232 C6.411 67.823 6.193 64.413 6 61 C5.942 60.037 5.883 59.074 5.823 58.081 C5.644 52.991 5.788 49.994 9.375 46.062 C10.001 45.352 10.628 44.642 11.273 43.91 C11.843 43.28 12.413 42.649 13 42 C13.66 41.01 14.32 40.02 15 39 C14.492 38.622 13.984 38.245 13.461 37.855 C8.175 33.629 5.327 29.505 2.52 23.355 C1 21 1 21 -1.562 20.016 C-4 19 -4 19 -5.145 16.504 C-5.365 15.533 -5.585 14.563 -5.812 13.562 C-6.046 12.594 -6.279 11.626 -6.52 10.629 C-7 8 -7 8 -7 5 C-6.34 5 -5.68 5 -5 5 C-4.876 4.361 -4.752 3.721 -4.625 3.062 C-4.419 2.382 -4.212 1.701 -4 1 C-2 0 -2 0 0 0 Z " fill="#03090C" transform="translate(279,276)"/>
<path d="M0 0 C4.387 1.386 6.841 3.454 9.562 7.125 C11.686 13.497 10.697 20.599 9.562 27.125 C12.863 26.795 16.163 26.465 19.562 26.125 C19.562 25.795 19.562 25.465 19.562 25.125 C25.715 25.711 25.715 25.711 27.562 26.125 C27.728 26.455 27.728 26.455 28.562 28.125 C27.243 28.125 25.923 28.125 24.562 28.125 C25.161 28.352 25.759 28.579 26.375 28.812 C29.285 30.559 30.243 31.999 31.562 35.125 C31.25 38.938 31.25 38.938 30.562 42.125 C29.903 42.125 29.243 42.125 28.562 42.125 C28.562 41.465 28.562 40.805 28.562 40.125 C27.572 40.29 27.572 40.29 22.562 41.125 C22.562 42.445 22.562 43.765 22.562 45.125 C21.572 44.96 21.572 44.96 16.562 44.125 C16.562 46.105 16.562 48.085 16.562 50.125 C14.424 47.986 14.136 46.992 13.562 44.125 C13.233 46.765 12.903 49.405 12.562 52.125 C12.233 51.96 12.233 51.96 10.562 51.125 C10.229 49.125 9.896 47.125 9.562 45.125 C8.902 44.795 8.243 44.465 7.562 44.125 C7.562 43.135 7.562 42.145 7.562 41.125 C6.902 41.125 6.243 41.125 5.562 41.125 C5.562 44.755 5.562 48.385 5.562 52.125 C3.165 49.727 3.22 48.792 2.938 45.5 C2.863 44.683 2.788 43.865 2.711 43.023 C2.662 42.397 2.613 41.77 2.562 41.125 C1.902 41.125 1.243 41.125 0.562 41.125 C0.562 44.755 0.562 48.385 0.562 52.125 C-1.438 48.125 -1.438 48.125 -1.875 45.062 C-2.487 41.865 -3.131 41.231 -5.438 39.125 C-5.438 38.135 -5.438 37.145 -5.438 36.125 C-6.428 36.785 -7.418 37.445 -8.438 38.125 C-8.949 40.945 -8.949 40.945 -9.125 44.25 C-9.191 45.346 -9.256 46.441 -9.324 47.57 C-9.362 48.413 -9.399 49.256 -9.438 50.125 C-9.767 50.125 -10.098 50.125 -10.438 50.125 C-11.098 45.835 -11.757 41.545 -12.438 37.125 C-12.767 41.085 -13.098 45.045 -13.438 49.125 C-13.767 49.125 -14.098 49.125 -14.438 49.125 C-15.098 43.515 -15.757 37.905 -16.438 32.125 C-16.767 32.95 -16.767 32.95 -18.438 37.125 C-18.767 37.125 -19.098 37.125 -19.438 37.125 C-21.712 26.036 -16.23 15.528 -10.281 6.395 C-7.216 2.621 -4.971 0.181 0 0 Z " fill="#D3D001" transform="translate(438.4375,407.875)"/>
<path d="M0 0 C0.619 0.082 0.619 0.082 3.75 0.5 C9.477 1.045 15.248 1 21 1 C21 9.25 21 17.5 21 26 C17.7 26 14.4 26 11 26 C10 25 10 25 9.886 22.959 C9.892 22.084 9.897 21.21 9.902 20.309 C9.906 19.364 9.909 18.42 9.912 17.447 C9.92 16.454 9.929 15.461 9.938 14.438 C9.942 13.44 9.947 12.443 9.951 11.416 C9.963 8.944 9.979 6.472 10 4 C9.34 4 8.68 4 8 4 C7.732 4.887 7.464 5.774 7.188 6.688 C6 10 6 10 4.312 12.625 C3 15 3 15 3.062 17 C4.322 19.686 6.071 21.76 8 24 C2.375 27 2.375 27 -1 27 C-2.688 24.5 -2.688 24.5 -4 22 C-4.33 23.32 -4.66 24.64 -5 26 C-8.3 26 -11.6 26 -15 26 C-15 17.75 -15 9.5 -15 1 C-11.37 1 -7.74 1 -4 1 C-3.67 2.98 -3.34 4.96 -3 7 C-2.01 4.69 -1.02 2.38 0 0 Z " fill="#D6D300" transform="translate(473,306)"/>
<path d="M0 0 C3.35 1.452 5.505 3.282 8.047 5.887 C8.81 6.661 9.573 7.435 10.359 8.232 C11.148 9.043 11.937 9.853 12.75 10.688 C21.536 19.672 21.536 19.672 25.766 23.27 C32.465 29.018 38.527 35.474 44.728 41.748 C56.204 53.348 56.204 53.348 62.193 58.447 C65.48 61.272 68.602 64.274 71.75 67.25 C76.58 71.797 81.422 76.33 86.312 80.812 C86.782 81.248 86.782 81.248 89.16 83.449 C91.141 85.228 93.113 86.918 95.184 88.582 C102.447 94.605 102.447 94.605 103.93 98.344 C104.324 102.946 102.835 105.693 99.938 109.188 C96.493 112.695 92.807 115.892 89 119 C88.591 115.122 88.673 113.46 90.969 110.227 C91.804 109.368 92.639 108.51 93.5 107.625 C94.335 106.751 95.171 105.877 96.031 104.977 C96.681 104.324 97.331 103.672 98 103 C93.771 97.946 89.348 93.226 84.66 88.598 C83.975 87.916 83.29 87.235 82.584 86.533 C79.683 83.648 76.777 80.77 73.87 77.891 C71.736 75.774 69.604 73.655 67.473 71.535 C66.828 70.898 66.183 70.262 65.518 69.606 C61.726 65.834 58.158 61.935 54.662 57.887 C52.252 55.151 49.693 52.587 47.094 50.031 C46.565 49.507 46.037 48.982 45.493 48.442 C43.831 46.792 42.166 45.145 40.5 43.5 C27.415 30.575 27.415 30.575 22.476 24.652 C20.21 22.116 17.63 19.981 15.039 17.785 C12.907 15.919 10.923 13.958 8.938 11.938 C5.455 8.4 1.813 5.177 -2 2 C-1.34 1.34 -0.68 0.68 0 0 Z " fill="#000C11" transform="translate(363,303)"/>
<path d="M0 0 C0.99 2.31 1.98 4.62 3 7 C3.366 6.567 3.732 6.134 4.109 5.688 C7 2.715 8.931 1.136 13.137 0.602 C16.111 0.623 19.037 0.737 22 1 C22 4.3 22 7.6 22 11 C20.866 11.309 19.731 11.619 18.562 11.938 C15 13 15 13 14 14 C13.75 16.438 13.75 16.438 14 19 C17.228 21.152 18.284 21.201 22 21 C21.34 22.98 20.68 24.96 20 27 C13.93 27.419 10.798 27.143 6 23 C3.282 19.709 2.067 17.904 1.75 13.625 C1.832 12.759 1.915 11.892 2 11 C0.68 11 -0.64 11 -2 11 C-1.67 11.846 -1.34 12.691 -1 13.562 C0.079 17.273 0.37 20.157 0 24 C-3.204 26.136 -4.019 26.231 -7.688 26.125 C-8.496 26.107 -9.304 26.089 -10.137 26.07 C-10.752 26.047 -11.366 26.024 -12 26 C-12 24.35 -12 22.7 -12 21 C-10.68 21 -9.36 21 -8 21 C-8 19.68 -8 18.36 -8 17 C-8.598 16.752 -9.196 16.505 -9.812 16.25 C-12.445 14.746 -13.554 13.675 -15 11 C-15.562 7.5 -15.562 7.5 -15 4 C-10.448 -0.552 -6.044 -0.484 0 0 Z " fill="#D3D000" transform="translate(518,306)"/>
<path d="M0 0 C3.96 0 7.92 0 12 0 C12 4.95 12 9.9 12 15 C12.99 15 13.98 15 15 15 C15 10.05 15 5.1 15 0 C18.63 0 22.26 0 26 0 C26.113 8.387 25.683 16.641 25 25 C22.03 25 19.06 25 16 25 C16 23.35 16 21.7 16 20 C15.01 20.33 14.02 20.66 13 21 C12.67 20.67 12.34 20.34 12 20 C11.67 21.65 11.34 23.3 11 25 C7.7 25 4.4 25 1 25 C0.67 16.75 0.34 8.5 0 0 Z " fill="#D7D400" transform="translate(541,307)"/>
<path d="M0 0 C1.98 0 3.96 0 6 0 C6 4.29 6 8.58 6 13 C9.96 11.02 13.92 9.04 18 7 C20 9 20 9 20 12 C18.545 12.838 17.086 13.671 15.625 14.5 C14.813 14.964 14.001 15.428 13.164 15.906 C11 17 11 17 9 17 C9 17.66 9 18.32 9 19 C9.701 19.268 10.403 19.536 11.125 19.812 C14.165 21.068 17.073 22.502 20 24 C19.835 24.825 19.835 24.825 19 29 C14.582 28.055 11 26.067 7 24 C6.67 27.96 6.34 31.92 6 36 C4.02 36 2.04 36 0 36 C0 31.71 0 27.42 0 23 C-1.753 24.011 -3.506 25.021 -5.312 26.062 C-8.301 27.785 -8.301 27.785 -11 29 C-11.99 28.67 -12.98 28.34 -14 28 C-14.688 25.938 -14.688 25.938 -15 24 C-14.29 23.662 -13.579 23.325 -12.848 22.977 C-11.929 22.531 -11.009 22.085 -10.062 21.625 C-9.146 21.184 -8.229 20.743 -7.285 20.289 C-5 19 -5 19 -4 17 C-4.701 16.732 -5.403 16.464 -6.125 16.188 C-9.165 14.932 -12.073 13.498 -15 12 C-14.34 10.35 -13.68 8.7 -13 7 C-10.855 7.99 -10.855 7.99 0 13 C0 8.71 0 4.42 0 0 Z " fill="#CFCC00" transform="translate(176,256)"/>
<path d="M0 0 C2.468 1.152 4.048 2.048 6 4 C6.012 6.312 6.012 6.312 5.688 9 C5.588 9.887 5.489 10.774 5.387 11.688 C5 14 5 14 4 16 C5.052 15.67 6.104 15.34 7.188 15 C12.91 13.499 12.91 13.499 16 14 C18.312 16 18.312 16 20 18 C18.607 21.152 16.975 23.262 14.523 25.672 C13.853 26.336 13.183 27 12.492 27.684 C11.794 28.366 11.095 29.047 10.375 29.75 C9.669 30.447 8.962 31.145 8.234 31.863 C6.494 33.58 4.749 35.292 3 37 C-0.875 35.232 -0.875 35.232 -1.996 33.141 C-2 31 -2 31 -0.348 28.859 C0.029 28.511 0.029 28.511 1.938 26.75 C2.689 26.044 3.441 25.337 4.215 24.609 C4.804 24.078 5.393 23.547 6 23 C4.35 23.165 4.35 23.165 -4 24 C-3.67 20.7 -3.34 17.4 -3 14 C-5.97 16.97 -8.94 19.94 -12 23 C-13.65 21.68 -15.3 20.36 -17 19 C-15.607 15.848 -13.975 13.738 -11.523 11.328 C-11.188 10.996 -11.188 10.996 -9.492 9.316 C-8.794 8.634 -8.095 7.953 -7.375 7.25 C-6.669 6.553 -5.962 5.855 -5.234 5.137 C-3.494 3.42 -1.749 1.708 0 0 Z " fill="#F7FCFE" transform="translate(378,374)"/>
<path d="M0 0 C1.65 0 3.3 0 5 0 C5.33 3.96 5.66 7.92 6 12 C7.403 11.154 8.805 10.309 10.25 9.438 C14.368 6.955 14.368 6.955 17.234 7.16 C17.526 7.299 17.526 7.299 19 8 C19.165 8.495 19.165 8.495 20 11 C16.37 12.98 12.74 14.96 9 17 C11.629 18.972 13.931 20.615 16.75 22.188 C17.822 22.786 18.895 23.384 20 24 C19.34 25.32 18.68 26.64 18 28 C13.245 27.424 10.03 25.449 6 23 C5.67 27.29 5.34 31.58 5 36 C3.35 36 1.7 36 0 36 C-1 35 -1 35 -1.098 32.277 C-1.086 31.175 -1.074 30.073 -1.062 28.938 C-1.053 27.833 -1.044 26.728 -1.035 25.59 C-1.024 24.735 -1.012 23.881 -1 23 C-1.338 23.186 -1.338 23.186 -3.047 24.129 C-3.939 24.602 -4.831 25.075 -5.75 25.562 C-6.632 26.038 -7.513 26.514 -8.422 27.004 C-11 28 -11 28 -13.266 27.84 C-13.838 27.563 -14.41 27.286 -15 27 C-15.33 26.01 -15.66 25.02 -16 24 C-12.37 22.02 -8.74 20.04 -5 18 C-7.629 16.028 -9.931 14.385 -12.75 12.812 C-13.822 12.214 -14.895 11.616 -16 11 C-15.34 9.68 -14.68 8.36 -14 7 C-8.54 7.844 -4.742 10.24 0 13 C0 8.71 0 4.42 0 0 Z " fill="#CECB00" transform="translate(197,221)"/>
<path d="M0 0 C3.736 1.66 5.867 3.537 8 7 C8.803 12.193 9.127 18.03 6.25 22.625 C2.977 26.08 1.345 26.826 -3.375 27.438 C-8.238 26.851 -9.602 25.477 -13 22 C-15.892 17.346 -15.774 12.303 -15 7 C-11.626 0.528 -6.932 -0.747 0 0 Z " fill="#D6D300" transform="translate(583,306)"/>
<path d="M0 0 C3.733 1.659 5.875 3.534 8 7 C8.398 9.84 8.398 9.84 8.375 12.938 C8.383 13.957 8.39 14.977 8.398 16.027 C7.811 20.411 6.172 23.056 2.75 25.812 C-0.843 27.364 -3.116 27.545 -7 27 C-10.767 24.833 -13.394 22.045 -15 18 C-15.629 13.614 -16.044 9.002 -13.949 4.984 C-9.862 0.017 -6.215 -0.669 0 0 Z " fill="#D6D300" transform="translate(607,306)"/>
<path d="M0 0 C1.65 0 3.3 0 5 0 C5.33 4.29 5.66 8.58 6 13 C7.609 12.01 9.218 11.02 10.875 10 C15.75 7 15.75 7 18 7 C18.66 8.65 19.32 10.3 20 12 C18.545 12.838 17.086 13.671 15.625 14.5 C14.813 14.964 14.001 15.428 13.164 15.906 C11 17 11 17 9 17 C11.185 19.406 13.259 20.795 16.188 22.188 C16.903 22.532 17.618 22.876 18.355 23.23 C18.627 23.357 18.627 23.357 20 24 C19.34 25.65 18.68 27.3 18 29 C13.173 27.587 9.284 25.57 5 23 C5 27.29 5 31.58 5 36 C3.35 36 1.7 36 0 36 C0 31.71 0 27.42 0 23 C-2.145 23.99 -2.145 23.99 -13 29 C-13.66 28.34 -14.32 27.68 -15 27 C-15 26.01 -15 25.02 -15 24 C-13.545 23.162 -12.086 22.329 -10.625 21.5 C-10.219 21.268 -10.219 21.268 -8.164 20.094 C-6 19 -6 19 -4 19 C-4 18.34 -4 17.68 -4 17 C-4.887 16.732 -5.774 16.464 -6.688 16.188 C-9.769 15.083 -12.262 13.772 -15 12 C-14.625 10.062 -14.625 10.062 -14 8 C-13.34 7.67 -12.68 7.34 -12 7 C-8.201 8.774 -4.646 10.923 -1 13 C-0.67 8.71 -0.34 4.42 0 0 Z " fill="#D4D100" transform="translate(217,256)"/>
<path d="M0 0 C5.893 2.709 11.36 6.716 13.746 12.949 C15.001 17.492 16.184 22.631 14 27 C14.701 27.026 15.403 27.052 16.125 27.078 C23.463 27.517 29.732 28.522 34.938 34.062 C37.231 38.244 37.502 42.332 37 47 C35.221 51.213 33.028 52.931 29 55 C29 54.34 29 53.68 29 53 C28.01 53.33 27.02 53.66 26 54 C25.67 53.01 25.34 52.02 25 51 C25.99 50.67 26.98 50.34 28 50 C28.66 49.67 29.32 49.34 30 49 C31.028 44.989 31.235 41.104 30.375 37.062 C28.615 34.422 27 33.868 24 33 C24.66 32.835 24.66 32.835 28 32 C26.35 31.67 24.7 31.34 23 31 C23 31.33 23 31.66 23 32 C18.71 32 14.42 32 10 32 C10.035 30.831 10.07 29.662 10.105 28.457 C10.134 26.909 10.161 25.361 10.188 23.812 C10.213 23.044 10.238 22.275 10.264 21.482 C10.324 16.785 10.002 13.84 7 10 C4.517 7.583 2.915 6.183 -0.5 5.5 C-5.181 6.436 -7.48 9.25 -10.125 13.062 C-10.744 14.032 -11.363 15.001 -12 16 C-12.239 16.219 -12.239 16.219 -13.449 17.328 C-15.513 19.554 -16.479 21.912 -17.688 24.688 C-18.124 25.681 -18.561 26.675 -19.012 27.699 C-19.175 28.079 -19.175 28.079 -20 30 C-21 27 -21 27 -19.785 24.117 C-19.217 23.047 -18.648 21.977 -18.062 20.875 C-15 15.057 -15 15.057 -15 14 C-15.22 13.393 -15.441 12.786 -15.668 12.16 C-16 10 -16 10 -14.926 8.184 C-6.448 -0.992 -6.448 -0.992 0 0 Z " fill="#28281A" transform="translate(438,403)"/>
<path d="M0 0 C4.689 1.423 7.516 4.157 10.812 7.625 C11.064 7.883 11.064 7.883 12.334 9.188 C13.563 10.452 14.782 11.725 16 13 C15.34 14.32 14.68 15.64 14 17 C10 17 10 17 8.078 15.469 C7.475 14.819 6.872 14.169 6.25 13.5 C5.636 12.85 5.023 12.201 4.391 11.531 C3.932 11.026 3.473 10.521 3 10 C2.01 10.33 1.02 10.66 0 11 C0.41 11.471 0.82 11.941 1.242 12.426 C1.781 13.048 2.32 13.671 2.875 14.312 C3.409 14.927 3.942 15.542 4.492 16.176 C6 18 6 18 8 21 C7.01 21.99 6.02 22.98 5 24 C1.172 22.441 -1.111 19.889 -4 17 C-4.66 17 -5.32 17 -6 17 C-5.444 20.599 -4.251 21.999 -1.438 24.25 C-0.797 24.771 -0.156 25.292 0.504 25.828 C0.998 26.215 1.491 26.602 2 27 C1.34 28.32 0.68 29.64 0 31 C-4 31 -4 31 -6.727 28.629 C-7.703 27.617 -8.669 26.594 -9.625 25.562 C-14.815 20.092 -14.815 20.092 -17 19 C-15.607 15.848 -13.975 13.738 -11.523 11.328 C-11.188 10.996 -11.188 10.996 -9.492 9.316 C-8.794 8.634 -8.095 7.953 -7.375 7.25 C-6.669 6.553 -5.962 5.855 -5.234 5.137 C-3.494 3.42 -1.749 1.708 0 0 Z " fill="#F5FBFD" transform="translate(401,397)"/>
<path d="M0 0 C1.65 1.32 3.3 2.64 5 4 C3.543 7.451 1.652 9.396 -1.125 11.875 C-4.935 15.548 -4.935 15.548 -5.5 19.5 C-5.335 20.325 -5.17 21.15 -5 22 C-2.75 22.699 -2.75 22.699 0 23 C2.062 21.707 2.062 21.707 4 19.812 C4.681 19.168 5.361 18.523 6.062 17.859 C6.702 17.246 7.341 16.632 8 16 C9.657 14.654 11.318 13.314 13 12 C14.32 12.99 15.64 13.98 17 15 C16.571 19.405 13.586 21.787 10.562 24.688 C10.059 25.186 9.556 25.684 9.037 26.197 C5.069 30.082 2.865 31.47 -2.832 31.418 C-6.795 30.654 -9.447 28.008 -12 25 C-13.65 22.231 -13.999 21.067 -14.062 17.75 C-12.601 12.591 -9.722 9.745 -6 6 C-5.407 5.393 -4.814 4.786 -4.203 4.16 C-2.817 2.758 -1.411 1.377 0 0 Z " fill="#F9FCFE" transform="translate(330,326)"/>
<path d="M0 0 C-0.309 1.031 -0.619 2.062 -0.938 3.125 C-1.969 11.18 4.491 20.136 8.938 26.438 C9.929 27.649 10.951 28.837 12 30 C12.606 30.683 13.212 31.366 13.836 32.07 C18.611 36.883 18.611 36.883 22.512 37.211 C24.749 36.965 26.832 36.597 29 36 C29.33 36.66 29.66 37.32 30 38 C29.01 38.99 28.02 39.98 27 41 C27.603 40.881 28.207 40.763 28.828 40.641 C31.266 40.247 33.529 39.953 36 40 C38.562 41.938 38.562 41.938 40 44 C39.67 44.99 39.34 45.98 39 47 C39 46.34 39 45.68 39 45 C37.02 45 35.04 45 33 45 C33.165 45.825 33.165 45.825 34 50 C34.99 49.835 34.99 49.835 40 49 C39.427 51.867 39.139 52.861 37 55 C33.145 55.428 30.872 55.559 27.562 53.438 C25.475 50.181 25.708 47.79 26 44 C24.68 44 23.36 44 22 44 C20.488 42.641 20.488 42.641 19 41 C17.747 40.22 16.475 39.471 15.188 38.75 C8.717 34.773 4.925 29.72 2.152 22.699 C1 21 1 21 -1.508 20.109 C-4 19 -4 19 -5.145 16.504 C-5.365 15.533 -5.585 14.563 -5.812 13.562 C-6.046 12.594 -6.279 11.626 -6.52 10.629 C-7 8 -7 8 -7 5 C-6.34 5 -5.68 5 -5 5 C-4.876 4.361 -4.752 3.721 -4.625 3.062 C-4.419 2.382 -4.212 1.701 -4 1 C-2 0 -2 0 0 0 Z " fill="#1E211D" transform="translate(279,276)"/>
<path d="M0 0 C4.076 2.39 7.166 4.518 8.938 9.059 C9.125 12.371 9.125 12.371 8.938 15.059 C6.627 15.059 4.317 15.059 1.938 15.059 C1.628 14.089 1.319 13.12 1 12.121 C-0.062 9.059 -0.062 9.059 -1.062 8.059 C-4.438 7.746 -4.438 7.746 -8.062 8.059 C-10.062 9.746 -10.062 9.746 -11.062 12.059 C-10.822 15.429 -10.475 16.647 -8.062 19.059 C-5.438 19.684 -5.438 19.684 -3.062 20.059 C-2.733 22.369 -2.402 24.679 -2.062 27.059 C-7.839 26.807 -11.953 26.531 -16.062 22.059 C-18.908 17.644 -19.715 14.282 -19.062 9.059 C-15.187 1.862 -8.495 -3.877 0 0 Z " fill="#EDF8FD" transform="translate(356.0625,350.94140625)"/>
<path d="M0 0 C3.393 2.769 4.65 4.194 5.473 8.441 C5.738 13.003 5.543 15.276 2.75 19 C-2.112 22.536 -4.825 23.532 -11 23 C-14.595 21.548 -17.57 20.07 -20 17 C-21.627 12.12 -21.672 8.456 -19.5 3.75 C-14.036 -2.261 -7.409 -3.282 0 0 Z M-12 3 C-8.7 3.33 -5.4 3.66 -2 4 C-2.33 3.34 -2.66 2.68 -3 2 C-8.391 0.594 -8.391 0.594 -12 3 Z M-14 3 C-16.5 5.5 -16.993 6.941 -17.438 10.5 C-17 14 -17 14 -13 18 C-13 13.05 -13 8.1 -13 3 C-13.33 3 -13.66 3 -14 3 Z M-2 4 C-2.144 5.114 -2.289 6.227 -2.438 7.375 C-3 11 -3 11 -4 13 C-2.68 14.32 -1.36 15.64 0 17 C1.904 14.2 1.992 12.842 1.812 9.375 C1 6 1 6 -2 4 Z M-10 6 C-10 6.99 -10 7.98 -10 9 C-8.35 9 -6.7 9 -5 9 C-5.33 8.01 -5.66 7.02 -6 6 C-7.32 6 -8.64 6 -10 6 Z M-10 12 C-10 13.98 -10 15.96 -10 18 C-10.33 18.165 -10.33 18.165 -12 19 C-8.625 19.625 -8.625 19.625 -5 20 C-4.34 19.34 -3.68 18.68 -3 18 C-3.66 18 -4.32 18 -5 18 C-5.268 17.196 -5.536 16.391 -5.812 15.562 C-6.008 15.14 -6.008 15.14 -7 13 C-7.99 12.67 -8.98 12.34 -10 12 Z " fill="#11100D" transform="translate(647,209)"/>
<path d="M0 0 C0 3.63 0 7.26 0 11 C-0.99 11.33 -1.98 11.66 -3 12 C-2.67 12.701 -2.34 13.402 -2 14.125 C-0.881 17.342 -0.632 19.618 -1 23 C-2.227 24.668 -2.227 24.668 -4 26 C-6.262 26.293 -6.262 26.293 -8.688 26.188 C-9.496 26.16 -10.304 26.133 -11.137 26.105 C-11.752 26.071 -12.366 26.036 -13 26 C-13.33 24.35 -13.66 22.7 -14 21 C-12.35 21 -10.7 21 -9 21 C-10.561 18.268 -12.048 15.948 -14.188 13.625 C-16.608 10.119 -16.758 8.17 -16 4 C-11.199 -0.928 -6.446 -0.348 0 0 Z " fill="#D3D000" transform="translate(456,306)"/>
<path d="M0 0 C3.96 0 7.92 0 12 0 C12.086 6.788 11.883 13.271 11 20 C13.31 20 15.62 20 18 20 C17.67 21.65 17.34 23.3 17 25 C11.72 25 6.44 25 1 25 C0.67 16.75 0.34 8.5 0 0 Z " fill="#D8D500" transform="translate(616,307)"/>
<path d="M0 0 C0.317 3.312 0.629 6.625 0.938 9.938 C1.031 10.931 1.125 11.925 1.221 12.949 C1.651 17.643 2.045 22.326 2.25 27.035 C2.284 27.794 2.317 28.553 2.352 29.334 C2.433 31.379 2.496 33.424 2.559 35.469 C3.39 42.117 6.48 45.863 11.188 50.438 C11.676 50.915 12.164 51.392 12.667 51.884 C16.039 55.154 19.524 58.266 23.094 61.316 C26.56 64.377 29.76 67.704 33 71 C33.978 71.959 34.957 72.918 35.938 73.875 C38 76 38 76 39 78 C35.6 77.423 34.073 76.39 31.75 73.875 C28.743 70.645 25.496 67.788 22.167 64.9 C18.628 61.797 15.187 58.59 11.75 55.375 C11.056 54.733 10.363 54.091 9.648 53.43 C-0.203 44.22 -1.105 38.028 -2.062 24.812 C-2.153 23.631 -2.244 22.45 -2.338 21.232 C-2.836 14.474 -3.131 7.777 -3 1 C-1 0 -1 0 0 0 Z " fill="#7B7C7C" transform="translate(288,326)"/>
<path d="M0 0 C1.65 1.32 3.3 2.64 5 4 C1.459 12.132 -6.225 18.523 -13 24 C-14.32 22.68 -15.64 21.36 -17 20 C-15.72 16.298 -14.323 13.959 -11.523 11.23 C-10.853 10.57 -10.183 9.909 -9.492 9.229 C-8.794 8.555 -8.095 7.881 -7.375 7.188 C-7.022 6.841 -7.022 6.841 -5.234 5.088 C-3.496 3.385 -1.751 1.689 0 0 Z " fill="#EFF9FD" transform="translate(370,365)"/>
<path d="M0 0 C0.688 1.812 0.688 1.812 1 4 C-0.438 5.75 -0.438 5.75 -2 7 C-1.01 7.66 -0.02 8.32 1 9 C1.66 8.34 2.32 7.68 3 7 C2.634 9.678 2.219 10.795 0.215 12.668 C-4.99 16.141 -8.724 17.772 -15 18 C-12.334 16.223 -9.972 15.125 -7 14 C-7.33 13.34 -7.66 12.68 -8 12 C-8.763 12.206 -9.526 12.413 -10.312 12.625 C-13 13 -13 13 -16 11 C-16.408 8.288 -16.133 5.756 -16 3 C-15.67 3.165 -15.67 3.165 -14 4 C-13.375 6.062 -13.375 6.062 -13 8 C-12.67 6.68 -12.34 5.36 -12 4 C-11.01 4.165 -11.01 4.165 -6 5 C-6 3.68 -6 2.36 -6 1 C-3.924 0.447 -2.156 0 0 0 Z " fill="#22221A" transform="translate(467,448)"/>
<path d="M0 0 C4.098 0.379 6.54 0.693 10 3 C10.64 6.038 10.494 8.943 10 12 C7.158 15.638 3.367 15.429 -1 16 C-1.027 13.521 -1.047 11.042 -1.062 8.562 C-1.067 8.209 -1.067 8.209 -1.088 6.42 C-1.097 4.613 -1.052 2.806 -1 1 C-0.67 0.67 -0.34 0.34 0 0 Z " fill="#1E1D0C" transform="translate(535,253)"/>
<path d="M0 0 C7.26 0 14.52 0 22 0 C22 0.33 22 0.66 22 1 C18.04 1 14.08 1 10 1 C10.165 2.093 10.33 3.186 10.5 4.312 C10.928 7.834 11.157 11.328 11.25 14.875 C11.263 15.338 11.263 15.338 11.328 17.68 C11.22 18.445 11.112 19.211 11 20 C8 22 8 22 4.938 21.75 C2 21 2 21 0 19 C-0.36 16.19 -0.383 14.618 1.125 12.188 C3.775 10.509 5.932 10.795 9 11 C9 7.7 9 4.4 9 1 C6.03 1 3.06 1 0 1 C0 0.67 0 0.34 0 0 Z " fill="#2A290B" transform="translate(531,306)"/>
<path d="M0 0 C6 0 6 0 8.875 1.625 C11 4 11 4 11.688 6.938 C10.706 11.311 8.707 12.622 5 15 C3.35 15 1.7 15 0 15 C0 10.05 0 5.1 0 0 Z " fill="#18170C" transform="translate(470,254)"/>
<path d="M0 0 C0.66 0.66 1.32 1.32 2 2 C1.01 2.33 0.02 2.66 -1 3 C-0.67 3.66 -0.34 4.32 0 5 C-1.052 5.516 -2.104 6.031 -3.188 6.562 C-6.761 8.584 -8.684 10.878 -10.859 14.316 C-12 16 -12 16 -13.473 17.359 C-15.529 19.568 -16.486 21.928 -17.688 24.688 C-18.124 25.681 -18.561 26.675 -19.012 27.699 C-19.175 28.079 -19.175 28.079 -20 30 C-21 27 -21 27 -19.785 24.117 C-19.217 23.047 -18.648 21.977 -18.062 20.875 C-15 15.057 -15 15.057 -15 14 C-15.22 13.393 -15.441 12.786 -15.668 12.16 C-16 10 -16 10 -14.926 8.184 C-6.693 -0.727 -6.693 -0.727 0 0 Z " fill="#34361A" transform="translate(438,403)"/>
<path d="M0 0 C0.66 0 1.32 0 2 0 C2.84 1.935 3.672 3.873 4.5 5.812 C4.964 6.891 5.428 7.97 5.906 9.082 C7 12 7 12 7 15 C3.04 15.66 -0.92 16.32 -5 17 C-4.462 10.818 -2.454 5.673 0 0 Z " fill="#1B1A0C" transform="translate(587,265)"/>
<path d="M0 0 C4.232 4.015 5.867 5.944 6.25 11.875 C6.187 15.704 5.499 17.984 3 21 C0.312 22.812 0.312 22.812 -2 24 C-2 23.34 -2 22.68 -2 22 C-2.99 22.33 -3.98 22.66 -5 23 C-5.33 22.01 -5.66 21.02 -6 20 C-5.01 19.67 -4.02 19.34 -3 19 C-2.34 18.67 -1.68 18.34 -1 18 C-0.367 15.129 -0.367 15.129 0.125 11.562 C0.293 10.388 0.46 9.214 0.633 8.004 C1.051 4.581 1.098 3.295 0 0 Z " fill="#636210" transform="translate(469,434)"/>
<path d="M0 0 C0.99 0 1.98 0 3 0 C3 3.707 1.828 5.444 0.062 8.688 C-1.861 12.395 -3.35 15.446 -3.688 19.625 C-3.791 20.739 -3.894 21.853 -4 23 C-4.495 23.33 -4.495 23.33 -7 25 C-8.297 19.89 -7.495 16.215 -5.75 11.375 C-5.641 11.048 -5.641 11.048 -5.09 9.391 C-3.861 5.842 -2.659 2.701 0 0 Z " fill="#2D331F" transform="translate(421,415)"/>
<path d="M0 0 C5.46 0.285 7.965 3.502 11.5 7.25 C12.056 7.824 12.611 8.397 13.184 8.988 C14.278 10.119 15.368 11.253 16.453 12.393 C17.891 13.886 19.366 15.343 20.844 16.797 C23 19 23 19 24 21 C20.6 20.423 19.073 19.39 16.75 16.875 C14.233 14.233 11.659 11.796 8.875 9.438 C5.502 6.537 2.734 3.504 0 0 Z " fill="#686C6E" transform="translate(303,383)"/>
<path d="M0 0 C0.576 0.361 1.152 0.722 1.746 1.094 C12.797 6.868 24.87 5.457 37 5 C29.971 9.686 20.169 8.709 12 8 C8.342 7.173 5.057 6.211 2 4 C0.75 1.859 0.75 1.859 0 0 Z " fill="#D6D300" transform="translate(414,462)"/>
<path d="M0 0 C4.01 1.337 6.306 2.992 9.188 6.062 C12.832 9.916 12.832 9.916 15 11 C15.371 11.681 15.743 12.361 16.125 13.062 C18.826 17.293 22.388 20.542 26 24 C23 24 23 24 20.763 22.088 C19.912 21.215 19.061 20.341 18.184 19.441 C17.726 18.978 17.269 18.514 16.798 18.036 C15.337 16.552 13.887 15.058 12.438 13.562 C10.983 12.073 9.526 10.585 8.066 9.1 C6.742 7.751 5.424 6.396 4.107 5.041 C2 3 2 3 0 2 C0 1.34 0 0.68 0 0 Z " fill="#64747A" transform="translate(372,444)"/>
<path d="M0 0 C1.031 0.681 2.062 1.361 3.125 2.062 C6.074 3.774 6.863 4.01 10.438 3.75 C11.283 3.502 12.129 3.255 13 3 C12.427 5.867 12.139 6.861 10 9 C3.948 9.55 3.948 9.55 1.062 7.875 C-0.445 5.215 -0.2 2.998 0 0 Z " fill="#020506" transform="translate(306,322)"/>
<path d="M0 0 C3 2 3 2 3.688 4.625 C3.791 5.409 3.894 6.192 4 7 C5.65 7.33 7.3 7.66 9 8 C9.33 8.99 9.66 9.98 10 11 C3.767 11.479 3.767 11.479 0.5 9.438 C-1.605 6.017 -0.879 3.808 0 0 Z " fill="#E7F6FC" transform="translate(360,344)"/>
<path d="M0 0 C3.188 -0.312 3.188 -0.312 6 0 C4.019 2.35 2.014 4.678 0 7 C-0.701 7.825 -1.402 8.65 -2.125 9.5 C-2.744 9.995 -3.363 10.49 -4 11 C-6.25 10.75 -6.25 10.75 -8 10 C-7.237 9.278 -6.474 8.556 -5.688 7.812 C-3 5 -3 5 -1.562 2.188 C-1.047 1.466 -0.531 0.744 0 0 Z " fill="#000000" transform="translate(306,303)"/>
<path d="M0 0 C3.692 0.692 3.692 0.692 5 2 C4.713 4.339 4.381 6.674 4 9 C2.68 9 1.36 9 0 9 C-1 8 -1 8 -1.125 4.5 C-1 1 -1 1 0 0 Z " fill="#27250B" transform="translate(578,317)"/>
<path d="M0 0 C0.495 0.33 0.495 0.33 3 2 C3.432 4.522 3.432 4.522 3.512 7.664 C3.547 8.786 3.583 9.907 3.619 11.062 C3.642 12.238 3.664 13.414 3.688 14.625 C3.722 15.808 3.756 16.992 3.791 18.211 C3.874 21.141 3.943 24.07 4 27 C3.67 27 3.34 27 3 27 C3 24.69 3 22.38 3 20 C2.34 20 1.68 20 1 20 C0.202 13.304 -0.129 6.742 0 0 Z " fill="#3B3A0A" transform="translate(310,231)"/>
<path d="M0 0 C3.692 0.692 3.692 0.692 5 2 C5.294 5.722 5.148 6.778 3 10 C1.68 9.34 0.36 8.68 -1 8 C-1.042 5.667 -1.041 3.333 -1 1 C-0.67 0.67 -0.34 0.34 0 0 Z " fill="#26240B" transform="translate(602,317)"/>
<path d="M0 0 C0.968 2.615 1.046 3.844 0.25 6.562 C-1 9 -1 9 -2.41 10.297 C-4.5 12.536 -5.468 14.887 -6.688 17.688 C-7.124 18.681 -7.561 19.675 -8.012 20.699 C-8.175 21.079 -8.175 21.079 -9 23 C-10 20 -10 20 -8.785 17.117 C-8.217 16.047 -7.648 14.977 -7.062 13.875 C-4 8.057 -4 8.057 -4 7 C-4 4 -4 4 -2 1.812 C-1.34 1.214 -0.68 0.616 0 0 Z " fill="#A2A008" transform="translate(427,410)"/>
<path d="M0 0 C1 2 1 2 0.109 4.758 C-0.339 5.869 -0.788 6.98 -1.25 8.125 C-1.481 8.706 -1.481 8.706 -2.652 11.645 C-3.097 12.752 -3.542 13.859 -4 15 C-4.61 16.602 -5.215 18.206 -5.812 19.812 C-6.204 20.864 -6.596 21.916 -7 23 C-7.841 19.902 -8.089 17.217 -8 14 C-7.34 14 -6.68 14 -6 14 C-5.909 13.704 -5.909 13.704 -5.449 12.207 C-4.043 7.787 -2.625 3.875 0 0 Z " fill="#3E3D16" transform="translate(424,419)"/>
<path d="M0 0 C3.377 0.482 4.469 1.82 6.625 4.375 C6.295 5.365 5.965 6.355 5.625 7.375 C5.625 6.715 5.625 6.055 5.625 5.375 C3.607 5.473 1.589 5.57 -0.43 5.668 C-1.072 5.571 -1.714 5.475 -2.375 5.375 C-3.035 4.385 -3.695 3.395 -4.375 2.375 C-2.375 0.375 -2.375 0.375 0 0 Z " fill="#081317" transform="translate(312.375,315.625)"/>
<path d="M0 0 C1.547 4.126 0.818 7.773 0 12 C-0.495 12.33 -0.495 12.33 -3 14 C-4.202 9.073 -3.769 5.748 -2 1 C-1.34 0.67 -0.68 0.34 0 0 Z " fill="#1D2728" transform="translate(417,426)"/>
<path d="M0 0 C0.99 1.98 1.98 3.96 3 6 C-3.523 5.508 -3.523 5.508 -5.938 2.938 C-6.113 2.618 -6.113 2.618 -7 1 C-4.509 0.313 -2.621 0 0 0 Z " fill="#E8F6FC" transform="translate(380,363)"/>
<path d="M0 0 C0 1.65 0 3.3 0 5 C-1.656 5.382 -3.325 5.714 -5 6 C-6 5 -6 5 -6.062 2.438 C-6.042 1.633 -6.021 0.829 -6 0 C-3 -1 -3 -1 0 0 Z " fill="#EAEAEA" transform="translate(318,321)"/>
<path d="M0 0 C2.062 0.438 2.062 0.438 4 1 C4.33 2.98 4.66 4.96 5 7 C4.34 7.33 4.34 7.33 1 9 C0.639 7.689 0.286 6.376 -0.062 5.062 C-0.161 4.697 -0.161 4.697 -0.66 2.848 C-0.772 2.238 -0.884 1.628 -1 1 C-0.67 0.67 -0.34 0.34 0 0 Z " fill="#1B1B19" transform="translate(299,301)"/>
<path d="M0 0 C0.66 0 1.32 0 2 0 C2.646 1.771 3.292 3.542 3.938 5.312 C4.117 5.806 4.117 5.806 5.027 8.301 C5.709 10.192 6.364 12.093 7 14 C5.68 14 4.36 14 3 14 C2.495 12.231 1.996 10.459 1.5 8.688 C1.222 7.701 0.943 6.715 0.656 5.699 C0 3 0 3 0 0 Z " fill="#BBB903" transform="translate(272,281)"/>
<path d="M0 0 C0.33 0.66 0.66 1.32 1 2 C-0.485 2.495 -0.485 2.495 -8 5 C-7.67 4.01 -7.34 3.02 -7 2 C-7.66 2 -8.32 2 -9 2 C-9 1.34 -9 0.68 -9 0 C-2.25 -1.125 -2.25 -1.125 0 0 Z " fill="#4B4A14" transform="translate(461,460)"/>
<path d="M0 0 C4.263 0.474 6.215 2.922 9 6 C9.33 6.495 9.33 6.495 11 9 C7.403 8.427 5.747 7.103 3.25 4.5 C2.636 3.871 2.023 3.242 1.391 2.594 C0 1 0 1 0 0 Z " fill="#565656" transform="translate(316,395)"/>
<path d="M0 0 C0.66 0.66 1.32 1.32 2 2 C-0.667 2.667 -3.333 3.333 -6 4 C-6.748 4.187 -7.495 4.374 -8.266 4.566 C-8.838 4.709 -9.41 4.853 -10 5 C-10 4.34 -10 3.68 -10 3 C-6.842 -0.158 -4.372 -0.475 0 0 Z " fill="#C2C80E" transform="translate(438,403)"/>
<path d="M0 0 C1.033 2.788 1.045 3.868 0.062 6.75 C-0.288 7.493 -0.639 8.235 -1 9 C-1.66 8.01 -2.32 7.02 -3 6 C-3.33 6.165 -3.33 6.165 -5 7 C-3.707 4.116 -2.341 2.128 0 0 Z " fill="#86840C" transform="translate(427,410)"/>
</svg>
