<svg xmlns="http://www.w3.org/2000/svg" xmlns:xlink="http://www.w3.org/1999/xlink" xmlns:inkscape="http://www.inkscape.org/namespaces/inkscape" version="1.1" width="1133.86" height="226.772" viewBox="0 0 1133.86 226.772">
<defs>
<clipPath id="clip_1">
<path transform="matrix(1,0,0,-1,0,226.772)" d="M0 0H1133.858V226.772H0Z"/>
</clipPath>
<clipPath id="clip_2">
<path transform="matrix(1,0,0,-1,0,226.772)" d="M0 0H1133.858V226.772H0Z"/>
</clipPath>
<clipPath id="clip_3">
<path transform="matrix(1,0,0,-1,0,226.772)" d="M0 0H1133.858V226.772H0Z"/>
</clipPath>
</defs>
<g clip-path="url(#clip_1)">
<path transform="matrix(1,0,0,-1,184.7894,16.354004)" d="M0 0C0 0 35.142-12.568 36.528-37.447 38.958-81.201-97.237-102.725-94.783-146.767-93.28-173.839-37.994-198.056-37.994-198.056-37.994-198.056-154.092-183.68-156.419-142.012-159.037-95.12 21.625-77.467 18.912-28.606 17.964-11.617 0 0 0 0" fill="#00a1e4"/>
<path transform="matrix(1,0,0,-1,113.5312,96.8851)" d="M0 0C40.16 14.782 85.223 31.529 84.115 51.599 83.359 65.117 68.115 75.35 67.965 75.442 67.965 75.442 75.045 68.095 75.587 58.401 77.216 29.097 .462 .171 0 0" fill="#244445"/>
<path transform="matrix(1,0,0,-1,158.4784,113.711109)" d="M0 0C0 0-63.775-25.056-62.431-49.07-61.372-68.143-22.714-89.261-9.263-95.165-9.263-95.165-39.544-80.217-41.143-51.516-42.845-20.974 0 0 0 0" fill="#244445"/>
<path transform="matrix(1,0,0,-1,237.7882,138.0622)" d="M0 0C-1.315 .715-2.758 1.431-4.343 2.12-5.914 2.822-7.602 3.434-9.394 3.958-11.189 4.486-13.076 4.925-15.051 5.259-17.039 5.603-19.092 5.764-21.249 5.764-23.652 5.764-25.673 5.479-27.313 4.89-28.958 4.31-30.274 3.579-31.229 2.719-32.204 1.852-32.905 .919-33.324-.088-33.747-1.091-33.959-2.015-33.959-2.882-33.959-4.129-33.732-5.273-33.289-6.308-32.858-7.342-32.152-8.344-31.209-9.304-30.262-10.266-29.016-11.248-27.474-12.243-25.94-13.241-24.072-14.346-21.885-15.558-19.021-17.141-16.48-18.73-14.265-20.335-12.05-21.942-10.162-23.657-8.606-25.483-7.046-27.312-5.863-29.294-5.063-31.447-4.258-33.602-3.867-36.019-3.867-38.683-3.867-40.237-4.064-41.939-4.463-43.785-4.862-45.628-5.548-47.487-6.516-49.355-7.484-51.222-8.826-53.022-10.537-54.753-12.232-56.492-14.378-58.016-16.945-59.34-19.521-60.659-22.612-61.722-26.209-62.529-29.814-63.338-34.021-63.748-38.821-63.748-41.518-63.748-44.14-63.593-46.694-63.265-49.245-62.95-51.666-62.51-53.963-61.967-56.26-61.422-58.395-60.805-60.385-60.13-62.362-59.45-64.112-58.761-65.628-58.037L-62.158-41.972C-60.595-42.987-58.895-43.947-57.056-44.856-55.232-45.763-53.317-46.561-51.307-47.231-49.306-47.912-47.232-48.44-45.08-48.824-42.927-49.2-40.756-49.371-38.573-49.371-36.162-49.371-34.125-49.152-32.437-48.679-30.759-48.202-29.381-47.548-28.326-46.719-27.279-45.894-26.517-44.932-26.049-43.84-25.588-42.744-25.35-41.575-25.35-40.332-25.35-39.086-25.584-37.962-26.019-36.966-26.46-35.967-27.189-35.002-28.204-34.078-29.212-33.156-30.557-32.19-32.219-31.197-33.882-30.194-35.917-29.079-38.312-27.836-40.888-26.548-43.23-25.165-45.334-23.667-47.444-22.186-49.259-20.532-50.773-18.703-52.284-16.863-53.47-14.839-54.314-12.591-55.153-10.338-55.577-7.84-55.577-5.091-55.577-1.965-54.927 1.11-53.615 4.131-52.318 7.141-50.266 9.845-47.49 12.218-44.708 14.595-41.155 16.504-36.836 17.964-32.508 19.415-27.355 20.139-21.373 20.139-18.889 20.139-16.488 20.019-14.169 19.773-11.853 19.526-9.638 19.194-7.531 18.783-5.423 18.363-3.441 17.893-1.589 17.366 .266 16.834 1.959 16.287 3.474 15.731Z" fill="#244445"/>
</g>
<path transform="matrix(1,0,0,-1,285.3418,166.02552)" d="M0 0 16.685-34.202H-5.56L-19.793-.569H-20.107L-27.176-34.202H-47.288L-30.193 46.718H-10.022L-19.422 2.465H-19.16L6.575 30.532H30.281Z" fill="#244445"/>
<g clip-path="url(#clip_2)">
<path transform="matrix(1,0,0,-1,340.804,199.66231)" d="M0 0C-.762-.215-1.641-.419-2.625-.627-3.62-.84-4.674-1.046-5.788-1.241-6.902-1.424-8.065-1.569-9.266-1.674-10.461-1.781-11.654-1.833-12.834-1.833-15.665-1.833-18.076-1.469-20.074-.727-22.08 .014-23.729 1.048-25.046 2.367-26.343 3.693-27.301 5.27-27.914 7.116-28.523 8.945-28.824 10.957-28.824 13.155-28.824 14.084-28.784 15.11-28.678 16.248-28.568 17.386-28.433 18.577-28.258 19.821-28.1 21.057-27.898 22.328-27.663 23.612-27.436 24.903-27.183 26.126-26.934 27.317-26.77 28.029-26.484 29.343-26.082 31.259-25.683 33.173-25.213 35.383-24.694 37.869-24.165 40.356-23.606 42.98-23.018 45.742-22.431 48.499-21.868 51.127-21.335 53.61-20.808 56.096-20.35 58.299-19.944 60.216-19.548 62.133-19.267 63.455-19.093 64.17H1.128L-6.578 27.748C-6.925 26.272-7.271 24.619-7.658 22.786-8.035 20.963-8.221 19.358-8.221 18.018-8.221 16.415-7.715 15.3-6.709 14.669-5.694 14.039-4.53 13.717-3.23 13.717-2.136 13.717-1.02 13.829 .094 14.072 1.208 14.303 2.23 14.613 3.16 14.984 2.607 12.46 2.082 9.963 1.58 7.494 1.074 5.027 .539 2.531 0 0" fill="#244445"/>
<path transform="matrix(1,0,0,-1,343.0761,130.17441)" d="M0 0 2.302 10.869H-17.928C-18.101 10.155-18.389 8.838-18.785 6.915-19.19 4.997-19.649 2.794-20.175 .304L-20.237 0Z" fill="#244445"/>
<path transform="matrix(1,0,0,-1,804.9769,122.75391)" d="M0 0C-2.708-2.845-5.589-5.82-8.602-8.911-11.623-12.016-14.481-14.981-17.198-17.827-19.922-20.676-22.345-23.268-24.493-25.607-26.648-27.948-28.232-29.741-29.243-31.011-28.693-32.402-27.786-34.33-26.524-36.788-25.26-39.26-23.811-41.987-22.19-44.952-20.566-47.923-18.842-51.015-17.015-54.244-15.174-57.468-13.443-60.566-11.826-63.545-10.202-66.513-8.759-69.225-7.494-71.688-6.232-74.164-5.322-76.086-4.78-77.474H-29.62C-30.003-76.377-30.675-74.802-31.644-72.743-32.615-70.67-33.735-68.37-35.023-65.851-36.314-63.31-37.669-60.666-39.105-57.908-40.536-55.156-41.899-52.51-43.179-49.978-44.468-47.442-45.609-45.168-46.599-43.115-47.59-41.075-48.281-39.498-48.648-38.412-48.993-37.697-49.307-36.886-49.6-35.967-49.891-35.061-50.109-34.354-50.236-33.861H-50.479L-59.643-77.474H-80.254L-63.091 3.446H-42.47L-49.288-28.925H-49.033C-48.562-28.291-48.03-27.6-47.411-26.841-46.809-26.076-46.311-25.441-45.925-24.938-45.083-23.885-43.787-22.362-42.042-20.357-40.295-18.353-38.336-16.117-36.161-13.653-33.995-11.185-31.708-8.606-29.308-5.915-26.901-3.212-21.228 3.446-21.228 3.446H3.151C3.151 3.446 2.717 2.843 0 0" fill="#244445"/>
<path transform="matrix(1,0,0,-1,849.0259,148.1091)" d="M0 0C-1.181 .103-2.3 .16-3.353 .16-6.268 .16-8.811-.327-11.002-1.293-13.203-2.269-15.101-3.527-16.722-5.091-18.349-6.642-19.706-8.421-20.802-10.395-21.897-12.376-22.773-14.386-23.419-16.441-24.076-18.479-24.538-20.47-24.815-22.406-25.09-24.341-25.234-26.052-25.234-27.527-25.234-29.089-25.071-30.528-24.747-31.863-24.44-33.189-23.94-34.336-23.269-35.305-22.583-36.274-21.759-37.035-20.773-37.581-19.782-38.129-18.632-38.403-17.323-38.403-14.92-38.403-12.788-37.709-10.902-36.314-9.028-34.928-7.385-33.145-5.975-30.972-4.56-28.806-3.382-26.363-2.443-23.642-1.486-20.921-.714-18.235-.121-15.577L3.22-.465C2.251-.262 1.181-.1 0 0M16.81-30.751C16.518-32.066 16.23-33.645 15.962-35.495 15.686-37.35 15.432-39.279 15.201-41.275 14.97-43.284 14.781-45.235 14.629-47.157 14.484-49.067 14.412-50.731 14.412-52.119H-5.813C-5.813-51.491-5.789-50.674-5.73-49.683-5.66-48.695-5.589-47.683-5.504-46.656-5.418-45.621-5.329-44.611-5.22-43.62-5.123-42.627-5.013-41.794-4.934-41.12H-5.189C-6.406-42.759-7.668-44.346-8.975-45.864-10.281-47.374-11.74-48.721-13.334-49.881-14.943-51.033-16.722-51.967-18.685-52.662-20.637-53.339-22.911-53.701-25.481-53.701-28.643-53.701-31.453-53.136-33.914-51.993-36.39-50.871-38.462-49.212-40.146-47.055-41.829-44.916-43.125-42.289-43.996-39.189-44.883-36.093-45.335-32.589-45.335-28.668-45.335-26.689-45.104-24.247-44.666-21.359-44.223-18.479-43.425-15.436-42.267-12.257-41.105-9.081-39.495-5.913-37.431-2.777-35.368 .36-32.72 3.189-29.491 5.729-26.258 8.252-22.373 10.3-17.801 11.855-13.233 13.417-7.84 14.2-1.645 14.2 .753 14.2 3.17 14.101 5.596 13.91 8.02 13.723 10.399 13.477 12.734 13.153 15.07 12.838 17.342 12.467 19.533 12.045 21.726 11.631 23.773 11.204 25.666 10.774Z" fill="#244445"/>
<path transform="matrix(1,0,0,-1,926.2928,153.891)" d="M0 0H-.126C-1.005 .457-2.133 .879-3.508 1.265-4.88 1.639-6.149 1.841-7.337 1.841-9.824 1.841-12.054 1.265-14.033 .153-16.005-.953-17.765-2.47-19.277-4.36-20.797-6.256-22.071-8.483-23.109-11.026-24.135-13.576-24.971-16.298-25.593-19.156L-31.299-46.335H-51.522L-42.675-5.061C-42.255-3.074-41.844-1.034-41.444 1.077-41.031 3.184-40.658 5.256-40.298 7.309-39.948 9.349-39.624 11.316-39.352 13.217-39.079 15.112-38.85 16.836-38.688 18.392H-18.899C-19.025 17.177-19.159 15.908-19.311 14.608-19.458 13.297-19.604 12.043-19.758 10.847-19.897 9.638-20.049 8.554-20.195 7.583-20.351 6.618-20.464 5.86-20.535 5.315H-20.292C-17.68 10.161-14.927 13.812-12.04 16.284-9.157 18.747-5.818 19.974-2.014 19.974-.921 19.974 .145 19.874 1.195 19.662 2.26 19.454 3.206 19.289 4.049 19.161Z" fill="#244445"/>
<path transform="matrix(1,0,0,-1,956.5369,199.66231)" d="M0 0C-.772-.215-1.639-.419-2.627-.627-3.612-.84-4.675-1.046-5.787-1.241-6.904-1.424-8.064-1.569-9.259-1.674-10.459-1.781-11.654-1.833-12.838-1.833-15.665-1.833-18.077-1.469-20.078-.727-22.08 .014-23.736 1.048-25.047 2.367-26.348 3.693-27.312 5.27-27.912 7.116-28.522 8.945-28.829 10.957-28.829 13.155-28.829 14.084-28.781 15.11-28.672 16.248-28.575 17.386-28.432 18.577-28.262 19.821-28.093 21.057-27.894 22.328-27.665 23.612-27.436 24.903-27.181 26.126-26.938 27.317-26.819 27.855-26.529 29.198-26.083 31.332-25.638 33.457-25.085 36.085-24.403 39.195-23.736 42.324-22.992 45.783-22.197 49.598-21.397 53.412-20.559 57.313-19.699 61.295-18.832 65.277-18.006 69.172-17.203 72.989-16.393 76.795-15.613 80.356-15.613 80.356H4.637L-6.583 27.748C-6.913 26.272-7.277 24.619-7.649 22.786-8.033 20.963-8.225 19.358-8.225 18.018-8.225 16.415-7.721 15.3-6.715 14.669-5.692 14.039-4.537 13.717-3.231 13.717-2.134 13.717-1.033 13.829 .086 14.072 1.203 14.303 2.231 14.613 3.163 14.984 2.61 12.46 2.084 9.963 1.581 7.494 1.065 5.027 .545 2.531 0 0" fill="#244445"/>
<path transform="matrix(1,0,0,-1,1011.3586,161.4141)" d="M0 0C0 1.772-.21 3.403-.628 4.901-1.053 6.39-1.674 7.676-2.496 8.752-3.32 9.831-4.32 10.676-5.493 11.285-6.678 11.9-8.044 12.2-9.609 12.2-12.267 12.2-14.636 11.445-16.717 9.93-18.804 8.409-20.564 6.454-22 4.041-23.442 1.643-24.535-1.052-25.288-4.044-26.048-7.037-26.429-10.03-26.429-13.024-26.429-16.855-25.533-19.832-23.733-21.935-21.95-24.047-19.622-25.095-16.76-25.095-14.015-25.095-11.597-24.364-9.514-22.88-7.43-21.409-5.68-19.484-4.268-17.098-2.858-14.72-1.788-12.028-1.076-9.042-.359-6.048 0-3.036 0 0M20.17 .25C20.17-2.739 19.882-5.82 19.289-8.982 18.694-12.138 17.765-15.232 16.503-18.239 15.241-21.256 13.6-24.104 11.598-26.807 9.599-29.503 7.171-31.846 4.327-33.859 1.486-35.859-1.805-37.455-5.522-38.633-9.261-39.807-13.515-40.403-18.27-40.403-23.071-40.403-27.255-39.695-30.817-38.315-34.388-36.922-37.317-35.009-39.636-32.554-41.958-30.111-43.687-27.22-44.822-23.862-45.968-20.511-46.528-16.898-46.528-13.024-46.528-9.897-46.214-6.73-45.582-3.51-44.954-.284-43.972 2.819-42.646 5.815-41.317 8.811-39.619 11.621-37.548 14.26-35.488 16.894-33.018 19.19-30.158 21.147-27.286 23.104-24.01 24.659-20.325 25.796-16.63 26.93-12.5 27.498-7.909 27.498-3.391 27.498 .603 26.852 4.086 25.576 7.556 24.286 10.483 22.449 12.862 20.071 15.25 17.696 17.056 14.822 18.299 11.471 19.547 8.128 20.17 4.382 20.17 .25" fill="#244445"/>
<path transform="matrix(1,0,0,-1,1068.0836,200.2259)" d="M0 0H-22.25L-30.782 64.734H-10.876L-8.277 28.891C-8.197 28.086-8.12 27.12-8.056 25.976-8.002 24.842-7.944 23.659-7.908 22.44-7.863 21.216-7.835 19.999-7.808 18.803-7.782 17.608-7.82 16.555-7.908 15.672H-7.647C-7.316 16.555-6.915 17.537-6.448 18.615-5.991 19.685-5.494 20.802-4.998 21.961-4.484 23.121-3.977 24.285-3.446 25.443-2.915 26.6-2.426 27.707-1.964 28.76L15.424 64.734H37.424Z" fill="#244445"/>
<path transform="matrix(1,0,0,-1,417.5737,140.9273)" d="M0 0C-.034 .61-.071 1.281-.088 2.005-.11 2.739-.11 3.441-.088 4.125-.071 4.803-.034 5.415 0 5.956 .051 6.502 .086 6.908 .136 7.168H-.244C-.335 6.832-.484 6.394-.691 5.87-.903 5.342-1.144 4.768-1.417 4.153-1.686 3.532-2.011 2.886-2.364 2.205-2.72 1.526-3.095 .869-3.475 .236L-20.034-27.3H3.293ZM7.411-59.292 4.819-41.299H-27.694L-38.301-59.292H-61.317L-9.035 21.618H15.306L28.266-59.292Z" fill="#00a1e4"/>
<path transform="matrix(1,0,0,-1,503.4478,153.8806)" d="M0 0H-.117C-1.01 .45-2.135 .886-3.503 1.264-4.874 1.641-6.147 1.831-7.33 1.831-9.819 1.831-12.048 1.274-14.031 .155-16.01-.96-17.757-2.467-19.283-4.36-20.797-6.27-22.072-8.483-23.104-11.038-24.142-13.579-24.965-16.293-25.601-19.156L-31.296-46.338H-51.52L-42.671-5.061C-42.252-3.084-41.834-1.038-41.442 1.067-41.029 3.179-40.656 5.251-40.301 7.296-39.947 9.34-39.624 11.316-39.344 13.209-39.073 15.107-38.856 16.832-38.686 18.394H-18.903C-19.028 17.173-19.153 15.896-19.309 14.605-19.458 13.298-19.608 12.038-19.751 10.836-19.897 9.635-20.047 8.549-20.194 7.577-20.351 6.613-20.462 5.858-20.543 5.308H-20.29C-17.681 10.157-14.925 13.814-12.04 16.275-9.157 18.742-5.816 19.975-2.02 19.975-.926 19.975 .154 19.874 1.2 19.662 2.256 19.446 3.204 19.282 4.05 19.161Z" fill="#00a1e4"/>
</g>
<path transform="matrix(1,0,0,-1,547.5237,125.327709)" d="M0 0H-14.839L5.056 20.517H23.295Z" fill="#00a1e4"/>
<g clip-path="url(#clip_3)">
<path transform="matrix(1,0,0,-1,642.9476,150.9707)" d="M0 0C0-.627-.062-1.469-.193-2.525-.331-3.574-.472-4.679-.671-5.809-.859-6.947-1.057-8.056-1.271-9.128-1.478-10.195-1.672-11.114-1.833-11.871L-9.727-49.257H-29.749L-21.978-12.378C-21.727-11.026-21.479-9.637-21.221-8.211-20.976-6.778-20.846-5.684-20.846-4.925-20.846-2.905-21.364-1.293-22.388-.097-23.424 1.103-24.965 1.708-27.032 1.708-28.753 1.708-30.561 1.172-32.43 .098-34.305-.983-36.056-2.4-37.702-4.163-39.346-5.935-40.793-7.971-42.033-10.261-43.278-12.557-44.145-14.905-44.652-17.308L-51.346-49.257H-71.678L-62.078-4.925C-61.705-2.989-61.321-1.041-60.949 .915-60.565 2.872-60.231 4.748-59.935 6.539-59.638 8.325-59.375 9.987-59.15 11.523-58.92 13.06-58.737 14.357-58.606 15.415H-38.907C-39.034 14.233-39.171 12.99-39.319 11.71-39.46 10.424-39.61 9.2-39.76 8.025-39.899 6.844-40.04 5.791-40.169 4.894-40.298 3.989-40.402 3.353-40.489 2.969H-40.227C-38.757 4.901-37.096 6.727-35.241 8.43-33.392 10.14-31.426 11.624-29.337 12.888-27.253 14.146-25.096 15.148-22.862 15.884-20.637 16.623-18.402 16.99-16.179 16.99-10.829 16.99-6.804 15.503-4.075 12.535-1.371 9.569 0 5.382 0 0" fill="#00a1e4"/>
<path transform="matrix(1,0,0,-1,694.2921,148.1626)" d="M0 0C-1.177 .11-2.294 .159-3.337 .159-6.253 .159-8.799-.327-10.983-1.296-13.172-2.263-15.077-3.518-16.708-5.073-18.328-6.642-19.683-8.406-20.776-10.383-21.873-12.364-22.745-14.382-23.388-16.418-24.05-18.463-24.5-20.454-24.777-22.385-25.053-24.328-25.19-26.026-25.19-27.505-25.19-29.067-25.04-30.501-24.721-31.826-24.393-33.15-23.912-34.3-23.24-35.267-22.573-36.238-21.724-36.997-20.737-37.546-19.746-38.084-18.608-38.364-17.299-38.364-14.901-38.364-12.757-37.671-10.886-36.272-9.026-34.892-7.371-33.111-5.968-30.94-4.549-28.775-3.38-26.327-2.427-23.614-1.472-20.895-.719-18.211-.121-15.57L3.213-.474C2.25-.264 1.184-.109 0 0M16.808-30.722C16.51-32.028 16.229-33.6 15.953-35.46 15.679-37.314 15.429-39.239 15.196-41.237 14.964-43.237 14.777-45.192 14.624-47.111 14.481-49.029 14.403-50.677 14.403-52.063H-5.811C-5.811-51.434-5.766-50.629-5.708-49.64-5.658-48.641-5.575-47.643-5.489-46.602-5.408-45.569-5.313-44.563-5.208-43.573-5.099-42.585-5.003-41.753-4.92-41.075H-5.175C-6.394-42.716-7.658-44.294-8.964-45.816-10.269-47.338-11.721-48.669-13.322-49.824-14.912-50.981-16.708-51.912-18.652-52.599-20.611-53.287-22.871-53.648-25.446-53.648-28.606-53.648-31.409-53.082-33.875-51.939-36.34-50.803-38.415-49.164-40.094-47.019-41.78-44.868-43.06-42.249-43.94-39.155-44.835-36.059-45.28-32.547-45.28-28.636-45.28-26.663-45.049-24.226-44.604-21.344-44.17-18.463-43.365-15.432-42.213-12.245-41.051-9.066-39.443-5.918-37.383-2.774-35.319 .357-32.664 3.188-29.456 5.713-26.234 8.247-22.343 10.283-17.775 11.842-13.202 13.402-7.82 14.182-1.634 14.182 .766 14.182 3.175 14.09 5.598 13.892 8.013 13.709 10.385 13.455 12.736 13.138 15.072 12.821 17.329 12.452 19.518 12.033 21.709 11.612 23.748 11.188 25.648 10.769Z" fill="#00a1e4"/>
<path transform="matrix(1,0,0,-1,544.7697,160.37451)" d="M0 0C-3.724-1.815-9.369-2.683-16.953-2.596-16.445-.322-15.688 1.8-14.678 3.758-13.664 5.711-12.455 7.394-11.048 8.802-9.635 10.212-8.081 11.317-6.376 12.119-4.667 12.919-2.894 13.322-1.038 13.322 1.065 13.322 2.703 12.805 3.861 11.771 5.019 10.742 5.589 9.443 5.589 7.888 5.589 4.439 3.736 1.803 0 0M23.277 14.958C22.396 17.147 21.004 19.092 19.102 20.799 17.208 22.505 14.769 23.867 11.785 24.876 8.788 25.884 5.176 26.395 .916 26.395-4.978 26.395-10.305 25.288-15.086 23.085-19.871 20.869-23.949 17.88-27.34 14.136-30.736 10.395-33.337 6.03-35.171 1.069-37-3.9-37.914-9.142-37.914-14.657-37.914-18.32-37.395-21.771-36.338-25.014-35.286-28.251-33.626-31.089-31.388-33.506-29.134-35.931-26.258-37.85-22.759-39.286-19.262-40.72-15.071-41.434-10.196-41.434-7.88-41.434-5.618-41.282-3.405-40.984-1.196-40.696 .89-40.298 2.851-39.788 4.804-39.286 6.622-38.715 8.307-38.091 9.988-37.457 11.484-36.804 12.797-36.129L15.887-21.228C14.329-22.113 12.631-22.921 10.802-23.657 8.973-24.395 7.132-25.022 5.28-25.543 3.425-26.076 1.605-26.47-.189-26.753-1.973-27.027-3.629-27.16-5.133-27.16-7.663-27.16-9.77-26.836-11.46-26.184-13.151-25.528-14.5-24.678-15.524-23.626-16.563-22.575-17.289-21.394-17.714-20.085-18.125-18.78-18.339-17.477-18.339-16.169V-15.572C-18.339-15.381-18.298-15.16-18.217-14.91-10.041-14.781-3.223-14.136 2.248-12.984 7.715-11.829 12.11-10.233 15.417-8.213 18.723-6.194 21.075-3.796 22.483-1.015 23.893 1.762 24.601 4.81 24.601 8.142 24.601 10.5 24.164 12.772 23.277 14.958" fill="#00a1e4"/>
</g>
</svg>
