<?xml version="1.0" encoding="UTF-8"?>
<!-- Generator: visioncortex VTracer 0.6.12 -->
<svg version="1.1" xmlns="http://www.w3.org/2000/svg" width="271" height="109">
<path d="M0 0 C0.347 -0.003 0.347 -0.003 2.101 -0.015 C4.388 -0.029 6.674 -0.028 8.961 -0.026 C10.556 -0.03 12.15 -0.034 13.744 -0.039 C17.085 -0.047 20.425 -0.046 23.766 -0.041 C28.038 -0.035 32.311 -0.052 36.583 -0.075 C39.876 -0.09 43.168 -0.091 46.461 -0.088 C48.036 -0.088 49.611 -0.094 51.186 -0.104 C53.392 -0.116 55.598 -0.109 57.805 -0.098 C58.432 -0.098 58.432 -0.098 61.604 -0.1 C66.269 0.41 69.467 1.794 72.881 5.026 C74.495 8.181 74.421 10.722 74.436 14.259 C74.443 14.954 74.45 15.648 74.457 16.364 C74.475 18.656 74.471 20.947 74.465 23.24 C74.47 24.836 74.475 26.433 74.481 28.029 C74.49 31.374 74.488 34.719 74.478 38.063 C74.466 42.345 74.487 46.627 74.516 50.908 C74.534 54.205 74.534 57.502 74.528 60.799 C74.528 62.377 74.534 63.956 74.546 65.534 C74.561 67.744 74.551 69.952 74.533 72.161 C74.533 73.417 74.533 74.673 74.533 75.967 C73.936 79.906 72.851 81.504 70.032 84.275 C67.152 86.173 64.955 86.521 61.539 86.502 C61.098 86.502 61.098 86.502 58.87 86.501 C58.399 86.496 58.399 86.496 56.016 86.47 C55.045 86.467 54.074 86.464 53.074 86.461 C49.976 86.45 46.879 86.425 43.782 86.4 C41.68 86.39 39.579 86.381 37.477 86.372 C32.329 86.35 27.18 86.316 22.032 86.275 C22.032 85.945 22.032 85.615 22.032 85.275 C22.342 85.237 22.342 85.237 23.911 85.048 C39.37 82.753 56.017 75.425 67.032 64.275 C67.692 64.275 68.352 64.275 69.032 64.275 C71.075 59.779 73.08 55.138 71.293 50.259 C63.597 36.4 44.465 32.604 30.485 28.217 C17.651 24.09 17.651 24.09 14.594 18.775 C13.995 16.111 13.883 14.749 15.032 12.275 C16.022 11.945 17.012 11.615 18.032 11.275 C18.692 10.615 19.352 9.955 20.032 9.275 C21.352 8.615 22.672 7.955 24.032 7.275 C20.732 8.265 17.432 9.255 14.032 10.275 C14.032 10.935 14.032 11.595 14.032 12.275 C13.372 12.275 12.712 12.275 12.032 12.275 C11.628 16.395 11.506 18.545 13.969 21.962 C18.432 25.332 23.331 28.275 29.032 28.275 C29.032 28.935 29.032 29.595 29.032 30.275 C30.207 30.502 31.383 30.728 32.594 30.962 C37.162 31.978 41.587 33.326 46.032 34.775 C46.703 34.988 47.374 35.202 48.065 35.422 C49.742 35.98 51.39 36.621 53.032 37.275 C53.362 37.935 53.692 38.595 54.032 39.275 C54.754 39.543 55.475 39.811 56.219 40.087 C59.792 41.595 62.699 43.156 65.032 46.275 C66.324 49.734 66.647 52.629 66.032 56.275 C64.165 59.507 61.905 61.909 59.032 64.275 C58.279 64.909 57.526 65.543 56.75 66.197 C54.032 67.275 54.032 67.275 50.508 66.107 C49.213 65.455 47.93 64.781 46.657 64.087 C45.381 63.422 44.102 62.762 42.821 62.107 C42.194 61.785 41.567 61.464 40.921 61.133 C39.032 60.275 39.032 60.275 35.286 59.224 C32.113 58.298 30.671 57.528 28.344 55.275 C26.561 53.572 25.173 52.343 22.942 51.267 C19.88 49.677 19.166 47.426 18.032 44.275 C18.469 42.087 18.469 42.087 20.032 40.275 C23.26 38.147 25.207 37.241 29.094 37.4 C33.593 38.74 36.886 40.798 40.032 44.275 C40.032 43.285 40.032 42.295 40.032 41.275 C38.918 40.656 37.804 40.037 36.657 39.4 C34.393 38.142 32.886 37.129 31.032 35.275 C24.5 34.575 18.705 35.858 13.032 39.275 C12.335 40.592 11.664 41.925 11.032 43.275 C10.042 43.584 9.052 43.893 8.032 44.212 C5.032 45.275 5.032 45.275 3.782 47.275 C3.534 48.265 3.287 49.255 3.032 50.275 C2.837 51.047 2.642 51.819 2.442 52.615 C1.35 57.362 0.386 61.556 2.032 66.275 C4.594 69.15 4.594 69.15 7.032 71.275 C7.032 70.285 7.032 69.295 7.032 68.275 C6.532 67.812 6.031 67.349 5.516 66.872 C4.032 65.275 4.032 65.275 3.922 63.083 C4.041 62.301 4.16 61.518 4.282 60.712 C4.39 59.927 4.498 59.142 4.61 58.333 C5.032 56.275 5.032 56.275 6.032 54.275 C7.969 55.087 7.969 55.087 10.032 56.275 C10.362 57.265 10.692 58.255 11.032 59.275 C11.692 59.605 12.352 59.935 13.032 60.275 C13.362 61.265 13.692 62.255 14.032 63.275 C17.032 65.275 17.032 65.275 19.231 65.708 C22.972 66.465 26.325 67.886 29.844 69.337 C30.537 69.619 31.23 69.9 31.944 70.191 C33.641 70.881 35.337 71.577 37.032 72.275 C35.545 76.194 33.763 77.447 30.032 79.275 C17.728 84.185 3.465 89.631 -9.761 85.376 C-12.8 83.86 -13.597 82.361 -14.968 79.275 C-15.778 74.671 -16.086 70.261 -16.053 65.593 C-16.046 64.308 -16.039 63.023 -16.032 61.7 C-16.018 60.316 -16.003 58.932 -15.988 57.548 C-15.981 56.844 -15.974 56.139 -15.967 55.413 C-15.929 51.692 -15.886 47.971 -15.836 44.25 C-15.787 40.416 -15.761 36.582 -15.74 32.747 C-15.719 29.788 -15.681 26.828 -15.639 23.868 C-15.622 22.455 -15.611 21.041 -15.607 19.627 C-15.6 17.651 -15.566 15.674 -15.53 13.698 C-15.518 12.575 -15.506 11.453 -15.494 10.296 C-14.735 5.934 -12.721 3.526 -9.154 0.979 C-6.057 -0.019 -3.252 0.012 0 0 Z M32.032 4.275 C36.032 5.275 36.032 5.275 36.032 5.275 Z M5.032 34.275 C3.032 36.275 3.032 36.275 2.907 38.9 C2.948 39.683 2.989 40.467 3.032 41.275 C7.782 39.4 7.782 39.4 10.032 38.275 C9.702 36.955 9.372 35.635 9.032 34.275 C7.712 34.275 6.392 34.275 5.032 34.275 Z " fill="#42B6FF" transform="translate(17.96826171875,15.725341796875)"/>
<path d="M0 0 C0.5 0.024 0.5 0.024 3.031 0.143 C4.111 0.191 5.19 0.24 6.302 0.289 C7.439 0.345 8.575 0.401 9.746 0.459 C10.316 0.485 10.316 0.485 13.201 0.617 C16.029 0.748 18.856 0.884 21.683 1.022 C21.353 7.292 21.023 13.562 20.683 20.022 C32.871 19.62 32.871 19.62 35.871 16.522 C36.469 15.697 37.067 14.872 37.683 14.022 C38.013 13.692 38.343 13.362 38.683 13.022 C38.918 11.006 39.097 8.983 39.246 6.959 C39.33 5.855 39.413 4.75 39.5 3.612 C39.53 3.184 39.53 3.184 39.683 1.022 C43.495 0.826 47.308 0.641 51.121 0.459 C52.209 0.403 53.298 0.347 54.42 0.289 C55.454 0.241 56.489 0.193 57.554 0.143 C58.513 0.096 59.471 0.049 60.458 0 C62.683 0.022 62.683 0.022 63.683 1.022 C65.239 15.533 65.239 15.533 61.933 20.823 C59.746 22.897 59.746 22.897 57.531 24.576 C55.683 26.022 55.683 26.022 54.683 29.022 C55.673 29.352 56.663 29.682 57.683 30.022 C60.534 31.915 62.207 33.933 63.683 37.022 C64.489 42.303 64.171 47.723 63.683 53.022 C61.235 55.47 54.991 54.507 51.683 54.647 C50.647 54.698 49.611 54.75 48.543 54.803 C48.05 54.825 48.05 54.825 45.558 54.936 C44.648 54.977 43.738 55.017 42.801 55.059 C40.683 55.022 40.683 55.022 39.683 54.022 C39.577 51.96 39.499 49.897 39.433 47.834 C38.839 40.216 38.839 40.216 36.871 37.209 C32.032 33.888 27.377 34.531 21.683 35.022 C21.695 36.31 21.707 37.597 21.719 38.924 C21.728 40.602 21.737 42.281 21.746 43.959 C21.754 44.809 21.763 45.66 21.771 46.535 C21.773 46.94 21.773 46.94 21.781 48.987 C21.784 49.361 21.784 49.361 21.797 51.256 C21.683 53.022 21.683 53.022 20.683 54.022 C16.877 54.274 13.059 54.207 9.246 54.209 C8.708 54.215 8.708 54.215 5.986 54.246 C4.959 54.248 3.933 54.25 2.875 54.252 C2.401 54.254 2.401 54.254 0.006 54.265 C-2.317 54.022 -2.317 54.022 -4.317 52.022 C-4.526 49.852 -4.526 49.852 -4.468 47.129 C-4.451 46.111 -4.434 45.094 -4.416 44.045 C-4.387 42.943 -4.358 41.841 -4.328 40.705 C-4.306 39.579 -4.283 38.452 -4.26 37.291 C-4.21 34.906 -4.155 32.521 -4.095 30.136 C-4.004 26.471 -3.93 22.806 -3.858 19.141 C-3.807 16.829 -3.756 14.517 -3.703 12.205 C-3.68 11.101 -3.657 9.997 -3.634 8.859 C-3.607 7.845 -3.581 6.83 -3.554 5.785 C-3.532 4.887 -3.511 3.99 -3.488 3.065 C-3.242 0.128 -2.964 0.028 0 0 Z " fill="#111314" transform="translate(168.316650390625,16.978271484375)"/>
<path d="M0 0 C0.47 0.001 0.47 0.001 2.846 0.007 C3.907 0.007 4.968 0.007 6.062 0.007 C7.216 0.012 8.37 0.017 9.559 0.023 C10.734 0.024 11.909 0.025 13.12 0.027 C16.89 0.033 20.66 0.045 24.43 0.058 C26.979 0.063 29.528 0.067 32.077 0.071 C38.34 0.082 44.604 0.099 50.868 0.12 C51.033 1.558 51.197 2.995 51.36 4.433 C51.451 5.233 51.543 6.034 51.637 6.859 C51.886 9.301 52.021 11.668 51.868 14.12 C50.868 15.12 50.868 15.12 48.092 15.234 C46.882 15.229 45.673 15.223 44.426 15.218 C43.121 15.215 41.816 15.211 40.471 15.208 C39.083 15.2 37.694 15.191 36.305 15.183 C34.913 15.178 33.52 15.173 32.127 15.169 C28.707 15.157 25.288 15.141 21.868 15.12 C21.868 15.78 21.868 16.44 21.868 17.12 C22.528 17.45 23.188 17.78 23.868 18.12 C23.208 18.12 22.548 18.12 21.868 18.12 C21.868 18.78 21.868 19.44 21.868 20.12 C31.438 19.79 41.008 19.46 50.868 19.12 C52.041 22.642 51.997 25.444 52 29.159 C52.001 29.841 52.002 30.522 52.003 31.224 C52.004 32.662 52.002 34.099 51.998 35.536 C51.993 37.744 51.998 39.952 52.004 42.159 C52.004 43.555 52.002 44.951 52 46.347 C51.999 47.621 51.998 48.896 51.997 50.209 C51.868 53.12 51.868 53.12 50.868 54.12 C49.361 54.253 47.848 54.319 46.335 54.357 C45.371 54.384 44.406 54.41 43.412 54.437 C42.361 54.46 41.31 54.483 40.227 54.507 C39.153 54.532 38.078 54.558 36.971 54.584 C34.692 54.636 32.412 54.686 30.132 54.733 C26.646 54.807 23.161 54.898 19.676 54.989 C17.464 55.038 15.252 55.085 13.04 55.132 C11.997 55.161 10.954 55.19 9.879 55.22 C9.391 55.229 9.391 55.229 6.917 55.271 C6.489 55.281 6.489 55.281 4.322 55.33 C1.868 55.12 1.868 55.12 -3.132 53.12 C-3.132 48.83 -3.132 44.54 -3.132 40.12 C-0.159 38.633 2.531 39.009 5.844 39.023 C6.187 39.023 6.187 39.023 7.921 39.027 C10.111 39.032 12.302 39.045 14.493 39.058 C15.977 39.063 17.461 39.067 18.946 39.071 C22.586 39.082 26.227 39.1 29.868 39.12 C29.868 37.8 29.868 36.48 29.868 35.12 C19.308 35.12 8.748 35.12 -2.132 35.12 C-3.306 31.599 -3.262 28.796 -3.265 25.081 C-3.266 24.4 -3.267 23.718 -3.268 23.016 C-3.269 21.579 -3.267 20.142 -3.263 18.704 C-3.257 16.496 -3.263 14.289 -3.269 12.081 C-3.268 10.685 -3.267 9.29 -3.265 7.894 C-3.264 6.619 -3.263 5.345 -3.262 4.032 C-3.09 0.174 -3.09 0.174 0 0 Z " fill="#111314" transform="translate(108.13233947753906,16.879745483398438)"/>
<path d="M0 0 C9.284 -0.07 18.568 -0.123 27.852 -0.155 C32.163 -0.171 36.474 -0.192 40.786 -0.226 C44.948 -0.259 49.111 -0.277 53.274 -0.285 C54.86 -0.29 56.446 -0.301 58.032 -0.317 C60.258 -0.339 62.483 -0.342 64.709 -0.341 C65.975 -0.347 67.241 -0.354 68.545 -0.361 C73.232 0.129 76.422 1.506 79.85 4.751 C81.463 7.906 81.389 10.447 81.404 13.984 C81.411 14.679 81.418 15.374 81.425 16.09 C81.443 18.382 81.439 20.673 81.434 22.965 C81.438 24.561 81.443 26.158 81.449 27.755 C81.458 31.099 81.456 34.444 81.446 37.789 C81.435 42.071 81.455 46.352 81.484 50.634 C81.502 53.931 81.502 57.227 81.496 60.524 C81.496 62.103 81.502 63.681 81.515 65.26 C81.53 67.469 81.519 69.677 81.502 71.886 C81.502 73.142 81.501 74.398 81.501 75.692 C80.904 79.631 79.82 81.229 77 84 C74.121 85.898 71.923 86.247 68.507 86.227 C68.067 86.227 68.067 86.227 65.838 86.227 C65.367 86.221 65.367 86.221 62.984 86.195 C62.013 86.192 61.042 86.19 60.042 86.187 C56.945 86.176 53.847 86.15 50.75 86.125 C48.648 86.115 46.547 86.106 44.445 86.098 C39.297 86.076 34.148 86.041 29 86 C29 85.67 29 85.34 29 85 C29.31 84.963 29.31 84.963 30.879 84.773 C46.339 82.478 62.985 75.15 74 64 C74.66 64 75.32 64 76 64 C78.044 59.504 80.049 54.863 78.262 49.984 C70.565 36.125 51.433 32.33 37.453 27.942 C24.619 23.815 24.619 23.815 21.562 18.5 C20.963 15.837 20.851 14.475 22 12 C22.99 11.67 23.98 11.34 25 11 C25.66 10.34 26.32 9.68 27 9 C28.317 8.303 29.649 7.63 31 7 C29.02 7.33 27.04 7.66 25 8 C25.66 7.01 26.32 6.02 27 5 C27 4.34 27 3.68 27 3 C23.952 1.984 21.653 1.802 18.457 1.684 C17.384 1.642 16.311 1.6 15.205 1.557 C14.086 1.517 12.966 1.478 11.812 1.438 C10.681 1.394 9.55 1.351 8.385 1.307 C5.59 1.201 2.795 1.098 0 1 C0 0.67 0 0.34 0 0 Z M39 4 C43 5 43 5 43 5 Z " fill="#49C9FF" transform="translate(11,16)"/>
<path d="M0 0 C0.425 -0.001 0.425 -0.001 2.574 -0.004 C3.021 -0.002 3.021 -0.002 5.281 0.008 C6.175 0.004 7.068 0 7.988 -0.004 C8.838 -0.003 9.687 -0.001 10.562 0 C11.347 0.001 12.131 0.002 12.939 0.003 C14.781 0.133 14.781 0.133 15.781 1.133 C15.874 2.637 15.899 4.146 15.895 5.653 C15.895 6.614 15.895 7.574 15.895 8.564 C15.889 9.609 15.884 10.654 15.879 11.73 C15.877 12.794 15.876 13.858 15.875 14.955 C15.869 18.368 15.856 21.782 15.844 25.195 C15.839 27.503 15.834 29.811 15.83 32.119 C15.819 37.79 15.802 43.462 15.781 49.133 C16.441 49.463 17.101 49.793 17.781 50.133 C17.121 50.133 16.461 50.133 15.781 50.133 C15.781 51.453 15.781 52.773 15.781 54.133 C8.851 54.133 1.921 54.133 -5.219 54.133 C-5.243 46.603 -5.262 39.073 -5.274 31.544 C-5.279 28.98 -5.286 26.416 -5.294 23.852 C-5.306 20.176 -5.312 16.5 -5.316 12.824 C-5.322 11.67 -5.327 10.516 -5.332 9.327 C-5.332 8.266 -5.332 7.205 -5.332 6.112 C-5.334 5.172 -5.337 4.233 -5.339 3.265 C-5.124 -0.553 -3.369 0.005 0 0 Z " fill="#171819" transform="translate(242.21875,16.8671875)"/>
<path d="M0 0 C1.937 0.812 1.937 0.812 4 2 C4.33 2.99 4.66 3.98 5 5 C5.66 5.33 6.32 5.66 7 6 C7.33 6.99 7.66 7.98 8 9 C11 11 11 11 13.199 11.434 C16.94 12.19 20.293 13.611 23.812 15.062 C24.505 15.344 25.198 15.626 25.912 15.916 C27.61 16.607 29.305 17.303 31 18 C29.513 21.919 27.732 23.173 24 25 C11.706 29.906 -2.571 35.364 -15.785 31.102 C-18.861 29.572 -19.729 28.177 -21 25 C-20.688 21.188 -20.688 21.188 -20 18 C-18.35 18.33 -16.7 18.66 -15 19 C-15 19.66 -15 20.32 -15 21 C-12.03 21.33 -9.06 21.66 -6 22 C-5.67 21.34 -5.34 20.68 -5 20 C-6.98 20.33 -8.96 20.66 -11 21 C-11 20.34 -11 19.68 -11 19 C-7.795 16.378 -6.38 15.969 -2.188 16.312 C-1.136 16.539 -0.084 16.766 1 17 C1 16.01 1 15.02 1 14 C0.5 13.537 -0 13.074 -0.516 12.598 C-2 11 -2 11 -2.109 8.809 C-1.991 8.026 -1.872 7.244 -1.75 6.438 C-1.642 5.652 -1.533 4.867 -1.422 4.059 C-1 2 -1 2 0 0 Z " fill="#3691FF" transform="translate(24,70)"/>
<path d="M0 0 C1.288 -0.001 2.576 -0.003 3.902 -0.004 C4.567 -0.002 5.231 0 5.916 0.002 C7.961 0.008 10.006 0.002 12.051 -0.004 C12.692 -0.003 12.692 -0.003 15.938 0 C17.115 0.001 18.293 0.002 19.507 0.003 C22.203 0.133 22.203 0.133 23.203 1.133 C23.36 2.765 23.454 4.404 23.52 6.043 C23.561 7.032 23.603 8.022 23.646 9.041 C23.686 10.082 23.725 11.123 23.766 12.195 C23.809 13.24 23.852 14.285 23.896 15.361 C24.003 17.952 24.105 20.542 24.203 23.133 C17.238 25.754 10.255 25.464 2.891 25.445 C1.603 25.461 0.316 25.478 -1.01 25.494 C-1.622 25.494 -1.622 25.494 -4.723 25.496 C-5.282 25.498 -5.282 25.498 -8.111 25.505 C-8.997 25.382 -9.884 25.259 -10.797 25.133 C-13.354 21.297 -12.837 19.474 -12.422 14.945 C-12.311 13.673 -12.2 12.401 -12.086 11.09 C-11.991 10.114 -11.895 9.138 -11.797 8.133 C-8.604 7.068 -6.592 7.095 -3.254 7.254 C-2.717 7.278 -2.717 7.278 -0.002 7.4 C1.118 7.456 2.237 7.513 3.391 7.57 C3.956 7.596 3.956 7.596 6.818 7.729 C9.614 7.858 12.408 7.993 15.203 8.133 C15.533 9.123 15.863 10.113 16.203 11.133 C14.536 13.178 13.678 14.058 11.027 14.473 C10.204 14.458 9.382 14.442 8.535 14.426 C7.642 14.416 6.75 14.406 5.83 14.396 C5.366 14.384 5.366 14.384 3.016 14.32 C2.075 14.307 1.135 14.293 0.166 14.279 C-2.156 14.244 -4.476 14.195 -6.797 14.133 C-7.127 16.113 -7.457 18.093 -7.797 20.133 C0.783 20.133 9.363 20.133 18.203 20.133 C17.873 16.173 17.543 12.213 17.203 8.133 C17.533 7.143 17.863 6.153 18.203 5.133 C8.633 5.463 -0.937 5.793 -10.797 6.133 C-11.127 4.483 -11.457 2.833 -11.797 1.133 C-7.811 0.188 -4.092 0.004 0 0 Z " fill="#383A3C" transform="translate(155.796875,76.8671875)"/>
<path d="M0 0 C2 2 2 2 2.266 5.082 C2.26 6.313 2.255 7.544 2.25 8.812 C2.253 9.424 2.253 9.424 2.266 12.52 C2.006 15.916 1.701 18.065 0 21 C-4.645 24.864 -9.38 24.388 -15.113 24.293 C-16.083 24.289 -17.052 24.284 -18.051 24.28 C-21.139 24.263 -24.225 24.226 -27.312 24.188 C-29.409 24.172 -31.507 24.159 -33.604 24.146 C-38.736 24.113 -43.868 24.062 -49 24 C-49 23.67 -49 23.34 -49 23 C-48.38 22.925 -47.76 22.85 -47.121 22.773 C-31.828 20.503 -14.783 13.215 -4 2 C-1.688 0.688 -1.688 0.688 0 0 Z " fill="#479BFF" transform="translate(89,78)"/>
<path d="M0 0 C0 3.63 0 7.26 0 11 C0.66 11.33 1.32 11.66 2 12 C1.34 12 0.68 12 0 12 C0.165 12.495 0.165 12.495 1 15 C-1.662 16.331 -3.687 16.113 -6.664 16.098 C-7.786 16.094 -8.907 16.091 -10.062 16.088 C-11.238 16.08 -12.414 16.071 -13.625 16.062 C-14.808 16.058 -15.992 16.053 -17.211 16.049 C-20.141 16.037 -23.07 16.021 -26 16 C-26.66 14.68 -27.32 13.36 -28 12 C-25.495 10.748 -23.791 10.886 -20.992 10.902 C-20.006 10.906 -19.02 10.909 -18.004 10.912 C-16.971 10.92 -15.939 10.929 -14.875 10.938 C-14.355 10.94 -14.355 10.94 -11.723 10.951 C-9.148 10.963 -6.574 10.979 -4 11 C-4.33 9.02 -4.66 7.04 -5 5 C-12.92 5 -20.84 5 -29 5 C-29.33 13.25 -29.66 21.5 -30 30 C-31.65 30.33 -33.3 30.66 -35 31 C-36.257 21.013 -36.094 11.044 -36 1 C-33.013 -0.493 -30.203 -0.243 -26.875 -0.352 C-26.524 -0.363 -26.524 -0.363 -24.746 -0.422 C-23.26 -0.469 -21.773 -0.515 -20.287 -0.558 C-18.009 -0.625 -15.731 -0.702 -13.453 -0.781 C-12.01 -0.826 -10.568 -0.87 -9.125 -0.914 C-7.808 -0.955 -6.49 -0.996 -5.133 -1.038 C-2 -1 -2 -1 0 0 Z " fill="#404143" transform="translate(258,78)"/>
<path d="M0 0 C1.434 0.042 2.867 0.09 4.301 0.143 C4.677 0.155 4.677 0.155 6.583 0.214 C8.998 0.291 11.413 0.375 13.828 0.459 C15.461 0.512 17.095 0.565 18.728 0.617 C22.741 0.747 26.753 0.883 30.765 1.022 C32.391 4.272 31.908 7.829 31.89 11.397 C31.892 11.781 31.892 11.781 31.902 13.725 C31.901 14.47 31.9 15.215 31.898 15.983 C31.897 16.661 31.896 17.34 31.895 18.039 C31.758 20.134 31.333 22.004 30.765 24.022 C29.115 23.692 27.465 23.362 25.765 23.022 C25.765 17.412 25.765 11.802 25.765 6.022 C22.795 6.022 19.825 6.022 16.765 6.022 C16.783 6.624 16.783 6.624 16.871 9.67 C16.899 11.246 16.926 12.821 16.953 14.397 C16.978 15.191 17.003 15.985 17.029 16.803 C17.055 18.878 16.92 20.953 16.765 23.022 C15.775 23.682 14.785 24.342 13.765 25.022 C12.775 24.692 11.785 24.362 10.765 24.022 C10.765 17.752 10.765 11.482 10.765 5.022 C9.28 5.187 9.28 5.187 1.765 6.022 C1.6 8.497 1.6 8.497 0.765 21.022 C1.425 21.352 2.085 21.682 2.765 22.022 C-0.235 24.022 -0.235 24.022 -2.36 23.834 C-2.978 23.566 -3.597 23.298 -4.235 23.022 C-5.202 20.12 -5.306 18.592 -5.149 15.608 C-5.105 14.765 -5.061 13.922 -5.016 13.053 C-4.964 12.176 -4.913 11.3 -4.86 10.397 C-4.816 9.512 -4.772 8.628 -4.727 7.717 C-4.302 0.029 -4.302 0.029 0 0 Z " fill="#393A3D" transform="translate(188.234619140625,76.978271484375)"/>
<path d="M0 0 C0.365 0.012 0.365 0.012 2.211 0.072 C4.545 0.148 6.878 0.232 9.211 0.316 C10.792 0.37 12.372 0.422 13.953 0.475 C17.831 0.604 21.708 0.74 25.586 0.879 C25.586 2.199 25.586 3.519 25.586 4.879 C15.686 4.879 5.786 4.879 -4.414 4.879 C-4.414 9.829 -4.414 14.779 -4.414 19.879 C5.486 19.879 15.386 19.879 25.586 19.879 C25.586 20.869 25.586 21.859 25.586 22.879 C26.246 22.879 26.906 22.879 27.586 22.879 C27.256 23.539 26.926 24.199 26.586 24.879 C21.638 24.953 16.69 25.007 11.742 25.044 C10.058 25.059 8.374 25.079 6.69 25.105 C4.273 25.142 1.855 25.159 -0.562 25.172 C-1.318 25.187 -2.073 25.203 -2.851 25.219 C-4.974 25.219 -4.974 25.219 -8.414 24.879 C-10.627 21.559 -10.622 20.805 -10.391 16.992 C-10.339 16.054 -10.287 15.117 -10.234 14.15 C-10.17 13.174 -10.105 12.197 -10.039 11.191 C-9.982 10.203 -9.926 9.215 -9.867 8.197 C-9.726 5.757 -9.574 3.318 -9.414 0.879 C-6.388 -0.634 -3.306 -0.126 0 0 Z " fill="#393B3D" transform="translate(114.4140625,77.12109375)"/>
<path d="M0 0 C23.76 0 47.52 0 72 0 C72 0.33 72 0.66 72 1 C71.644 1.035 71.644 1.035 69.844 1.212 C66.623 1.539 63.406 1.894 60.188 2.25 C59.068 2.36 57.948 2.469 56.795 2.582 C56.258 2.643 56.258 2.643 53.543 2.953 C53.048 3.005 53.048 3.005 50.544 3.271 C47.452 4.157 46.618 5.286 45 8 C44.175 7.649 43.35 7.299 42.5 6.938 C38.268 5.804 35.239 6.226 31 7 C29.845 7.186 28.69 7.371 27.5 7.562 C26.675 7.707 25.85 7.851 25 8 C25.66 7.01 26.32 6.02 27 5 C27 4.34 27 3.68 27 3 C23.952 1.984 21.653 1.802 18.457 1.684 C17.384 1.642 16.311 1.6 15.205 1.557 C14.086 1.517 12.966 1.478 11.812 1.438 C10.681 1.394 9.55 1.351 8.385 1.307 C5.59 1.201 2.795 1.098 0 1 C0 0.67 0 0.34 0 0 Z M39 4 C43 5 43 5 43 5 Z " fill="#98EAFF" transform="translate(11,16)"/>
<path d="M0 0 C2.188 1.625 2.188 1.625 3.188 4.625 C2.198 4.955 1.207 5.285 0.188 5.625 C-0.142 6.285 -0.472 6.945 -0.812 7.625 C-1.472 7.625 -2.133 7.625 -2.812 7.625 C-3.472 9.275 -4.133 10.925 -4.812 12.625 C-3.492 12.955 -2.172 13.285 -0.812 13.625 C-1.472 13.955 -2.133 14.285 -2.812 14.625 C-2.812 15.285 -2.812 15.945 -2.812 16.625 C-2.153 16.955 -1.492 17.285 -0.812 17.625 C-4.352 17.625 -5.086 16.935 -7.812 14.812 C-8.493 14.29 -9.174 13.768 -9.875 13.23 C-13.854 9.933 -15.349 7.69 -16.812 2.625 C-11.906 -3.056 -6.524 -3.19 0 0 Z " fill="#4EB5FF" transform="translate(52.8125,55.375)"/>
<path d="M0 0 C1.98 0 3.96 0 6 0 C6 0.66 6 1.32 6 2 C7.176 2.227 8.351 2.454 9.562 2.688 C14.13 3.703 18.555 5.051 23 6.5 C23.671 6.714 24.342 6.927 25.033 7.147 C26.71 7.705 28.358 8.347 30 9 C30.33 9.66 30.66 10.32 31 11 C31.722 11.268 32.444 11.536 33.188 11.812 C36.787 13.332 39.078 15.417 42 18 C41.67 18.66 41.34 19.32 41 20 C39.68 20 38.36 20 37 20 C36.34 18.35 35.68 16.7 35 15 C33.35 15.66 31.7 16.32 30 17 C30 15.02 30 13.04 30 11 C28.68 11 27.36 11 26 11 C26 10.34 26 9.68 26 9 C25.67 9.165 25.67 9.165 24 10 C24 10.99 24 11.98 24 13 C21.562 13.875 21.562 13.875 18 14 C14.42 12.133 10.869 9.869 8 7 C5.672 6.632 3.338 6.298 1 6 C0.67 4.02 0.34 2.04 0 0 Z " fill="#6FCAFF" transform="translate(41,44)"/>
<path d="M0 0 C0.99 0 1.98 0 3 0 C3 3.3 3 6.6 3 10 C3.66 10.33 4.32 10.66 5 11 C4.34 11 3.68 11 3 11 C3.33 11.99 3.66 12.98 4 14 C1.338 15.331 -0.687 15.113 -3.664 15.098 C-4.786 15.094 -5.907 15.091 -7.062 15.088 C-8.238 15.08 -9.414 15.071 -10.625 15.062 C-11.808 15.058 -12.992 15.053 -14.211 15.049 C-17.141 15.037 -20.07 15.021 -23 15 C-23.66 13.68 -24.32 12.36 -25 11 C-22.495 9.748 -20.791 9.886 -17.992 9.902 C-17.006 9.906 -16.02 9.909 -15.004 9.912 C-13.971 9.92 -12.939 9.929 -11.875 9.938 C-11.355 9.94 -11.355 9.94 -8.723 9.951 C-6.148 9.963 -3.574 9.979 -1 10 C-1.33 7.69 -1.66 5.38 -2 3 C-1.34 3 -0.68 3 0 3 C0 2.01 0 1.02 0 0 Z " fill="#525456" transform="translate(255,79)"/>
<path d="M0 0 C1.084 0.047 2.168 0.094 3.285 0.143 C3.87 0.167 3.87 0.167 6.83 0.289 C7.446 0.317 7.446 0.317 10.562 0.459 C11.798 0.511 13.033 0.564 14.306 0.617 C17.371 0.748 20.435 0.883 23.5 1.022 C23.83 2.012 24.16 3.002 24.5 4.022 C22.832 6.066 21.975 6.947 19.323 7.362 C18.501 7.347 17.679 7.331 16.832 7.315 C15.939 7.305 15.046 7.295 14.127 7.285 C13.662 7.273 13.662 7.273 11.312 7.209 C10.372 7.196 9.432 7.182 8.463 7.168 C6.141 7.133 3.821 7.084 1.5 7.022 C0.84 9.332 0.18 11.642 -0.5 14.022 C-1.49 14.022 -2.48 14.022 -3.5 14.022 C-3.527 11.876 -3.547 9.73 -3.563 7.584 C-3.574 6.389 -3.586 5.194 -3.598 3.963 C-3.467 0.03 -3.467 0.03 0 0 Z " fill="#414245" transform="translate(147.500244140625,83.978271484375)"/>
<path d="M0 0 C0.371 0.413 0.371 0.413 2.25 2.5 C5.425 5.386 7.896 5.959 12 7 C12.049 12.375 12.086 17.75 12.11 23.125 C12.12 24.955 12.134 26.784 12.151 28.614 C12.175 31.24 12.186 33.866 12.195 36.492 C12.206 37.313 12.216 38.134 12.227 38.98 C12.227 40.988 12.122 42.996 12 45 C11.34 45.66 10.68 46.32 10 47 C10 41.39 10 35.78 10 30 C9.01 30 8.02 30 7 30 C7.309 29.319 7.619 28.639 7.938 27.938 C10.771 20.104 10.771 20.104 9.262 15.984 C6.076 10.248 1.575 7.236 -4 4 C-4.505 3.691 -4.505 3.691 -7.062 2.125 C-7.702 1.754 -8.341 1.383 -9 1 C-8.67 0.34 -8.34 -0.32 -8 -1 C-4.176 -2.208 -3.475 -2.316 0 0 Z M9 7 C10 9 10 9 10 9 Z " fill="#4BBBFF" transform="translate(80,50)"/>
<path d="M0 0 C1.938 0.812 1.938 0.812 4 2 C4.33 2.99 4.66 3.98 5 5 C5.66 5.33 6.32 5.66 7 6 C7.33 6.99 7.66 7.98 8 9 C11.021 11.014 12.53 11.354 16 12 C18.007 12.644 20.009 13.306 22 14 C22 14.33 22 14.66 22 15 C15.25 14.125 15.25 14.125 13 13 C12.67 13.66 12.34 14.32 12 15 C11.443 14.814 10.886 14.629 10.312 14.438 C8 14 8 14 5.5 14.562 C2.537 15.081 1.456 14.666 -1 13 C-2.243 10.515 -1.954 9.236 -1.625 6.5 C-1.535 5.706 -1.445 4.912 -1.352 4.094 C-1 2 -1 2 0 0 Z " fill="#3EA0FF" transform="translate(24,70)"/>
<path d="M0 0 C5.28 0.165 5.28 0.165 32 1 C32 7.6 32 14.2 32 21 C31.01 20.67 30.02 20.34 29 20 C29 14.39 29 8.78 29 3 C19.1 3 9.2 3 -1 3 C-0.67 2.01 -0.34 1.02 0 0 Z " fill="#141618" transform="translate(146,78)"/>
<path d="M0 0 C9.57 0.33 19.14 0.66 29 1 C29 2.32 29 3.64 29 5 C18.77 5 8.54 5 -2 5 C-1.34 4.67 -0.68 4.34 0 4 C0 2.68 0 1.36 0 0 Z " fill="#232427" transform="translate(111,77)"/>
<path d="M0 0 C2.438 1.562 2.438 1.562 4 4 C3.938 7.625 3.938 7.625 3 11 C-0.489 13.326 -1.897 13.419 -6 13 C-8.312 11.938 -8.312 11.938 -10 10 C-10.75 6.312 -10.75 6.312 -11 3 C-7.212 0.326 -4.645 -0.692 0 0 Z M-7 3 C-8 4 -8 4 -8.062 6.562 C-8.042 7.367 -8.021 8.171 -8 9 C-7.67 9.165 -7.67 9.165 -6 10 C-6 7.69 -6 5.38 -6 3 C-6.33 3 -6.66 3 -7 3 Z M0 3 C-0.33 4.65 -0.66 6.3 -1 8 C-0.01 8 0.98 8 2 8 C1.67 6.35 1.34 4.7 1 3 C0.67 3 0.34 3 0 3 Z M-4 4 C-4 4.66 -4 5.32 -4 6 C-3.34 6 -2.68 6 -2 6 C-2 5.34 -2 4.68 -2 4 C-2.66 4 -3.32 4 -4 4 Z M-4 7 C-4 7.99 -4 8.98 -4 10 C-4.33 10.165 -4.33 10.165 -6 11 C-4.35 11 -2.7 11 -1 11 C-1.99 9.68 -2.98 8.36 -4 7 Z " fill="#757575" transform="translate(267,0)"/>
<path d="M0 0 C4.62 0 9.24 0 14 0 C15.625 3.251 15.143 6.807 15.125 10.375 C15.129 11.143 15.133 11.912 15.137 12.703 C15.135 13.448 15.134 14.193 15.133 14.961 C15.132 15.639 15.131 16.318 15.129 17.017 C14.993 19.112 14.568 20.982 14 23 C12.35 22.67 10.7 22.34 9 22 C9.33 15.73 9.66 9.46 10 3 C9.34 3 8.68 3 8 3 C8 2.34 8 1.68 8 1 C5.36 1 2.72 1 0 1 C0 0.67 0 0.34 0 0 Z " fill="#232528" transform="translate(205,78)"/>
<path d="M0 0 C0.537 0.024 0.537 0.024 3.252 0.146 C4.372 0.203 5.491 0.259 6.645 0.316 C7.21 0.343 7.21 0.343 10.072 0.475 C12.867 0.604 15.662 0.739 18.457 0.879 C18.787 1.869 19.117 2.859 19.457 3.879 C9.557 3.879 -0.343 3.879 -10.543 3.879 C-7.563 -0.591 -5.011 -0.239 0 0 Z " fill="#2E88FF" transform="translate(62.54296875,97.12109375)"/>
<path d="M0 0 C2.566 -0.372 2.566 -0.372 5.777 -0.363 C6.93 -0.363 8.083 -0.362 9.271 -0.361 C10.481 -0.345 11.691 -0.329 12.938 -0.312 C14.143 -0.316 15.349 -0.319 16.592 -0.322 C25.6 -0.267 25.6 -0.267 29 2 C28.67 2.66 28.34 3.32 28 4 C23.05 3.835 23.05 3.835 -2 3 C-1.34 2.01 -0.68 1.02 0 0 Z " fill="#242628" transform="translate(113,98)"/>
<path d="M0 0 C4.29 0 8.58 0 13 0 C13 0.66 13 1.32 13 2 C9.7 2 6.4 2 3 2 C3 8.6 3 15.2 3 22 C2.01 22 1.02 22 0 22 C0 14.74 0 7.48 0 0 Z " fill="#151719" transform="translate(185,79)"/>
<path d="M0 0 C2.97 0 5.94 0 9 0 C9 0.66 9 1.32 9 2 C9.695 1.938 10.39 1.876 11.105 1.812 C14.759 2.049 17.085 3.298 20.312 5 C21.381 5.557 22.45 6.114 23.551 6.688 C24.359 7.121 25.167 7.554 26 8 C24 10 24 10 21.312 10.375 C17.92 9.991 15.94 9.021 13.078 7.223 C8.914 4.773 4.415 2.948 0 1 C0 0.67 0 0.34 0 0 Z " fill="#70B7FF" transform="translate(41,77)"/>
<path d="M0 0 C0.66 0.33 1.32 0.66 2 1 C2 9.25 2 17.5 2 26 C1.01 26 0.02 26 -1 26 C-1.029 22.042 -1.047 18.083 -1.062 14.125 C-1.071 12.997 -1.079 11.869 -1.088 10.707 C-1.091 9.631 -1.094 8.554 -1.098 7.445 C-1.103 6.45 -1.108 5.455 -1.114 4.43 C-1 2 -1 2 0 0 Z " fill="#141618" transform="translate(225,82)"/>
<path d="M0 0 C1.134 0.021 2.269 0.041 3.438 0.062 C3.767 0.723 4.097 1.383 4.438 2.062 C3.778 2.062 3.117 2.062 2.438 2.062 C2.438 2.723 2.438 3.383 2.438 4.062 C1.777 4.062 1.117 4.062 0.438 4.062 C0.312 10.688 0.312 10.688 1.438 14.062 C-0.219 14.445 -1.887 14.776 -3.562 15.062 C-4.562 14.062 -4.562 14.062 -4.695 11.156 C-4.693 9.97 -4.69 8.784 -4.688 7.562 C-4.69 6.377 -4.693 5.191 -4.695 3.969 C-4.501 -0.292 -4.385 0.077 0 0 Z " fill="#4DCDFF" transform="translate(29.5625,23.9375)"/>
<path d="M0 0 C8.58 0 17.16 0 26 0 C25.67 0.165 25.67 0.165 24 1 C24 1.66 24 2.32 24 3 C16.41 3 8.82 3 1 3 C0.67 2.01 0.34 1.02 0 0 Z " fill="#1E1F21" transform="translate(230,90)"/>
<path d="M0 0 C0.33 0 0.66 0 1 0 C1 10.89 1 21.78 1 33 C11.56 33 22.12 33 33 33 C32.835 33.33 32.835 33.33 32 35 C21.44 35 10.88 35 0 35 C-1.174 31.479 -1.13 28.676 -1.133 24.961 C-1.134 24.279 -1.135 23.598 -1.136 22.896 C-1.136 21.459 -1.135 20.021 -1.13 18.584 C-1.125 16.376 -1.13 14.169 -1.137 11.961 C-1.136 10.565 -1.135 9.169 -1.133 7.773 C-1.132 6.499 -1.131 5.225 -1.129 3.912 C-1 1 -1 1 0 0 Z " fill="#404545" transform="translate(106,17)"/>
<path d="M0 0 C0.66 1.98 1.32 3.96 2 6 C1.01 6 0.02 6 -1 6 C-1.33 5.34 -1.66 4.68 -2 4 C-6.899 5.361 -8.415 7.753 -11 12 C-11.33 12 -11.66 12 -12 12 C-12.357 8.165 -12.298 6.447 -10.125 3.188 C-6.76 -0.276 -4.714 -0.102 0 0 Z " fill="#59DAFF" transform="translate(15,17)"/>
<path d="M0 0 C0.33 0 0.66 0 1 0 C1.049 5.375 1.086 10.75 1.11 16.125 C1.12 17.955 1.134 19.784 1.151 21.614 C1.175 24.24 1.186 26.866 1.195 29.492 C1.206 30.313 1.216 31.134 1.227 31.98 C1.227 33.988 1.122 35.996 1 38 C0.34 38.66 -0.32 39.32 -1 40 C-1 34.39 -1 28.78 -1 23 C-1.99 23 -2.98 23 -4 23 C-3.691 22.319 -3.381 21.639 -3.062 20.938 C-0.938 15.065 -0.589 10.815 -3 5 C-2.34 5 -1.68 5 -1 5 C-0.67 3.35 -0.34 1.7 0 0 Z " fill="#63B4FF" transform="translate(91,57)"/>
<path d="M0 0 C0.66 0 1.32 0 2 0 C2 0.99 2 1.98 2 3 C2.99 3.33 3.98 3.66 5 4 C3.875 6.375 3.875 6.375 2 9 C1.495 9.165 1.495 9.165 -1.062 10 C-4 11 -4 11 -5.375 13.625 C-5.581 14.409 -5.788 15.192 -6 16 C-8.366 12.451 -8.109 11.424 -7.625 7.312 C-7.514 6.319 -7.403 5.325 -7.289 4.301 C-7.194 3.542 -7.098 2.782 -7 2 C-6.67 2 -6.34 2 -6 2 C-6 3.65 -6 5.3 -6 7 C-5.216 6.505 -4.433 6.01 -3.625 5.5 C-1 4 -1 4 1 4 C0.67 2.68 0.34 1.36 0 0 Z " fill="#79CAFF" transform="translate(27,50)"/>
<path d="M0 0 C1.65 0.33 3.3 0.66 5 1 C5 1.66 5 2.32 5 3 C7.31 3.33 9.62 3.66 12 4 C12 4.33 12 4.66 12 5 C9.69 5 7.38 5 5 5 C5.33 7.64 5.66 10.28 6 13 C3.056 12.695 2.141 12.165 0.188 9.875 C-1.328 6.206 -0.825 3.825 0 0 Z " fill="#56A1FF" transform="translate(4,88)"/>
<path d="M0 0 C-0.33 0.66 -0.66 1.32 -1 2 C-3.97 2 -6.94 2 -10 2 C-9.965 3.204 -9.93 4.408 -9.895 5.648 C-9.866 7.224 -9.839 8.799 -9.812 10.375 C-9.8 10.772 -9.8 10.772 -9.736 12.781 C-9.71 14.856 -9.845 16.931 -10 19 C-10.99 19.66 -11.98 20.32 -13 21 C-13.99 20.67 -14.98 20.34 -16 20 C-16 13.73 -16 7.46 -16 1 C-15.67 1 -15.34 1 -15 1 C-15 6.61 -15 12.22 -15 18 C-14.34 18 -13.68 18 -13 18 C-12.939 16.784 -12.879 15.569 -12.816 14.316 C-12.732 12.732 -12.647 11.147 -12.562 9.562 C-12.543 9.161 -12.543 9.161 -12.443 7.131 C-12.113 1.113 -12.113 1.113 -11 0 C-3.783 -1.362 -3.783 -1.362 0 0 Z " fill="#515255" transform="translate(215,81)"/>
<path d="M0 0 C1.938 0.812 1.938 0.812 4 2 C4.33 2.99 4.66 3.98 5 5 C5.66 5.33 6.32 5.66 7 6 C7.33 6.99 7.66 7.98 8 9 C9.562 10.688 9.562 10.688 11 12 C9.35 12 7.7 12 6 12 C4.235 8.912 4 7.767 4 4 C2.062 4.75 2.062 4.75 0 6 C-0.75 8.125 -0.75 8.125 -1 10 C0.32 10.66 1.64 11.32 3 12 C3 12.99 3 13.98 3 15 C-0.875 13.25 -0.875 13.25 -2 11 C-1.914 8.906 -1.914 8.906 -1.625 6.5 C-1.535 5.706 -1.445 4.912 -1.352 4.094 C-1 2 -1 2 0 0 Z " fill="#7FC3FF" transform="translate(24,70)"/>
<path d="M0 0 C0.625 0.003 0.625 0.003 3.789 0.02 C5.091 0.036 6.393 0.053 7.734 0.07 C9.052 0.079 10.369 0.088 11.727 0.098 C14.979 0.121 18.232 0.154 21.484 0.195 C21.484 0.525 21.484 0.855 21.484 1.195 C13.564 1.195 5.644 1.195 -2.516 1.195 C-2.516 1.855 -2.516 2.515 -2.516 3.195 C-4.496 3.855 -6.476 4.515 -8.516 5.195 C-9.176 4.205 -9.836 3.215 -10.516 2.195 C-6.974 -0.001 -4.119 -0.037 0 0 Z " fill="#292B2E" transform="translate(153.515625,96.8046875)"/>
<path d="M0 0 C0.33 0 0.66 0 1 0 C1.136 1.56 1.233 3.124 1.312 4.688 C1.371 5.558 1.429 6.428 1.488 7.324 C0.767 11.276 -0.8 12.642 -4 15 C-6.839 15.368 -9.018 15.486 -11.812 15.312 C-12.505 15.29 -13.198 15.267 -13.912 15.244 C-15.609 15.186 -17.305 15.096 -19 15 C-19 14.67 -19 14.34 -19 14 C-18.596 13.993 -18.596 13.993 -16.551 13.957 C-6.736 13.519 -6.736 13.519 -3.812 10.5 C-3.513 10.087 -3.513 10.087 -2 8 C-1.67 7.67 -1.34 7.34 -1 7 C-0.632 4.672 -0.298 2.338 0 0 Z " fill="#606465" transform="translate(208,23)"/>
<path d="M0 0 C2.31 0 4.62 0 7 0 C5.68 1.32 4.36 2.64 3 4 C3.99 4.33 4.98 4.66 6 5 C6.33 5.99 6.66 6.98 7 8 C5 8.043 3 8.041 1 8 C0 7 0 7 -0.062 3.438 C-0.042 2.303 -0.021 1.169 0 0 Z " fill="#2987FF" transform="translate(9,93)"/>
<path d="M0 0 C3.44 0.612 5.516 1.921 8.25 4.062 C8.956 4.61 9.663 5.158 10.391 5.723 C10.656 5.933 10.656 5.933 12 7 C11.67 7.66 11.34 8.32 11 9 C9.68 9 8.36 9 7 9 C6.34 7.35 5.68 5.7 5 4 C3.35 4.66 1.7 5.32 0 6 C0 4.02 0 2.04 0 0 Z " fill="#59BDFF" transform="translate(71,55)"/>
<path d="M0 0 C1.967 3.293 2.271 5.813 2.25 9.625 C2.253 10.106 2.253 10.106 2.266 12.539 C2 15 2 15 0 17 C-0.365 15.252 -0.716 13.502 -1.062 11.75 C-1.26 10.775 -1.457 9.801 -1.66 8.797 C-2.089 5.269 -1.568 3.135 0 0 Z " fill="#3BAEFF" transform="translate(18,51)"/>
<path d="M0 0 C-0.33 1.65 -0.66 3.3 -1 5 C-4.662 4.505 -6.67 3.943 -9 1 C-9 0.67 -9 0.34 -9 0 C-2.25 -1.125 -2.25 -1.125 0 0 Z " fill="#44BFFF" transform="translate(64,42)"/>
<path d="M0 0 C2.97 0 5.94 0 9 0 C8.67 0.165 8.67 0.165 7 1 C7 1.66 7 2.32 7 3 C7.66 3.66 8.32 4.32 9 5 C6.138 6.431 4.066 5.6 1 5 C1 4.34 1 3.68 1 3 C1.66 3 2.32 3 3 3 C3 2.34 3 1.68 3 1 C2.01 0.67 1.02 0.34 0 0 Z " fill="#54DAFF" transform="translate(77,17)"/>
<path d="M0 0 C2.97 0.33 5.94 0.66 9 1 C9.33 1.99 9.66 2.98 10 4 C9.072 3.979 8.144 3.959 7.188 3.938 C4 4 4 4 1 5 C0.67 3.35 0.34 1.7 0 0 Z " fill="#48BBFF" transform="translate(53,49)"/>
<path d="M0 0 C-0.547 0.217 -0.547 0.217 -3.312 1.312 C-6.094 2.495 -8.064 3.608 -10 6 C-11.32 5.34 -12.64 4.68 -14 4 C-11.978 1.978 -10.741 1.324 -8.125 0.312 C-7.447 0.041 -6.769 -0.231 -6.07 -0.512 C-3.689 -1.073 -2.296 -0.767 0 0 Z " fill="#79DFFF" transform="translate(50,23)"/>
<path d="M0 0 C1.65 0 3.3 0 5 0 C5.625 1.812 5.625 1.812 6 4 C5.67 4.495 5.67 4.495 4 7 C2.68 7 1.36 7 0 7 C0 4.69 0 2.38 0 0 Z M2 1 C2 1.66 2 2.32 2 3 C2.66 3 3.32 3 4 3 C4 2.34 4 1.68 4 1 C3.34 1 2.68 1 2 1 Z " fill="#545454" transform="translate(261,3)"/>
<path d="M0 0 C0.825 0.33 0.825 0.33 5 2 C5 3.98 5 5.96 5 8 C2.562 7.312 2.562 7.312 0 6 C-0.875 3.438 -0.875 3.438 -1 1 C-0.67 0.67 -0.34 0.34 0 0 Z M3 2 C4 4 4 4 4 4 Z " fill="#42B2FF" transform="translate(86,55)"/>
<path d="M0 0 C3.578 -0.325 5.395 -0.43 8.375 1.688 C10.273 4.388 10.359 5.771 10 9 C9.34 9 8.68 9 8 9 C7.34 7.02 6.68 5.04 6 3 C3.69 2.67 1.38 2.34 -1 2 C-0.67 1.34 -0.34 0.68 0 0 Z " fill="#696969" transform="translate(261,0)"/>
<path d="M0 0 C5.538 -0.369 5.538 -0.369 7.875 1.5 C8.246 1.995 8.618 2.49 9 3 C6.291 4.354 3.991 4.065 1 4 C0.67 2.68 0.34 1.36 0 0 Z " fill="#62AEFF" transform="translate(58,83)"/>
<path d="M0 0 C1.65 0.33 3.3 0.66 5 1 C4.67 1.165 4.67 1.165 3 2 C3 2.66 3 3.32 3 4 C2.34 4 1.68 4 1 4 C0.67 5.98 0.34 7.96 0 10 C-0.33 10 -0.66 10 -1 10 C-2.25 3.375 -2.25 3.375 0 0 Z " fill="#74DCFF" transform="translate(29,24)"/>
<path d="M0 0 C0.66 0.33 1.32 0.66 2 1 C0.375 3.938 0.375 3.938 -2 7 C-5.25 7.875 -5.25 7.875 -8 8 C-5.333 5.333 -2.667 2.667 0 0 Z " fill="#6CB3FF" transform="translate(85,80)"/>
<path d="M0 0 C0.66 0.33 1.32 0.66 2 1 C2 3.31 2 5.62 2 8 C0.35 8 -1.3 8 -3 8 C-1.125 1.125 -1.125 1.125 0 0 Z " fill="#359DFF" transform="translate(73,73)"/>
<path d="M0 0 C1.188 2.562 1.188 2.562 2 5 C-0.64 4.34 -3.28 3.68 -6 3 C-6 2.01 -6 1.02 -6 0 C-3 -1 -3 -1 0 0 Z " fill="#62CAFF" transform="translate(57,42)"/>
<path d="M0 0 C1.938 0.688 1.938 0.688 4 2 C4.75 4.625 4.75 4.625 5 7 C2.36 5.35 -0.28 3.7 -3 2 C-2.01 1.34 -1.02 0.68 0 0 Z " fill="#61C0FF" transform="translate(81,53)"/>
<path d="M0 0 C1.938 0.312 1.938 0.312 4 1 C4.33 1.99 4.66 2.98 5 4 C4.361 4.103 3.721 4.206 3.062 4.312 C2.382 4.539 1.701 4.766 1 5 C0.67 5.99 0.34 6.98 0 8 C-0.981 4.947 -0.981 3.053 0 0 Z " fill="#70D8FF" transform="translate(33,28)"/>
<path d="M0 0 C0.66 0.33 1.32 0.66 2 1 C1.67 1.66 1.34 2.32 1 3 C-0.98 3 -2.96 3 -5 3 C-5.66 4.32 -6.32 5.64 -7 7 C-7.66 5.35 -8.32 3.7 -9 2 C-5.543 -0.304 -4.051 -0.259 0 0 Z " fill="#A5A5A5" transform="translate(265,1)"/>
<path d="M0 0 C2.375 0.25 2.375 0.25 5 1 C6.312 3.062 6.312 3.062 7 5 C5.02 5 3.04 5 1 5 C0.67 3.35 0.34 1.7 0 0 Z " fill="#59ABFF" transform="translate(16,82)"/>
<path d="M0 0 C0.99 0 1.98 0 3 0 C1.547 3.829 -0.429 5.121 -4 7 C-2.926 4.085 -2.222 2.222 0 0 Z " fill="#72B3FF" transform="translate(52,88)"/>
<path d="M0 0 C0.99 0.33 1.98 0.66 3 1 C3.33 1.99 3.66 2.98 4 4 C5.562 5.688 5.562 5.688 7 7 C5.35 7 3.7 7 2 7 C0.539 4.353 0 3.106 0 0 Z " fill="#69B5FF" transform="translate(28,75)"/>
<path d="M0 0 C2.97 0 5.94 0 9 0 C7.688 2 7.688 2 6 4 C5.01 4 4.02 4 3 4 C3 3.34 3 2.68 3 2 C2.01 1.67 1.02 1.34 0 1 C0 0.67 0 0.34 0 0 Z " fill="#4DDAFF" transform="translate(35,17)"/>
<path d="M0 0 C0 0.66 0 1.32 0 2 C-1.98 2.66 -3.96 3.32 -6 4 C-6.66 3.01 -7.32 2.02 -8 1 C-4.933 -0.862 -3.403 -1.215 0 0 Z " fill="#333437" transform="translate(151,98)"/>
<path d="M0 0 C0.99 0.165 0.99 0.165 6 1 C5.34 2.32 4.68 3.64 4 5 C2.02 4.34 0.04 3.68 -2 3 C-1.34 2.01 -0.68 1.02 0 0 Z " fill="#86E4FF" transform="translate(52,19)"/>
<path d="M0 0 C1.65 0.33 3.3 0.66 5 1 C4.67 1.99 4.34 2.98 4 4 C2.35 4.33 0.7 4.66 -1 5 C-0.67 3.35 -0.34 1.7 0 0 Z " fill="#3390FF" transform="translate(4,88)"/>
<path d="M0 0 C0.33 0.99 0.66 1.98 1 3 C0.67 3.66 0.34 4.32 0 5 C-0.66 5 -1.32 5 -2 5 C-2.33 5.66 -2.66 6.32 -3 7 C-3.66 6.34 -4.32 5.68 -5 5 C-5.66 4.67 -6.32 4.34 -7 4 C-6.031 3.711 -5.061 3.422 -4.062 3.125 C-1 2 -1 2 0 0 Z " fill="#72B4FF" transform="translate(26,85)"/>
<path d="M0 0 C1.65 0 3.3 0 5 0 C4.01 0.66 3.02 1.32 2 2 C2.33 3.32 2.66 4.64 3 6 C2.175 5.67 2.175 5.67 -2 4 C-2 3.34 -2 2.68 -2 2 C-1.34 2 -0.68 2 0 2 C0 1.34 0 0.68 0 0 Z " fill="#50B6FF" transform="translate(58,58)"/>
<path d="M0 0 C1.65 0 3.3 0 5 0 C4.34 1.32 3.68 2.64 3 4 C1.68 3.67 0.36 3.34 -1 3 C-0.67 2.01 -0.34 1.02 0 0 Z " fill="#52D8FF" transform="translate(62,19)"/>
<path d="M0 0 C2.511 1.255 2.871 2.501 4 5 C3.01 5.33 2.02 5.66 1 6 C0.34 5.67 -0.32 5.34 -1 5 C-0.67 3.35 -0.34 1.7 0 0 Z " fill="#2A8AFF" transform="translate(76,90)"/>
<path d="M0 0 C1.98 0.66 3.96 1.32 6 2 C5.34 2.66 4.68 3.32 4 4 C3.01 3.34 2.02 2.68 1 2 C1 2.66 1 3.32 1 4 C0.01 4 -0.98 4 -2 4 C-1.34 2.68 -0.68 1.36 0 0 Z " fill="#55A3FF" transform="translate(46,85)"/>
<path d="M0 0 C0.33 0.99 0.66 1.98 1 3 C3.063 4.188 3.063 4.188 5 5 C5 5.99 5 6.98 5 8 C3.062 7.375 3.062 7.375 1 6 C0.25 2.875 0.25 2.875 0 0 Z " fill="#6DB4FF" transform="translate(22,77)"/>
<path d="M0 0 C2 1 4 2 6 3 C5.67 3.66 5.34 4.32 5 5 C3.68 5 2.36 5 1 5 C0.67 3.35 0.34 1.7 0 0 Z " fill="#6EC2FF" transform="translate(77,59)"/>
<path d="M0 0 C3 1 3 1 3 1 Z " fill="#ECEDF1" transform="translate(185,75)"/>
<path d="M0 0 C3 1 3 1 3 1 Z " fill="#EAECEF" transform="translate(256,73)"/>
<path d="" fill="#ECF2F5" transform="translate(0,0)"/>
<path d="" fill="#E7E8E7" transform="translate(0,0)"/>
<path d="M0 0 C2 1 2 1 2 1 Z " fill="#EDEBEF" transform="translate(220,101)"/>
<path d="M0 0 C2 1 2 1 2 1 Z " fill="#EBF8FF" transform="translate(35,101)"/>
<path d="M0 0 C2 1 2 1 2 1 Z " fill="#EEEEF2" transform="translate(210,84)"/>
<path d="" fill="#EBEDEE" transform="translate(0,0)"/>
<path d="" fill="#EBE9EB" transform="translate(0,0)"/>
<path d="M0 0 C2 1 2 1 2 1 Z " fill="#EBEDF0" transform="translate(219,76)"/>
<path d="M0 0 C2 1 2 1 2 1 Z " fill="#E7E7ED" transform="translate(218,74)"/>
<path d="M0 0 C2 1 2 1 2 1 Z " fill="#EBECED" transform="translate(189,74)"/>
<path d="" fill="#ECF0F0" transform="translate(0,0)"/>
<path d="" fill="#EAE9EC" transform="translate(0,0)"/>
<path d="" fill="#EDECF1" transform="translate(0,0)"/>
<path d="" fill="#EAE7EE" transform="translate(0,0)"/>
<path d="" fill="#EAEFF4" transform="translate(0,0)"/>
<path d="" fill="#F9EFF9" transform="translate(0,0)"/>
<path d="" fill="#F0ECEF" transform="translate(0,0)"/>
<path d="" fill="#F2F2EE" transform="translate(0,0)"/>
<path d="" fill="#EFEFF0" transform="translate(0,0)"/>
<path d="" fill="#F2F3EF" transform="translate(0,0)"/>
<path d="" fill="#F0F4F7" transform="translate(0,0)"/>
<path d="" fill="#F0F3F0" transform="translate(0,0)"/>
<path d="" fill="#D3D3D9" transform="translate(0,0)"/>
<path d="" fill="#EDFAFF" transform="translate(0,0)"/>
<path d="" fill="#EFFEFF" transform="translate(0,0)"/>
<path d="" fill="#F4F3EC" transform="translate(0,0)"/>
<path d="" fill="#E9E9DE" transform="translate(0,0)"/>
<path d="" fill="#EDFBFF" transform="translate(0,0)"/>
<path d="" fill="#DCDEE1" transform="translate(0,0)"/>
<path d="" fill="#DCDBE2" transform="translate(0,0)"/>
<path d="" fill="#EFEEF7" transform="translate(0,0)"/>
<path d="" fill="#EAE9E9" transform="translate(0,0)"/>
<path d="" fill="#F2F0F7" transform="translate(0,0)"/>
<path d="" fill="#F0FEFF" transform="translate(0,0)"/>
<path d="" fill="#ECF0EF" transform="translate(0,0)"/>
<path d="" fill="#F0EDF5" transform="translate(0,0)"/>
<path d="" fill="#EDEBEA" transform="translate(0,0)"/>
<path d="" fill="#EAECF3" transform="translate(0,0)"/>
<path d="" fill="#EDF1F2" transform="translate(0,0)"/>
<path d="" fill="#EEF4FF" transform="translate(0,0)"/>
<path d="" fill="#E7ECED" transform="translate(0,0)"/>
<path d="" fill="#F3F1F0" transform="translate(0,0)"/>
<path d="" fill="#F0F6F8" transform="translate(0,0)"/>
<path d="" fill="#FFEDFF" transform="translate(0,0)"/>
<path d="" fill="#EFF7F7" transform="translate(0,0)"/>
<path d="" fill="#EEFCFF" transform="translate(0,0)"/>
<path d="" fill="#EFF0F2" transform="translate(0,0)"/>
<path d="" fill="#FFF0FF" transform="translate(0,0)"/>
<path d="" fill="#E9FFFF" transform="translate(0,0)"/>
<path d="" fill="#E9E9EE" transform="translate(0,0)"/>
<path d="" fill="#EFFAFF" transform="translate(0,0)"/>
<path d="" fill="#F1F2ED" transform="translate(0,0)"/>
<path d="" fill="#EFEAE7" transform="translate(0,0)"/>
<path d="" fill="#F0EFF3" transform="translate(0,0)"/>
<path d="" fill="#FFF0FF" transform="translate(0,0)"/>
<path d="" fill="#E9E9EC" transform="translate(0,0)"/>
<path d="" fill="#FFF0FF" transform="translate(0,0)"/>
<path d="" fill="#E5E5E9" transform="translate(0,0)"/>
<path d="" fill="#ECEDED" transform="translate(0,0)"/>
<path d="" fill="#EFEEF1" transform="translate(0,0)"/>
<path d="" fill="#EEEEEF" transform="translate(0,0)"/>
<path d="" fill="#EBEDEC" transform="translate(0,0)"/>
<path d="" fill="#EDF4F1" transform="translate(0,0)"/>
<path d="" fill="#F5F0F1" transform="translate(0,0)"/>
<path d="" fill="#F1EEF0" transform="translate(0,0)"/>
<path d="" fill="#F0F0F1" transform="translate(0,0)"/>
<path d="" fill="#E7E9E7" transform="translate(0,0)"/>
<path d="" fill="#EFF0EB" transform="translate(0,0)"/>
<path d="" fill="#F4F4EF" transform="translate(0,0)"/>
<path d="" fill="#E2E6E5" transform="translate(0,0)"/>
<path d="" fill="#ECEBEB" transform="translate(0,0)"/>
<path d="" fill="#EEEEEF" transform="translate(0,0)"/>
<path d="" fill="#EEEBEE" transform="translate(0,0)"/>
<path d="" fill="#E9EFEF" transform="translate(0,0)"/>
<path d="" fill="#EBEBE9" transform="translate(0,0)"/>
<path d="" fill="#FFF0FF" transform="translate(0,0)"/>
<path d="" fill="#EFE9EF" transform="translate(0,0)"/>
<path d="" fill="#E9EDEE" transform="translate(0,0)"/>
<path d="" fill="#E8E8EC" transform="translate(0,0)"/>
<path d="" fill="#F0EFED" transform="translate(0,0)"/>
<path d="" fill="#F3F3F0" transform="translate(0,0)"/>
<path d="" fill="#EFF1F3" transform="translate(0,0)"/>
<path d="" fill="#ECFFFF" transform="translate(0,0)"/>
<path d="" fill="#F4F0F1" transform="translate(0,0)"/>
<path d="" fill="#EAE9E9" transform="translate(0,0)"/>
<path d="" fill="#F0F3F4" transform="translate(0,0)"/>
<path d="" fill="#F0FFFF" transform="translate(0,0)"/>
<path d="" fill="#F0F5F4" transform="translate(0,0)"/>
<path d="" fill="#EFEFEF" transform="translate(0,0)"/>
<path d="" fill="#EFF3F0" transform="translate(0,0)"/>
<path d="" fill="#E2F0F0" transform="translate(0,0)"/>
<path d="" fill="#EDF5F5" transform="translate(0,0)"/>
<path d="" fill="#EFF7F7" transform="translate(0,0)"/>
<path d="" fill="#EFEFEE" transform="translate(0,0)"/>
<path d="" fill="#F0F3F4" transform="translate(0,0)"/>
<path d="" fill="#F3F0F2" transform="translate(0,0)"/>
<path d="" fill="#F0F4F6" transform="translate(0,0)"/>
<path d="" fill="#EAE8E9" transform="translate(0,0)"/>
<path d="" fill="#EEF1F0" transform="translate(0,0)"/>
<path d="" fill="#E8E8E8" transform="translate(0,0)"/>
<path d="" fill="#F1EEEF" transform="translate(0,0)"/>
<path d="" fill="#F4EFEF" transform="translate(0,0)"/>
<path d="" fill="#ECF3F5" transform="translate(0,0)"/>
<path d="" fill="#F0F4F6" transform="translate(0,0)"/>
<path d="" fill="#F0F3F6" transform="translate(0,0)"/>
<path d="" fill="#EAECEB" transform="translate(0,0)"/>
<path d="" fill="#F0F4F7" transform="translate(0,0)"/>
<path d="" fill="#EDFFFF" transform="translate(0,0)"/>
<path d="" fill="#EDF0EF" transform="translate(0,0)"/>
<path d="" fill="#F0F2F6" transform="translate(0,0)"/>
<path d="" fill="#F4F1F0" transform="translate(0,0)"/>
<path d="" fill="#ECEEEE" transform="translate(0,0)"/>
<path d="" fill="#EFF8F9" transform="translate(0,0)"/>
<path d="" fill="#F0F8F7" transform="translate(0,0)"/>
<path d="" fill="#F0FFFF" transform="translate(0,0)"/>
<path d="" fill="#EFEFEF" transform="translate(0,0)"/>
<path d="" fill="#EFEFEF" transform="translate(0,0)"/>
</svg>
