<svg xmlns="http://www.w3.org/2000/svg" xmlns:xlink="http://www.w3.org/1999/xlink" xmlns:inkscape="http://www.inkscape.org/namespaces/inkscape" version="1.1" width="4000" height="2500" viewBox="0 0 4000 2500">
<defs>
<clipPath id="clip_1">
<path transform="matrix(1,0,0,-1,0,2500)" d="M0 2500H4000V0H0Z"/>
</clipPath>
</defs>
<g inkscape:groupmode="layer" inkscape:label="Layer 1">
<path transform="matrix(1,0,0,-1,1047.8838,1184.081)" d="M0 0H81.703L130.337-161.426 184.132 .8H250.712L304.527-161.426 353.141 0H433.243L339.976-280.979H272.638L216.821-120.375 160.626-280.979H93.266Z" fill="#231f20"/>
<path transform="matrix(1,0,0,-1,1640.1559,1352.681)" d="M0 0-31.089 78.901-62.578 0ZM-67.76 170.589H6.782L125.535-110.391H42.652L22.727-60.177H-85.284L-105.23-110.391H-186.133Z" fill="#231f20"/>
<g clip-path="url(#clip_1)">
<path transform="matrix(1,0,0,-1,1765.695,1324.3873)" d="M0 0V.8C0 82.103 63.778 145.882 149.862 145.882 198.897 145.882 233.566 131.138 263.055 105.63L217.622 50.614C197.696 67.38 178.171 76.922 150.263 76.922 110.011 76.922 78.901 43.453 78.901 .8V0C78.901-45.433 110.412-77.722 154.644-77.722 173.769-77.722 188.134-73.741 199.297-66.159V-32.29H144.681V24.328H272.638V-100.828C243.129-125.556 202.478-144.281 151.463-144.281 64.579-144.281 0-84.505 0 0" fill="#231f20"/>
<path transform="matrix(1,0,0,-1,2081.3563,1184.081)" d="M0 0H72.14L186.933-147.462V0H263.455V-278.999H196.096L76.542-125.956V-278.999H0Z" fill="#231f20"/>
<path transform="matrix(1,0,0,-1,2394.2227,1184.081)" d="M0 0H224.404V-65.379H76.521V-108.011H210.439V-169.009H76.521V-213.241H226.405V-278.999H0Z" fill="#231f20"/>
<path transform="matrix(1,0,0,-1,2789.2025,1318.0073)" d="M0 0C25.928 0 41.452 12.764 41.452 33.069V33.869C41.452 56.217 25.128 67.38-.4 67.38H-51.415V0ZM-128.737 133.918H3.18C45.833 133.918 75.342 122.754 94.067 104.008 110.412 87.685 118.795 66.558 118.795 39.05V38.271C118.795-4.781 96.068-33.069 61.398-47.834L127.936-145.081H39.072L-17.124-60.598H-51.415V-145.081H-128.737Z" fill="#231f20"/>
<path transform="matrix(1,0,0,-1,1099.1992,1663.4199)" d="M0 0 8.236 9.436C26.855-7.73 44.043-15.734 68.96-15.734 94.362-15.734 111.781-1.453 111.781 17.903V18.388C111.781 36.291 102.345 46.696 63.884 54.427 23.232 62.662 6.782 76.458 6.782 102.113V102.576C6.782 127.746 29.762 147.103 61.23 147.103 85.895 147.103 102.113 140.321 119.279 126.546L111.296 116.625C95.331 130.421 79.365 135.75 60.724 135.75 35.807 135.75 19.357 121.47 19.357 103.798V103.314C19.357 85.41 28.561 74.541 68.707 66.285 107.905 58.323 124.376 44.274 124.376 19.61V19.125C124.376-8.236 100.891-27.087 68.244-27.087 41.136-27.087 20.326-18.135 0 0" fill="#231f20"/>
<path transform="matrix(1,0,0,-1,1264.9432,1518.7285)" d="M0 0H12.574V-111.297L120.501 0H137.667L63.631-74.773 140.827-169.388H124.376L54.679-83.725 12.574-126.314V-169.388H0Z" fill="#231f20"/>
<path transform="matrix(1,0,0,-1,0,2500)" d="M1439.643 981.28H1452.2389V811.892H1439.643Z" fill="#231f20"/>
<path transform="matrix(1,0,0,-1,1691.5177,1629.3065)" d="M0 0-44.527 98.006-89.286 0ZM-50.319 111.781H-38.229L40.63-58.808H26.855L5.329-11.353H-94.594L-116.141-58.808H-129.2Z" fill="#231f20"/>
<path transform="matrix(1,0,0,-1,1767.9824,1518.7285)" d="M0 0H12.574V-111.297L120.501 0H137.667L63.631-74.773 140.805-169.388H124.355L54.679-83.725 12.574-126.314V-169.388H0Z" fill="#231f20"/>
<path transform="matrix(1,0,0,-1,2055.6658,1629.3065)" d="M0 0-44.506 98.006-89.265 0ZM-50.319 111.781H-38.229L40.651-58.808H26.855L5.329-11.353H-94.594L-116.141-58.808H-129.2Z" fill="#231f20"/>
<path transform="matrix(1,0,0,-1,2188.5159,1676.4811)" d="M0 0C47.181 0 76.922 32.184 76.922 72.562V73.046C76.922 113.234 47.181 146.134 0 146.134H-43.79V0ZM-56.385 157.761H0C53.226 157.761 90.002 121.217 90.002 73.551V73.046C90.002 25.402 53.226-11.627 0-11.627H-56.385Z" fill="#231f20"/>
<path transform="matrix(1,0,0,-1,2321.345,1518.7285)" d="M0 0H120.501V-11.627H12.574V-78.165H109.59V-89.77H12.574V-157.761H121.701V-169.388H0Z" fill="#231f20"/>
<path transform="matrix(1,0,0,-1,2483.466,1518.7285)" d="M0 0H11.858L79.849-100.175 147.819 0H159.699V-169.388H147.103V-22.285L80.102-119.764H79.112L12.111-22.285V-169.388H0Z" fill="#231f20"/>
<path transform="matrix(1,0,0,-1,0,2500)" d="M2695.182 981.28H2707.7559V811.892H2695.182Z" fill="#231f20"/>
<path transform="matrix(1,0,0,-1,2759.784,1518.7285)" d="M0 0H120.501V-11.627H12.574V-78.165H109.59V-89.77H12.574V-157.761H121.701V-169.388H0Z" fill="#231f20"/>
<path transform="matrix(1,0,0,-1,1536.2861,1040.887)" d="M0 0-183.858 318.45C-187.018 323.926-192.873 327.317-199.213 327.317-205.553 327.317-211.408 323.926-214.568 318.45L-301.094 168.566-340.25 236.346C-343.41 241.844-349.244 245.214-355.584 245.214-361.924 245.214-367.78 241.844-370.939 236.346L-507.405 0C-510.586-5.497-510.586-12.259-507.405-17.735-504.246-23.233-498.391-26.602-492.051-26.602H-383.071-219.117-15.355C-9.015-26.602-3.159-23.233 0-17.735 3.18-12.259 3.18-5.497 0 0" fill="#d7df22"/>
<path transform="matrix(1,0,0,-1,1923.0896,969.60586)" d="M0 0C-19.251 16.05-48.36 40.335-77.174 67.085-77.238 67.127-77.301 67.19-77.364 67.253-81.471 71.066-85.431 74.794-89.265 78.48-67.696 97.963-40.862 121.174-22.537 137.056-15.566 143.101-9.794 148.072-5.94 151.463 10.784 166.101 18.304 172.716 21.042 175.453 41.641 195.969 41.683 229.459 21.147 250.059 11.205 260.064-2.085 265.561-16.219 265.561-30.288 265.561-43.516 260.105-53.479 250.164-56.217 247.426-62.852 239.948-77.575 223.224-82.166 218.043-89.349 209.555-97.69 199.739-112.518 182.257-132.086 159.256-149.505 139.836-169.009 161.468-192.389 188.492-208.333 206.901-214.378 213.872-219.37 219.644-222.74 223.519-237.4 240.222-243.993 247.741-246.71 250.48-256.694 260.464-269.963 265.982-284.097 265.982-298.167 265.982-311.394 260.506-321.357 250.585-341.956 230.027-341.998 196.559-321.462 175.959-318.724 173.221-311.225 166.586-294.523 151.863-289.32 147.272-280.832 140.068-271.016 131.727-253.387 116.773-230.112 96.973-210.608 79.47-214.757 75.51-219.054 71.445-223.52 67.338-252.439 40.672-281.632 16.471-301.094 .337-312.068-8.762-318.703-14.26-321.757-17.293-331.72-27.235-337.238-40.483-337.259-54.595-337.259-68.686-331.804-81.935-321.862-91.919-311.921-101.903-298.63-107.4-284.497-107.4-270.427-107.4-257.199-101.945-247.258-92.045-244.182-88.991-238.643-82.335-229.417-71.277-213.367-52.025-189.103-22.917-162.353 5.898-162.29 5.961-162.227 6.003-162.184 6.066-158.203 10.363-154.286 14.491-150.452 18.493-146.577 14.449-142.638 10.258-138.615 5.898-111.97-23.001-87.769-52.215-71.635-71.656-62.536-82.63-57.038-89.265-53.984-92.319-44.021-102.324-30.752-107.842-16.619-107.842-2.549-107.842 10.679-102.345 20.642-92.445 41.241-71.909 41.283-38.419 20.768-17.819 17.693-14.744 11.037-9.205 0 0" fill="#52b8e9"/>
<path transform="matrix(1,0,0,-1,2226.128,1079.8849)" d="M0 0C-4.739 0-9.457 1.811-13.08 5.413L-38.693 31.004C-134.802 116.056-204.205 177.56-204.205 258.041-204.205 325.695-151.211 378.711-83.578 378.711-53.184 378.711-23.148 367.232 0 347.369 23.148 367.232 53.184 378.711 83.578 378.711 151.21 378.711 204.205 325.695 204.205 258.041 204.205 177.56 134.802 116.056 38.671 31.004L13.08 5.413C9.478 1.811 4.739 0 0 0" fill="#d390bf"/>
<path transform="matrix(1,0,0,-1,2872.5255,884.3286)" d="M0 0H-41.073L-29.215 20.578C-22.516 32.141-26.498 47.012-38.103 53.752-42.779 56.427-48.382 57.459-53.626 56.743-50.404 60.871-48.466 66.074-48.466 71.698-48.466 85.094-59.334 95.963-72.73 95.963H-96.51L-75.932 131.538C-69.255 143.143-73.257 158.014-84.842 164.69-96.068 171.178-111.549 166.965-117.995 155.802L-138.531 120.227-150.41 140.826C-156.835 151.989-172.379 156.139-183.542 149.714-188.302 146.956-191.926 142.785-193.948 137.772-195.948 142.785-199.571 146.956-204.311 149.694-215.516 156.181-231.039 151.989-237.463 140.826L-249.364 120.227-269.879 155.802C-276.324 166.965-291.848 171.157-303.053 164.69-314.617 158.014-318.598 143.143-311.921 131.538L-291.384 95.963H-315.143C-328.54 95.963-339.408 85.094-339.408 71.698-339.408 66.074-337.47 60.871-334.227 56.743-339.471 57.459-345.074 56.448-349.792 53.731-361.355 47.033-365.357 32.163-358.68 20.578L-346.801 0H-387.853C-401.249 0-412.138-10.89-412.138-24.265-412.138-37.64-401.249-48.551-387.853-48.551H-346.801L-358.68-69.129C-365.357-80.671-361.355-95.542-349.792-102.281-345.116-104.978-339.513-106.052-334.227-105.272-337.47-109.401-339.408-114.604-339.408-120.227-339.408-133.623-328.54-144.513-315.143-144.513H-291.384L-311.921-180.088C-315.165-185.691-316.028-192.241-314.343-198.497-312.679-204.753-308.635-209.997-303.032-213.241-291.806-219.707-276.324-215.495-269.879-204.353L-249.364-168.777-237.463-189.356C-231.018-200.519-215.516-204.689-204.332-198.244-199.571-195.485-195.948-191.315-193.948-186.301-191.926-191.315-188.324-195.485-183.563-198.223-172.337-204.711-156.877-200.519-150.41-189.356L-138.531-168.777-117.974-204.373C-113.656-211.83-105.588-216.485-96.953-216.485-92.719-216.485-88.549-215.368-84.842-213.241-73.257-206.543-69.255-191.673-75.953-180.088L-96.49-144.513H-72.73C-59.334-144.513-48.466-133.623-48.466-120.227-48.466-114.604-50.404-109.401-53.626-105.272-48.361-106.052-42.779-104.978-38.082-102.261-26.498-95.542-22.538-80.671-29.215-69.129L-41.094-48.551H-.021C13.375-48.551 24.264-37.64 24.264-24.265 24.264-10.89 13.375 0 0 0" fill="#00719a"/>
</g>
</g>
</svg>
